<?xml version="1.0" encoding="UTF-8" standalone="no"?>
<!DOCTYPE svg PUBLIC "-//W3C//DTD SVG 1.1//EN"
 "http://www.w3.org/Graphics/SVG/1.1/DTD/svg11.dtd">
<!-- Generated by graphviz version 2.43.0 (0)
 -->
<!-- Title: CFG for &#39;factorial&#39; function Pages: 1 -->
<svg width="576pt" height="453pt"
 viewBox="0.00 0.00 575.50 453.00" xmlns="http://www.w3.org/2000/svg" xmlns:xlink="http://www.w3.org/1999/xlink">
<g id="graph0" class="graph" transform="scale(1 1) rotate(0) translate(4 449)">
<title>CFG for &#39;factorial&#39; function</title>
<polygon fill="white" stroke="transparent" points="-4,4 -4,-449 571.5,-449 571.5,4 -4,4"/>
<text text-anchor="middle" x="283.75" y="-7.8" font-family="Times,serif" font-size="14.00">CFG for &#39;factorial&#39; function</text>
<!-- Node0x558c0bf85520 -->
<g id="node1" class="node">
<title>Node0x558c0bf85520</title>
<polygon fill="#b70d28" fill-opacity="0.439216" stroke="#b70d28" points="135.5,-308.5 135.5,-444.5 372.5,-444.5 372.5,-308.5 135.5,-308.5"/>
<text text-anchor="start" x="143.5" y="-429.3" font-family="Times,serif" font-size="14.00">%1:</text>
<text text-anchor="start" x="143.5" y="-414.3" font-family="Times,serif" font-size="14.00"> %2 = alloca i64, align 8</text>
<text text-anchor="start" x="143.5" y="-399.3" font-family="Times,serif" font-size="14.00"> %3 = alloca i64, align 8</text>
<text text-anchor="start" x="143.5" y="-384.3" font-family="Times,serif" font-size="14.00"> store i64 %0, ptr %3, align 8</text>
<text text-anchor="start" x="143.5" y="-369.3" font-family="Times,serif" font-size="14.00"> %4 = load i64, ptr %3, align 8</text>
<text text-anchor="start" x="143.5" y="-354.3" font-family="Times,serif" font-size="14.00"> %5 = icmp eq i64 %4, 1</text>
<text text-anchor="start" x="143.5" y="-339.3" font-family="Times,serif" font-size="14.00"> br i1 %5, label %6, label %7</text>
<polyline fill="none" stroke="#b70d28" points="135.5,-331.5 372.5,-331.5 "/>
<text text-anchor="middle" x="194.5" y="-316.3" font-family="Times,serif" font-size="14.00">T</text>
<polyline fill="none" stroke="#b70d28" points="253.5,-308.5 253.5,-331.5 "/>
<text text-anchor="middle" x="313" y="-316.3" font-family="Times,serif" font-size="14.00">F</text>
</g>
<!-- Node0x558c0bf86410 -->
<g id="node2" class="node">
<title>Node0x558c0bf86410</title>
<polygon fill="#f59c7d" fill-opacity="0.439216" stroke="#3d50c3" points="0,-166 0,-234 214,-234 214,-166 0,-166"/>
<text text-anchor="start" x="8" y="-218.8" font-family="Times,serif" font-size="14.00">%6:</text>
<text text-anchor="start" x="8" y="-203.8" font-family="Times,serif" font-size="14.00">6: </text>
<text text-anchor="start" x="8" y="-188.8" font-family="Times,serif" font-size="14.00"> store i64 1, ptr %2, align 8</text>
<text text-anchor="start" x="8" y="-173.8" font-family="Times,serif" font-size="14.00"> br label %13</text>
</g>
<!-- Node0x558c0bf85520&#45;&gt;Node0x558c0bf86410 -->
<g id="edge1" class="edge">
<title>Node0x558c0bf85520:s0&#45;&gt;Node0x558c0bf86410</title>
<path fill="none" stroke="black" d="M134,-319.5C102.07,-319.5 98.45,-278.08 100.84,-244.22"/>
<polygon fill="black" stroke="black" points="104.35,-244.28 101.74,-234.01 97.37,-243.66 104.35,-244.28"/>
</g>
<!-- Node0x558c0bf86460 -->
<g id="node3" class="node">
<title>Node0x558c0bf86460</title>
<polygon fill="#f59c7d" fill-opacity="0.439216" stroke="#3d50c3" points="232.5,-128.5 232.5,-271.5 567.5,-271.5 567.5,-128.5 232.5,-128.5"/>
<text text-anchor="start" x="240.5" y="-256.3" font-family="Times,serif" font-size="14.00">%7:</text>
<text text-anchor="start" x="240.5" y="-241.3" font-family="Times,serif" font-size="14.00">7: </text>
<text text-anchor="start" x="240.5" y="-226.3" font-family="Times,serif" font-size="14.00"> %8 = load i64, ptr %3, align 8</text>
<text text-anchor="start" x="240.5" y="-211.3" font-family="Times,serif" font-size="14.00"> %9 = load i64, ptr %3, align 8</text>
<text text-anchor="start" x="240.5" y="-196.3" font-family="Times,serif" font-size="14.00"> %10 = sub nsw i64 %9, 1</text>
<text text-anchor="start" x="240.5" y="-181.3" font-family="Times,serif" font-size="14.00"> %11 = call i64 @factorial(i64 noundef %10)</text>
<text text-anchor="start" x="240.5" y="-166.3" font-family="Times,serif" font-size="14.00"> %12 = mul nsw i64 %8, %11</text>
<text text-anchor="start" x="240.5" y="-151.3" font-family="Times,serif" font-size="14.00"> store i64 %12, ptr %2, align 8</text>
<text text-anchor="start" x="240.5" y="-136.3" font-family="Times,serif" font-size="14.00"> br label %13</text>
</g>
<!-- Node0x558c0bf85520&#45;&gt;Node0x558c0bf86460 -->
<g id="edge2" class="edge">
<title>Node0x558c0bf85520:s1&#45;&gt;Node0x558c0bf86460</title>
<path fill="none" stroke="black" d="M374,-319.5C394.27,-319.5 402.98,-302.75 405.95,-281.84"/>
<polygon fill="black" stroke="black" points="409.45,-281.94 406.95,-271.64 402.49,-281.25 409.45,-281.94"/>
</g>
<!-- Node0x558c0bf865a0 -->
<g id="node4" class="node">
<title>Node0x558c0bf865a0</title>
<polygon fill="#b70d28" fill-opacity="0.439216" stroke="#b70d28" points="130,-23.5 130,-91.5 376,-91.5 376,-23.5 130,-23.5"/>
<text text-anchor="start" x="138" y="-76.3" font-family="Times,serif" font-size="14.00">%13:</text>
<text text-anchor="start" x="138" y="-61.3" font-family="Times,serif" font-size="14.00">13: </text>
<text text-anchor="start" x="138" y="-46.3" font-family="Times,serif" font-size="14.00"> %14 = load i64, ptr %2, align 8</text>
<text text-anchor="start" x="138" y="-31.3" font-family="Times,serif" font-size="14.00"> ret i64 %14</text>
</g>
<!-- Node0x558c0bf86410&#45;&gt;Node0x558c0bf865a0 -->
<g id="edge3" class="edge">
<title>Node0x558c0bf86410&#45;&gt;Node0x558c0bf865a0</title>
<path fill="none" stroke="black" d="M141.6,-165.7C162.51,-145.58 189.3,-119.8 211.36,-98.57"/>
<polygon fill="black" stroke="black" points="213.87,-101.01 218.65,-91.56 209.02,-95.97 213.87,-101.01"/>
</g>
<!-- Node0x558c0bf86460&#45;&gt;Node0x558c0bf865a0 -->
<g id="edge4" class="edge">
<title>Node0x558c0bf86460&#45;&gt;Node0x558c0bf865a0</title>
<path fill="none" stroke="black" d="M326.07,-128.34C315.36,-118.1 304.66,-107.88 294.88,-98.53"/>
<polygon fill="black" stroke="black" points="297.25,-95.95 287.6,-91.57 292.41,-101.01 297.25,-95.95"/>
</g>
</g>
</svg>
