<svg version="1.1" xmlns="http://www.w3.org/2000/svg" viewBox="0 0 970.6666564941406 511.33331298828125" width="970.6666564941406" height="511.33331298828125">
  <!-- svg-source:excalidraw -->
  
  <defs>
    <style class="style-fonts">
      @font-face {
        font-family: "Virgil";
        src: url("https://excalidraw.com/Virgil.woff2");
      }
      @font-face {
        font-family: "Cascadia";
        src: url("https://excalidraw.com/Cascadia.woff2");
      }
      @font-face {
        font-family: "Assistant";
        src: url("https://excalidraw.com/Assistant-Regular.woff2");
      }
    </style>
    
  </defs>
  <rect x="0" y="0" width="970.6666564941406" height="511.33331298828125" fill="#ffffff"></rect><g stroke-opacity="0.8" fill-opacity="0.8" stroke-linecap="round" transform="translate(10 10) rotate(0 475.3333282470703 245.66665649414062)"><path d="M950.67 245.67 C950.67 249.68, 950.48 253.71, 950.09 257.72 C949.71 261.73, 949.14 265.75, 948.38 269.75 C947.62 273.74, 946.66 277.74, 945.52 281.71 C944.38 285.69, 943.05 289.65, 941.53 293.59 C940.02 297.53, 938.31 301.46, 936.42 305.36 C934.53 309.26, 932.46 313.13, 930.2 316.98 C927.94 320.83, 925.5 324.65, 922.88 328.43 C920.26 332.21, 917.46 335.97, 914.48 339.68 C911.51 343.39, 908.35 347.07, 905.03 350.7 C901.71 354.34, 898.2 357.93, 894.54 361.47 C890.88 365.02, 887.04 368.52, 883.04 371.96 C879.04 375.41, 874.88 378.81, 870.56 382.15 C866.24 385.49, 861.76 388.78, 857.12 392.01 C852.49 395.24, 847.7 398.41, 842.77 401.52 C837.84 404.62, 832.75 407.67, 827.53 410.65 C822.31 413.62, 816.94 416.54, 811.44 419.38 C805.95 422.22, 800.31 425, 794.55 427.69 C788.79 430.39, 782.89 433.02, 776.88 435.57 C770.87 438.12, 764.73 440.59, 758.49 442.99 C752.24 445.38, 745.88 447.7, 739.41 449.93 C732.95 452.16, 726.37 454.32, 719.7 456.38 C713.04 458.45, 706.26 460.43, 699.4 462.33 C692.55 464.22, 685.59 466.03, 678.56 467.75 C671.54 469.46, 664.42 471.1, 657.24 472.63 C650.05 474.17, 642.79 475.62, 635.47 476.97 C628.15 478.33, 620.76 479.59, 613.32 480.75 C605.88 481.92, 598.37 482.99, 590.83 483.97 C583.29 484.95, 575.69 485.83, 568.07 486.61 C560.44 487.4, 552.77 488.08, 545.08 488.67 C537.39 489.26, 529.66 489.76, 521.92 490.15 C514.19 490.54, 506.42 490.84, 498.66 491.04 C490.89 491.23, 483.11 491.33, 475.33 491.33 C467.56 491.33, 459.77 491.23, 452.01 491.04 C444.24 490.84, 436.48 490.54, 428.74 490.15 C421.01 489.76, 413.28 489.26, 405.59 488.67 C397.9 488.08, 390.23 487.4, 382.6 486.61 C374.98 485.83, 367.38 484.95, 359.84 483.97 C352.3 482.99, 344.79 481.92, 337.35 480.75 C329.91 479.59, 322.52 478.33, 315.2 476.97 C307.88 475.62, 300.61 474.17, 293.43 472.63 C286.25 471.1, 279.13 469.46, 272.1 467.75 C265.07 466.03, 258.12 464.22, 251.26 462.33 C244.41 460.43, 237.63 458.45, 230.96 456.38 C224.29 454.32, 217.72 452.16, 211.25 449.93 C204.79 447.7, 198.42 445.38, 192.18 442.99 C185.93 440.59, 179.79 438.12, 173.79 435.57 C167.78 433.02, 161.88 430.39, 156.12 427.69 C150.36 425, 144.72 422.22, 139.22 419.38 C133.72 416.54, 128.36 413.62, 123.13 410.65 C117.91 407.67, 112.83 404.62, 107.9 401.52 C102.96 398.41, 98.17 395.24, 93.54 392.01 C88.91 388.78, 84.43 385.49, 80.11 382.15 C75.79 378.81, 71.62 375.41, 67.63 371.96 C63.63 368.52, 59.79 365.02, 56.13 361.47 C52.46 357.93, 48.96 354.34, 45.64 350.7 C42.31 347.07, 39.16 343.39, 36.18 339.68 C33.21 335.97, 30.41 332.21, 27.79 328.43 C25.17 324.65, 22.72 320.83, 20.47 316.98 C18.21 313.13, 16.13 309.26, 14.25 305.36 C12.36 301.46, 10.65 297.53, 9.13 293.59 C7.62 289.65, 6.29 285.69, 5.14 281.71 C4 277.74, 3.05 273.74, 2.29 269.75 C1.53 265.75, 0.95 261.73, 0.57 257.72 C0.19 253.71, 0 249.68, 0 245.67 C0 241.65, 0.19 237.63, 0.57 233.61 C0.95 229.6, 1.53 225.59, 2.29 221.59 C3.05 217.59, 4 213.59, 5.14 209.62 C6.29 205.65, 7.62 201.68, 9.13 197.74 C10.65 193.8, 12.36 189.87, 14.25 185.97 C16.13 182.08, 18.21 178.2, 20.47 174.35 C22.72 170.51, 25.17 166.69, 27.79 162.9 C30.41 159.12, 33.21 155.37, 36.18 151.65 C39.16 147.94, 42.31 144.26, 45.64 140.63 C48.96 137, 52.46 133.4, 56.13 129.86 C59.79 126.32, 63.63 122.82, 67.63 119.37 C71.62 115.92, 75.79 112.52, 80.11 109.18 C84.43 105.84, 88.91 102.55, 93.54 99.32 C98.17 96.1, 102.96 92.92, 107.9 89.82 C112.83 86.71, 117.91 83.66, 123.13 80.69 C128.36 77.71, 133.72 74.8, 139.22 71.95 C144.72 69.11, 150.36 66.34, 156.12 63.64 C161.88 60.94, 167.78 58.31, 173.79 55.76 C179.79 53.21, 185.93 50.74, 192.18 48.35 C198.42 45.95, 204.79 43.63, 211.25 41.4 C217.72 39.17, 224.29 37.02, 230.96 34.95 C237.63 32.89, 244.41 30.9, 251.26 29.01 C258.12 27.11, 265.07 25.3, 272.1 23.59 C279.13 21.87, 286.25 20.24, 293.43 18.7 C300.61 17.16, 307.88 15.71, 315.2 14.36 C322.52 13.01, 329.91 11.74, 337.35 10.58 C344.79 9.41, 352.3 8.34, 359.84 7.36 C367.38 6.39, 374.98 5.5, 382.6 4.72 C390.23 3.94, 397.9 3.25, 405.59 2.66 C413.28 2.07, 421.01 1.58, 428.74 1.18 C436.48 0.79, 444.24 0.49, 452.01 0.3 C459.77 0.1, 467.56 0, 475.33 0 C483.11 0, 490.89 0.1, 498.66 0.3 C506.42 0.49, 514.19 0.79, 521.92 1.18 C529.66 1.58, 537.39 2.07, 545.08 2.66 C552.77 3.25, 560.44 3.94, 568.07 4.72 C575.69 5.5, 583.29 6.39, 590.83 7.36 C598.37 8.34, 605.88 9.41, 613.32 10.58 C620.76 11.74, 628.15 13.01, 635.47 14.36 C642.79 15.71, 650.05 17.16, 657.24 18.7 C664.42 20.24, 671.54 21.87, 678.56 23.59 C685.59 25.3, 692.55 27.11, 699.4 29.01 C706.26 30.9, 713.04 32.89, 719.7 34.95 C726.37 37.02, 732.95 39.17, 739.41 41.4 C745.88 43.63, 752.24 45.95, 758.49 48.35 C764.73 50.74, 770.87 53.21, 776.88 55.76 C782.89 58.31, 788.79 60.94, 794.55 63.64 C800.31 66.34, 805.95 69.11, 811.44 71.95 C816.94 74.8, 822.31 77.71, 827.53 80.69 C832.75 83.66, 837.84 86.71, 842.77 89.82 C847.7 92.92, 852.49 96.1, 857.12 99.32 C861.76 102.55, 866.24 105.84, 870.56 109.18 C874.88 112.52, 879.04 115.92, 883.04 119.37 C887.04 122.82, 890.88 126.32, 894.54 129.86 C898.2 133.4, 901.71 137, 905.03 140.63 C908.35 144.26, 911.51 147.94, 914.48 151.65 C917.46 155.37, 920.26 159.12, 922.88 162.9 C925.5 166.69, 927.94 170.51, 930.2 174.35 C932.46 178.2, 934.53 182.08, 936.42 185.97 C938.31 189.87, 940.02 193.8, 941.53 197.74 C943.05 201.68, 944.38 205.65, 945.52 209.62 C946.66 213.59, 947.62 217.59, 948.38 221.59 C949.14 225.59, 949.71 229.6, 950.09 233.61 C950.48 237.63, 950.57 243.66, 950.67 245.67 C950.76 247.68, 950.76 243.66, 950.67 245.67" stroke="none" stroke-width="0" fill="#ffc9c9"></path><path d="M950.67 245.67 C950.67 249.68, 950.48 253.71, 950.09 257.72 C949.71 261.73, 949.14 265.75, 948.38 269.75 C947.62 273.74, 946.66 277.74, 945.52 281.71 C944.38 285.69, 943.05 289.65, 941.53 293.59 C940.02 297.53, 938.31 301.46, 936.42 305.36 C934.53 309.26, 932.46 313.13, 930.2 316.98 C927.94 320.83, 925.5 324.65, 922.88 328.43 C920.26 332.21, 917.46 335.97, 914.48 339.68 C911.51 343.39, 908.35 347.07, 905.03 350.7 C901.71 354.34, 898.2 357.93, 894.54 361.47 C890.88 365.02, 887.04 368.52, 883.04 371.96 C879.04 375.41, 874.88 378.81, 870.56 382.15 C866.24 385.49, 861.76 388.78, 857.12 392.01 C852.49 395.24, 847.7 398.41, 842.77 401.52 C837.84 404.62, 832.75 407.67, 827.53 410.65 C822.31 413.62, 816.94 416.54, 811.44 419.38 C805.95 422.22, 800.31 425, 794.55 427.69 C788.79 430.39, 782.89 433.02, 776.88 435.57 C770.87 438.12, 764.73 440.59, 758.49 442.99 C752.24 445.38, 745.88 447.7, 739.41 449.93 C732.95 452.16, 726.37 454.32, 719.7 456.38 C713.04 458.45, 706.26 460.43, 699.4 462.33 C692.55 464.22, 685.59 466.03, 678.56 467.75 C671.54 469.46, 664.42 471.1, 657.24 472.63 C650.05 474.17, 642.79 475.62, 635.47 476.97 C628.15 478.33, 620.76 479.59, 613.32 480.75 C605.88 481.92, 598.37 482.99, 590.83 483.97 C583.29 484.95, 575.69 485.83, 568.07 486.61 C560.44 487.4, 552.77 488.08, 545.08 488.67 C537.39 489.26, 529.66 489.76, 521.92 490.15 C514.19 490.54, 506.42 490.84, 498.66 491.04 C490.89 491.23, 483.11 491.33, 475.33 491.33 C467.56 491.33, 459.77 491.23, 452.01 491.04 C444.24 490.84, 436.48 490.54, 428.74 490.15 C421.01 489.76, 413.28 489.26, 405.59 488.67 C397.9 488.08, 390.23 487.4, 382.6 486.61 C374.98 485.83, 367.38 484.95, 359.84 483.97 C352.3 482.99, 344.79 481.92, 337.35 480.75 C329.91 479.59, 322.52 478.33, 315.2 476.97 C307.88 475.62, 300.61 474.17, 293.43 472.63 C286.25 471.1, 279.13 469.46, 272.1 467.75 C265.07 466.03, 258.12 464.22, 251.26 462.33 C244.41 460.43, 237.63 458.45, 230.96 456.38 C224.29 454.32, 217.72 452.16, 211.25 449.93 C204.79 447.7, 198.42 445.38, 192.18 442.99 C185.93 440.59, 179.79 438.12, 173.79 435.57 C167.78 433.02, 161.88 430.39, 156.12 427.69 C150.36 425, 144.72 422.22, 139.22 419.38 C133.72 416.54, 128.36 413.62, 123.13 410.65 C117.91 407.67, 112.83 404.62, 107.9 401.52 C102.96 398.41, 98.17 395.24, 93.54 392.01 C88.91 388.78, 84.43 385.49, 80.11 382.15 C75.79 378.81, 71.62 375.41, 67.63 371.96 C63.63 368.52, 59.79 365.02, 56.13 361.47 C52.46 357.93, 48.96 354.34, 45.64 350.7 C42.31 347.07, 39.16 343.39, 36.18 339.68 C33.21 335.97, 30.41 332.21, 27.79 328.43 C25.17 324.65, 22.72 320.83, 20.47 316.98 C18.21 313.13, 16.13 309.26, 14.25 305.36 C12.36 301.46, 10.65 297.53, 9.13 293.59 C7.62 289.65, 6.29 285.69, 5.14 281.71 C4 277.74, 3.05 273.74, 2.29 269.75 C1.53 265.75, 0.95 261.73, 0.57 257.72 C0.19 253.71, 0 249.68, 0 245.67 C0 241.65, 0.19 237.63, 0.57 233.61 C0.95 229.6, 1.53 225.59, 2.29 221.59 C3.05 217.59, 4 213.59, 5.14 209.62 C6.29 205.65, 7.62 201.68, 9.13 197.74 C10.65 193.8, 12.36 189.87, 14.25 185.97 C16.13 182.08, 18.21 178.2, 20.47 174.35 C22.72 170.51, 25.17 166.69, 27.79 162.9 C30.41 159.12, 33.21 155.37, 36.18 151.65 C39.16 147.94, 42.31 144.26, 45.64 140.63 C48.96 137, 52.46 133.4, 56.13 129.86 C59.79 126.32, 63.63 122.82, 67.63 119.37 C71.62 115.92, 75.79 112.52, 80.11 109.18 C84.43 105.84, 88.91 102.55, 93.54 99.32 C98.17 96.1, 102.96 92.92, 107.9 89.82 C112.83 86.71, 117.91 83.66, 123.13 80.69 C128.36 77.71, 133.72 74.8, 139.22 71.95 C144.72 69.11, 150.36 66.34, 156.12 63.64 C161.88 60.94, 167.78 58.31, 173.79 55.76 C179.79 53.21, 185.93 50.74, 192.18 48.35 C198.42 45.95, 204.79 43.63, 211.25 41.4 C217.72 39.17, 224.29 37.02, 230.96 34.95 C237.63 32.89, 244.41 30.9, 251.26 29.01 C258.12 27.11, 265.07 25.3, 272.1 23.59 C279.13 21.87, 286.25 20.24, 293.43 18.7 C300.61 17.16, 307.88 15.71, 315.2 14.36 C322.52 13.01, 329.91 11.74, 337.35 10.58 C344.79 9.41, 352.3 8.34, 359.84 7.36 C367.38 6.39, 374.98 5.5, 382.6 4.72 C390.23 3.94, 397.9 3.25, 405.59 2.66 C413.28 2.07, 421.01 1.58, 428.74 1.18 C436.48 0.79, 444.24 0.49, 452.01 0.3 C459.77 0.1, 467.56 0, 475.33 0 C483.11 0, 490.89 0.1, 498.66 0.3 C506.42 0.49, 514.19 0.79, 521.92 1.18 C529.66 1.58, 537.39 2.07, 545.08 2.66 C552.77 3.25, 560.44 3.94, 568.07 4.72 C575.69 5.5, 583.29 6.39, 590.83 7.36 C598.37 8.34, 605.88 9.41, 613.32 10.58 C620.76 11.74, 628.15 13.01, 635.47 14.36 C642.79 15.71, 650.05 17.16, 657.24 18.7 C664.42 20.24, 671.54 21.87, 678.56 23.59 C685.59 25.3, 692.55 27.11, 699.4 29.01 C706.26 30.9, 713.04 32.89, 719.7 34.95 C726.37 37.02, 732.95 39.17, 739.41 41.4 C745.88 43.63, 752.24 45.95, 758.49 48.35 C764.73 50.74, 770.87 53.21, 776.88 55.76 C782.89 58.31, 788.79 60.94, 794.55 63.64 C800.31 66.34, 805.95 69.11, 811.44 71.95 C816.94 74.8, 822.31 77.71, 827.53 80.69 C832.75 83.66, 837.84 86.71, 842.77 89.82 C847.7 92.92, 852.49 96.1, 857.12 99.32 C861.76 102.55, 866.24 105.84, 870.56 109.18 C874.88 112.52, 879.04 115.92, 883.04 119.37 C887.04 122.82, 890.88 126.32, 894.54 129.86 C898.2 133.4, 901.71 137, 905.03 140.63 C908.35 144.26, 911.51 147.94, 914.48 151.65 C917.46 155.37, 920.26 159.12, 922.88 162.9 C925.5 166.69, 927.94 170.51, 930.2 174.35 C932.46 178.2, 934.53 182.08, 936.42 185.97 C938.31 189.87, 940.02 193.8, 941.53 197.74 C943.05 201.68, 944.38 205.65, 945.52 209.62 C946.66 213.59, 947.62 217.59, 948.38 221.59 C949.14 225.59, 949.71 229.6, 950.09 233.61 C950.48 237.63, 950.57 243.66, 950.67 245.67 C950.76 247.68, 950.76 243.66, 950.67 245.67" stroke="#1e1e1e" stroke-width="1" fill="none"></path></g><g transform="translate(418.6321716308594 56) rotate(0 52.734375 21.600000000000023)"><text x="52.734375" y="0" font-family="Cascadia, Segoe UI Emoji" font-size="36px" fill="#1e1e1e" text-anchor="middle" style="white-space: pre;" direction="ltr" dominant-baseline="text-before-edge">Value</text></g><g stroke-opacity="0.7" fill-opacity="0.7" stroke-linecap="round" transform="translate(100.66665649414062 96.66665649414062) rotate(0 174.66665649414062 84.00001525878906)"><path d="M349.33 84 C349.33 86.31, 349.13 88.63, 348.74 90.94 C348.34 93.24, 347.74 95.55, 346.95 97.83 C346.16 100.11, 345.17 102.38, 343.99 104.62 C342.81 106.86, 341.43 109.09, 339.87 111.27 C338.31 113.46, 336.55 115.62, 334.62 117.74 C332.69 119.86, 330.57 121.95, 328.28 123.98 C325.99 126.01, 323.52 128.01, 320.89 129.94 C318.26 131.88, 315.46 133.77, 312.5 135.59 C309.55 137.42, 306.43 139.19, 303.17 140.89 C299.92 142.59, 296.5 144.23, 292.97 145.8 C289.43 147.37, 285.74 148.87, 281.95 150.29 C278.15 151.71, 274.23 153.06, 270.2 154.32 C266.18 155.59, 262.03 156.78, 257.8 157.88 C253.57 158.98, 249.23 160, 244.83 160.92 C240.43 161.85, 235.93 162.7, 231.38 163.45 C226.83 164.2, 222.21 164.86, 217.54 165.43 C212.88 166, 208.16 166.47, 203.42 166.85 C198.67 167.23, 193.88 167.52, 189.09 167.71 C184.3 167.9, 179.47 168, 174.67 168 C169.86 168, 165.03 167.9, 160.24 167.71 C155.45 167.52, 150.66 167.23, 145.92 166.85 C141.18 166.47, 136.45 166, 131.79 165.43 C127.13 164.86, 122.5 164.2, 117.95 163.45 C113.41 162.7, 108.91 161.85, 104.5 160.92 C100.1 160, 95.76 158.98, 91.53 157.88 C87.31 156.78, 83.16 155.59, 79.13 154.32 C75.11 153.06, 71.18 151.71, 67.38 150.29 C63.59 148.87, 59.91 147.37, 56.37 145.8 C52.83 144.23, 49.42 142.59, 46.16 140.89 C42.9 139.19, 39.78 137.42, 36.83 135.59 C33.88 133.77, 31.07 131.88, 28.44 129.94 C25.81 128.01, 23.34 126.01, 21.05 123.98 C18.76 121.95, 16.64 119.86, 14.71 117.74 C12.78 115.62, 11.03 113.46, 9.46 111.27 C7.9 109.09, 6.53 106.86, 5.34 104.62 C4.16 102.38, 3.17 100.11, 2.38 97.83 C1.59 95.55, 0.99 93.24, 0.6 90.94 C0.2 88.63, 0 86.31, 0 84 C0 81.69, 0.2 79.37, 0.6 77.06 C0.99 74.76, 1.59 72.45, 2.38 70.17 C3.17 67.89, 4.16 65.62, 5.34 63.38 C6.53 61.14, 7.9 58.91, 9.46 56.73 C11.03 54.54, 12.78 52.38, 14.71 50.26 C16.64 48.14, 18.76 46.05, 21.05 44.02 C23.34 41.99, 25.81 39.99, 28.44 38.06 C31.07 36.12, 33.88 34.23, 36.83 32.41 C39.78 30.58, 42.9 28.81, 46.16 27.11 C49.42 25.41, 52.83 23.77, 56.37 22.2 C59.91 20.63, 63.59 19.13, 67.38 17.71 C71.18 16.29, 75.11 14.94, 79.13 13.68 C83.16 12.41, 87.31 11.22, 91.53 10.12 C95.76 9.02, 100.1 8, 104.5 7.08 C108.91 6.15, 113.41 5.3, 117.95 4.55 C122.5 3.8, 127.13 3.14, 131.79 2.57 C136.45 2, 141.18 1.53, 145.92 1.15 C150.66 0.77, 155.45 0.48, 160.24 0.29 C165.03 0.1, 169.86 0, 174.67 0 C179.47 0, 184.3 0.1, 189.09 0.29 C193.88 0.48, 198.67 0.77, 203.42 1.15 C208.16 1.53, 212.88 2, 217.54 2.57 C222.21 3.14, 226.83 3.8, 231.38 4.55 C235.93 5.3, 240.43 6.15, 244.83 7.08 C249.23 8, 253.57 9.02, 257.8 10.12 C262.03 11.22, 266.18 12.41, 270.2 13.68 C274.23 14.94, 278.15 16.29, 281.95 17.71 C285.74 19.13, 289.43 20.63, 292.97 22.2 C296.5 23.77, 299.92 25.41, 303.17 27.11 C306.43 28.81, 309.55 30.58, 312.5 32.41 C315.46 34.23, 318.26 36.12, 320.89 38.06 C323.52 39.99, 325.99 41.99, 328.28 44.02 C330.57 46.05, 332.69 48.14, 334.62 50.26 C336.55 52.38, 338.31 54.54, 339.87 56.73 C341.43 58.91, 342.81 61.14, 343.99 63.38 C345.17 65.62, 346.16 67.89, 346.95 70.17 C347.74 72.45, 348.34 74.76, 348.74 77.06 C349.13 79.37, 349.33 81.69, 349.33 84" stroke="none" stroke-width="0" fill="#a5d8ff"></path><path d="M349.33 84 C349.33 86.31, 349.13 88.63, 348.74 90.94 C348.34 93.24, 347.74 95.55, 346.95 97.83 C346.16 100.11, 345.17 102.38, 343.99 104.62 C342.81 106.86, 341.43 109.09, 339.87 111.27 C338.31 113.46, 336.55 115.62, 334.62 117.74 C332.69 119.86, 330.57 121.95, 328.28 123.98 C325.99 126.01, 323.52 128.01, 320.89 129.94 C318.26 131.88, 315.46 133.77, 312.5 135.59 C309.55 137.42, 306.43 139.19, 303.17 140.89 C299.92 142.59, 296.5 144.23, 292.97 145.8 C289.43 147.37, 285.74 148.87, 281.95 150.29 C278.15 151.71, 274.23 153.06, 270.2 154.32 C266.18 155.59, 262.03 156.78, 257.8 157.88 C253.57 158.98, 249.23 160, 244.83 160.92 C240.43 161.85, 235.93 162.7, 231.38 163.45 C226.83 164.2, 222.21 164.86, 217.54 165.43 C212.88 166, 208.16 166.47, 203.42 166.85 C198.67 167.23, 193.88 167.52, 189.09 167.71 C184.3 167.9, 179.47 168, 174.67 168 C169.86 168, 165.03 167.9, 160.24 167.71 C155.45 167.52, 150.66 167.23, 145.92 166.85 C141.18 166.47, 136.45 166, 131.79 165.43 C127.13 164.86, 122.5 164.2, 117.95 163.45 C113.41 162.7, 108.91 161.85, 104.5 160.92 C100.1 160, 95.76 158.98, 91.53 157.88 C87.31 156.78, 83.16 155.59, 79.13 154.32 C75.11 153.06, 71.18 151.71, 67.38 150.29 C63.59 148.87, 59.91 147.37, 56.37 145.8 C52.83 144.23, 49.42 142.59, 46.16 140.89 C42.9 139.19, 39.78 137.42, 36.83 135.59 C33.88 133.77, 31.07 131.88, 28.44 129.94 C25.81 128.01, 23.34 126.01, 21.05 123.98 C18.76 121.95, 16.64 119.86, 14.71 117.74 C12.78 115.62, 11.03 113.46, 9.46 111.27 C7.9 109.09, 6.53 106.86, 5.34 104.62 C4.16 102.38, 3.17 100.11, 2.38 97.83 C1.59 95.55, 0.99 93.24, 0.6 90.94 C0.2 88.63, 0 86.31, 0 84 C0 81.69, 0.2 79.37, 0.6 77.06 C0.99 74.76, 1.59 72.45, 2.38 70.17 C3.17 67.89, 4.16 65.62, 5.34 63.38 C6.53 61.14, 7.9 58.91, 9.46 56.73 C11.03 54.54, 12.78 52.38, 14.71 50.26 C16.64 48.14, 18.76 46.05, 21.05 44.02 C23.34 41.99, 25.81 39.99, 28.44 38.06 C31.07 36.12, 33.88 34.23, 36.83 32.41 C39.78 30.58, 42.9 28.81, 46.16 27.11 C49.42 25.41, 52.83 23.77, 56.37 22.2 C59.91 20.63, 63.59 19.13, 67.38 17.71 C71.18 16.29, 75.11 14.94, 79.13 13.68 C83.16 12.41, 87.31 11.22, 91.53 10.12 C95.76 9.02, 100.1 8, 104.5 7.08 C108.91 6.15, 113.41 5.3, 117.95 4.55 C122.5 3.8, 127.13 3.14, 131.79 2.57 C136.45 2, 141.18 1.53, 145.92 1.15 C150.66 0.77, 155.45 0.48, 160.24 0.29 C165.03 0.1, 169.86 0, 174.67 0 C179.47 0, 184.3 0.1, 189.09 0.29 C193.88 0.48, 198.67 0.77, 203.42 1.15 C208.16 1.53, 212.88 2, 217.54 2.57 C222.21 3.14, 226.83 3.8, 231.38 4.55 C235.93 5.3, 240.43 6.15, 244.83 7.08 C249.23 8, 253.57 9.02, 257.8 10.12 C262.03 11.22, 266.18 12.41, 270.2 13.68 C274.23 14.94, 278.15 16.29, 281.95 17.71 C285.74 19.13, 289.43 20.63, 292.97 22.2 C296.5 23.77, 299.92 25.41, 303.17 27.11 C306.43 28.81, 309.55 30.58, 312.5 32.41 C315.46 34.23, 318.26 36.12, 320.89 38.06 C323.52 39.99, 325.99 41.99, 328.28 44.02 C330.57 46.05, 332.69 48.14, 334.62 50.26 C336.55 52.38, 338.31 54.54, 339.87 56.73 C341.43 58.91, 342.81 61.14, 343.99 63.38 C345.17 65.62, 346.16 67.89, 346.95 70.17 C347.74 72.45, 348.34 74.76, 348.74 77.06 C349.13 79.37, 349.33 81.69, 349.33 84" stroke="#1971c2" stroke-width="1" fill="none"></path></g><g transform="translate(176.95828247070312 121.33331298828125) rotate(0 84.375 21.600000000000023)"><text x="84.375" y="0" font-family="Cascadia, Segoe UI Emoji" font-size="36px" fill="#1e1e1e" text-anchor="middle" style="white-space: pre;" direction="ltr" dominant-baseline="text-before-edge">Constant</text></g><g stroke-opacity="0.7" fill-opacity="0.7" stroke-linecap="round" transform="translate(474.0000305175781 75.33331298828125) rotate(0 231 148)"><path d="M462 148 C462 151.37, 461.82 154.74, 461.46 158.1 C461.1 161.46, 460.56 164.82, 459.85 168.15 C459.13 171.49, 458.24 174.82, 457.17 178.11 C456.1 181.41, 454.85 184.69, 453.43 187.93 C452.02 191.17, 450.42 194.39, 448.66 197.56 C446.9 200.73, 444.97 203.88, 442.88 206.96 C440.78 210.05, 438.52 213.1, 436.1 216.09 C433.68 219.08, 431.1 222.02, 428.37 224.9 C425.64 227.77, 422.75 230.6, 419.72 233.35 C416.69 236.1, 413.51 238.79, 410.19 241.4 C406.87 244.01, 403.41 246.56, 399.82 249.02 C396.24 251.48, 392.51 253.87, 388.67 256.16 C384.83 258.46, 380.86 260.68, 376.78 262.81 C372.71 264.93, 368.51 266.97, 364.21 268.91 C359.92 270.85, 355.51 272.7, 351.02 274.45 C346.53 276.2, 341.94 277.86, 337.28 279.41 C332.61 280.96, 327.85 282.41, 323.03 283.75 C318.21 285.09, 313.31 286.33, 308.36 287.45 C303.41 288.58, 298.38 289.6, 293.32 290.51 C288.26 291.42, 283.14 292.22, 278 292.9 C272.85 293.59, 267.66 294.16, 262.45 294.62 C257.25 295.08, 252.01 295.43, 246.76 295.65 C241.52 295.88, 236.25 296, 231 296 C225.75 296, 220.48 295.88, 215.24 295.65 C209.99 295.43, 204.75 295.08, 199.55 294.62 C194.34 294.16, 189.15 293.59, 184 292.9 C178.86 292.22, 173.74 291.42, 168.68 290.51 C163.62 289.6, 158.59 288.58, 153.64 287.45 C148.69 286.33, 143.79 285.09, 138.97 283.75 C134.15 282.41, 129.39 280.96, 124.72 279.41 C120.06 277.86, 115.47 276.2, 110.98 274.45 C106.49 272.7, 102.08 270.85, 97.79 268.91 C93.49 266.97, 89.29 264.93, 85.22 262.81 C81.14 260.68, 77.17 258.46, 73.33 256.16 C69.49 253.87, 65.76 251.48, 62.18 249.02 C58.59 246.56, 55.13 244.01, 51.81 241.4 C48.49 238.79, 45.31 236.1, 42.28 233.35 C39.25 230.6, 36.36 227.77, 33.63 224.9 C30.9 222.02, 28.32 219.08, 25.9 216.09 C23.48 213.1, 21.22 210.05, 19.12 206.96 C17.03 203.88, 15.1 200.73, 13.34 197.56 C11.58 194.39, 9.98 191.17, 8.57 187.93 C7.15 184.69, 5.9 181.41, 4.83 178.11 C3.76 174.82, 2.87 171.49, 2.15 168.15 C1.44 164.82, 0.9 161.46, 0.54 158.1 C0.18 154.74, 0 151.37, 0 148 C0 144.63, 0.18 141.26, 0.54 137.9 C0.9 134.54, 1.44 131.18, 2.15 127.85 C2.87 124.51, 3.76 121.18, 4.83 117.89 C5.9 114.59, 7.15 111.31, 8.57 108.07 C9.98 104.83, 11.58 101.61, 13.34 98.44 C15.1 95.27, 17.03 92.12, 19.12 89.04 C21.22 85.95, 23.48 82.9, 25.9 79.91 C28.32 76.92, 30.9 73.98, 33.63 71.1 C36.36 68.23, 39.25 65.4, 42.28 62.65 C45.31 59.9, 48.49 57.21, 51.81 54.6 C55.13 51.99, 58.59 49.44, 62.18 46.98 C65.76 44.52, 69.49 42.13, 73.33 39.84 C77.17 37.54, 81.14 35.32, 85.22 33.19 C89.29 31.07, 93.49 29.03, 97.79 27.09 C102.08 25.15, 106.49 23.3, 110.98 21.55 C115.47 19.8, 120.06 18.14, 124.72 16.59 C129.39 15.04, 134.15 13.59, 138.97 12.25 C143.79 10.91, 148.69 9.67, 153.64 8.55 C158.59 7.42, 163.62 6.4, 168.68 5.49 C173.74 4.58, 178.86 3.78, 184 3.1 C189.15 2.41, 194.34 1.84, 199.55 1.38 C204.75 0.92, 209.99 0.57, 215.24 0.35 C220.48 0.12, 225.75 0, 231 0 C236.25 0, 241.52 0.12, 246.76 0.35 C252.01 0.57, 257.25 0.92, 262.45 1.38 C267.66 1.84, 272.85 2.41, 278 3.1 C283.14 3.78, 288.26 4.58, 293.32 5.49 C298.38 6.4, 303.41 7.42, 308.36 8.55 C313.31 9.67, 318.21 10.91, 323.03 12.25 C327.85 13.59, 332.61 15.04, 337.28 16.59 C341.94 18.14, 346.53 19.8, 351.02 21.55 C355.51 23.3, 359.92 25.15, 364.21 27.09 C368.51 29.03, 372.71 31.07, 376.78 33.19 C380.86 35.32, 384.83 37.54, 388.67 39.84 C392.51 42.13, 396.24 44.52, 399.82 46.98 C403.41 49.44, 406.87 51.99, 410.19 54.6 C413.51 57.21, 416.69 59.9, 419.72 62.65 C422.75 65.4, 425.64 68.23, 428.37 71.1 C431.1 73.98, 433.68 76.92, 436.1 79.91 C438.52 82.9, 440.78 85.95, 442.88 89.04 C444.97 92.12, 446.9 95.27, 448.66 98.44 C450.42 101.61, 452.02 104.83, 453.43 108.07 C454.85 111.31, 456.1 114.59, 457.17 117.89 C458.24 121.18, 459.13 124.51, 459.85 127.85 C460.56 131.18, 461.1 134.54, 461.46 137.9 C461.82 141.26, 462 144.63, 462 148" stroke="none" stroke-width="0" fill="#b2f2bb"></path><path d="M462 148 C462 151.37, 461.82 154.74, 461.46 158.1 C461.1 161.46, 460.56 164.82, 459.85 168.15 C459.13 171.49, 458.24 174.82, 457.17 178.11 C456.1 181.41, 454.85 184.69, 453.43 187.93 C452.02 191.17, 450.42 194.39, 448.66 197.56 C446.9 200.73, 444.97 203.88, 442.88 206.96 C440.78 210.05, 438.52 213.1, 436.1 216.09 C433.68 219.08, 431.1 222.02, 428.37 224.9 C425.64 227.77, 422.75 230.6, 419.72 233.35 C416.69 236.1, 413.51 238.79, 410.19 241.4 C406.87 244.01, 403.41 246.56, 399.82 249.02 C396.24 251.48, 392.51 253.87, 388.67 256.16 C384.83 258.46, 380.86 260.68, 376.78 262.81 C372.71 264.93, 368.51 266.97, 364.21 268.91 C359.92 270.85, 355.51 272.7, 351.02 274.45 C346.53 276.2, 341.94 277.86, 337.28 279.41 C332.61 280.96, 327.85 282.41, 323.03 283.75 C318.21 285.09, 313.31 286.33, 308.36 287.45 C303.41 288.58, 298.38 289.6, 293.32 290.51 C288.26 291.42, 283.14 292.22, 278 292.9 C272.85 293.59, 267.66 294.16, 262.45 294.62 C257.25 295.08, 252.01 295.43, 246.76 295.65 C241.52 295.88, 236.25 296, 231 296 C225.75 296, 220.48 295.88, 215.24 295.65 C209.99 295.43, 204.75 295.08, 199.55 294.62 C194.34 294.16, 189.15 293.59, 184 292.9 C178.86 292.22, 173.74 291.42, 168.68 290.51 C163.62 289.6, 158.59 288.58, 153.64 287.45 C148.69 286.33, 143.79 285.09, 138.97 283.75 C134.15 282.41, 129.39 280.96, 124.72 279.41 C120.06 277.86, 115.47 276.2, 110.98 274.45 C106.49 272.7, 102.08 270.85, 97.79 268.91 C93.49 266.97, 89.29 264.93, 85.22 262.81 C81.14 260.68, 77.17 258.46, 73.33 256.16 C69.49 253.87, 65.76 251.48, 62.18 249.02 C58.59 246.56, 55.13 244.01, 51.81 241.4 C48.49 238.79, 45.31 236.1, 42.28 233.35 C39.25 230.6, 36.36 227.77, 33.63 224.9 C30.9 222.02, 28.32 219.08, 25.9 216.09 C23.48 213.1, 21.22 210.05, 19.12 206.96 C17.03 203.88, 15.1 200.73, 13.34 197.56 C11.58 194.39, 9.98 191.17, 8.57 187.93 C7.15 184.69, 5.9 181.41, 4.83 178.11 C3.76 174.82, 2.87 171.49, 2.15 168.15 C1.44 164.82, 0.9 161.46, 0.54 158.1 C0.18 154.74, 0 151.37, 0 148 C0 144.63, 0.18 141.26, 0.54 137.9 C0.9 134.54, 1.44 131.18, 2.15 127.85 C2.87 124.51, 3.76 121.18, 4.83 117.89 C5.9 114.59, 7.15 111.31, 8.57 108.07 C9.98 104.83, 11.58 101.61, 13.34 98.44 C15.1 95.27, 17.03 92.12, 19.12 89.04 C21.22 85.95, 23.48 82.9, 25.9 79.91 C28.32 76.92, 30.9 73.98, 33.63 71.1 C36.36 68.23, 39.25 65.4, 42.28 62.65 C45.31 59.9, 48.49 57.21, 51.81 54.6 C55.13 51.99, 58.59 49.44, 62.18 46.98 C65.76 44.52, 69.49 42.13, 73.33 39.84 C77.17 37.54, 81.14 35.32, 85.22 33.19 C89.29 31.07, 93.49 29.03, 97.79 27.09 C102.08 25.15, 106.49 23.3, 110.98 21.55 C115.47 19.8, 120.06 18.14, 124.72 16.59 C129.39 15.04, 134.15 13.59, 138.97 12.25 C143.79 10.91, 148.69 9.67, 153.64 8.55 C158.59 7.42, 163.62 6.4, 168.68 5.49 C173.74 4.58, 178.86 3.78, 184 3.1 C189.15 2.41, 194.34 1.84, 199.55 1.38 C204.75 0.92, 209.99 0.57, 215.24 0.35 C220.48 0.12, 225.75 0, 231 0 C236.25 0, 241.52 0.12, 246.76 0.35 C252.01 0.57, 257.25 0.92, 262.45 1.38 C267.66 1.84, 272.85 2.41, 278 3.1 C283.14 3.78, 288.26 4.58, 293.32 5.49 C298.38 6.4, 303.41 7.42, 308.36 8.55 C313.31 9.67, 318.21 10.91, 323.03 12.25 C327.85 13.59, 332.61 15.04, 337.28 16.59 C341.94 18.14, 346.53 19.8, 351.02 21.55 C355.51 23.3, 359.92 25.15, 364.21 27.09 C368.51 29.03, 372.71 31.07, 376.78 33.19 C380.86 35.32, 384.83 37.54, 388.67 39.84 C392.51 42.13, 396.24 44.52, 399.82 46.98 C403.41 49.44, 406.87 51.99, 410.19 54.6 C413.51 57.21, 416.69 59.9, 419.72 62.65 C422.75 65.4, 425.64 68.23, 428.37 71.1 C431.1 73.98, 433.68 76.92, 436.1 79.91 C438.52 82.9, 440.78 85.95, 442.88 89.04 C444.97 92.12, 446.9 95.27, 448.66 98.44 C450.42 101.61, 452.02 104.83, 453.43 108.07 C454.85 111.31, 456.1 114.59, 457.17 117.89 C458.24 121.18, 459.13 124.51, 459.85 127.85 C460.56 131.18, 461.1 134.54, 461.46 137.9 C461.82 141.26, 462 144.63, 462 148" stroke="#1e1e1e" stroke-width="1" fill="none"></path></g><g transform="translate(595.3177795410156 114.66668701171875) rotate(0 116.015625 21.600000000000023)"><text x="116.015625" y="0" font-family="Cascadia, Segoe UI Emoji" font-size="36px" fill="#1e1e1e" text-anchor="middle" style="white-space: pre;" direction="ltr" dominant-baseline="text-before-edge">Instruction</text></g><g transform="translate(512.8592834472656 182.39999999999998) rotate(0 205.078125 48)"><text x="0" y="0" font-family="Cascadia, Segoe UI Emoji" font-size="20px" fill="#1e1e1e" text-anchor="start" style="white-space: pre;" direction="ltr" dominant-baseline="text-before-edge">BinaryOps: Add/Sub/...</text><text x="0" y="24" font-family="Cascadia, Segoe UI Emoji" font-size="20px" fill="#1e1e1e" text-anchor="start" style="white-space: pre;" direction="ltr" dominant-baseline="text-before-edge">MemoryOps: Load/Store/Alloca/Offset</text><text x="0" y="48" font-family="Cascadia, Segoe UI Emoji" font-size="20px" fill="#1e1e1e" text-anchor="start" style="white-space: pre;" direction="ltr" dominant-baseline="text-before-edge">OtherOps: Call</text><text x="0" y="72" font-family="Cascadia, Segoe UI Emoji" font-size="20px" fill="#1e1e1e" text-anchor="start" style="white-space: pre;" direction="ltr" dominant-baseline="text-before-edge">TerminatorOps: Ret/Jump/Br</text></g><g transform="translate(196.66665649414062 177.3333740234375) rotate(0 70.3125 24)"><text x="0" y="0" font-family="Cascadia, Segoe UI Emoji" font-size="20px" fill="#1e1e1e" text-anchor="start" style="white-space: pre;" direction="ltr" dominant-baseline="text-before-edge">ConstantInt</text><text x="0" y="24" font-family="Cascadia, Segoe UI Emoji" font-size="20px" fill="#1e1e1e" text-anchor="start" style="white-space: pre;" direction="ltr" dominant-baseline="text-before-edge">ConstantUnit</text></g><g stroke-linecap="round" transform="translate(154.66665649414062 300) rotate(0 124.66665649414062 58)"><path d="M249.33 58 C249.33 59.89, 249.13 61.8, 248.73 63.68 C248.33 65.57, 247.73 67.46, 246.94 69.32 C246.14 71.17, 245.15 73.02, 243.97 74.84 C242.78 76.65, 241.4 78.44, 239.84 80.2 C238.28 81.95, 236.53 83.67, 234.61 85.34 C232.69 87.01, 230.59 88.65, 228.32 90.22 C226.06 91.8, 223.62 93.33, 221.04 94.79 C218.45 96.26, 215.7 97.67, 212.82 99.01 C209.94 100.35, 206.9 101.63, 203.75 102.83 C200.61 104.04, 197.31 105.17, 193.93 106.23 C190.54 107.28, 187.03 108.26, 183.43 109.15 C179.84 110.04, 176.14 110.86, 172.37 111.59 C168.61 112.31, 164.75 112.95, 160.86 113.5 C156.96 114.05, 152.98 114.52, 148.99 114.89 C144.99 115.26, 140.94 115.53, 136.89 115.72 C132.83 115.91, 128.74 116, 124.67 116 C120.59 116, 116.5 115.91, 112.45 115.72 C108.39 115.53, 104.34 115.26, 100.35 114.89 C96.35 114.52, 92.38 114.05, 88.48 113.5 C84.58 112.95, 80.72 112.31, 76.96 111.59 C73.2 110.86, 69.49 110.04, 65.9 109.15 C62.31 108.26, 58.79 107.28, 55.41 106.23 C52.02 105.17, 48.73 104.04, 45.58 102.83 C42.43 101.63, 39.39 100.35, 36.51 99.01 C33.63 97.67, 30.88 96.26, 28.3 94.79 C25.71 93.33, 23.27 91.8, 21.01 90.22 C18.75 88.65, 16.64 87.01, 14.72 85.34 C12.8 83.67, 11.05 81.95, 9.49 80.2 C7.93 78.44, 6.55 76.65, 5.37 74.84 C4.19 73.02, 3.19 71.17, 2.4 69.32 C1.6 67.46, 1 65.57, 0.6 63.68 C0.2 61.8, 0 59.89, 0 58 C0 56.11, 0.2 54.2, 0.6 52.32 C1 50.43, 1.6 48.54, 2.4 46.68 C3.19 44.83, 4.19 42.98, 5.37 41.16 C6.55 39.35, 7.93 37.56, 9.49 35.8 C11.05 34.05, 12.8 32.33, 14.72 30.66 C16.64 28.99, 18.75 27.35, 21.01 25.78 C23.27 24.2, 25.71 22.67, 28.3 21.21 C30.88 19.74, 33.63 18.33, 36.51 16.99 C39.39 15.65, 42.43 14.37, 45.58 13.17 C48.73 11.96, 52.02 10.83, 55.41 9.77 C58.79 8.72, 62.31 7.74, 65.9 6.85 C69.49 5.96, 73.2 5.14, 76.96 4.41 C80.72 3.69, 84.58 3.05, 88.48 2.5 C92.38 1.95, 96.35 1.48, 100.35 1.11 C104.34 0.74, 108.39 0.47, 112.45 0.28 C116.5 0.09, 120.59 0, 124.67 0 C128.74 0, 132.83 0.09, 136.89 0.28 C140.94 0.47, 144.99 0.74, 148.99 1.11 C152.98 1.48, 156.96 1.95, 160.86 2.5 C164.75 3.05, 168.61 3.69, 172.37 4.41 C176.14 5.14, 179.84 5.96, 183.43 6.85 C187.03 7.74, 190.54 8.72, 193.93 9.77 C197.31 10.83, 200.61 11.96, 203.75 13.17 C206.9 14.37, 209.94 15.65, 212.82 16.99 C215.7 18.33, 218.45 19.74, 221.04 21.21 C223.62 22.67, 226.06 24.2, 228.32 25.78 C230.59 27.35, 232.69 28.99, 234.61 30.66 C236.53 32.33, 238.28 34.05, 239.84 35.8 C241.4 37.56, 242.78 39.35, 243.97 41.16 C245.15 42.98, 246.14 44.83, 246.94 46.68 C247.73 48.54, 248.33 50.43, 248.73 52.32 C249.13 54.2, 249.23 57.05, 249.33 58 C249.43 58.95, 249.43 57.05, 249.33 58" stroke="none" stroke-width="0" fill="#ffec99"></path><path d="M249.33 58 C249.33 59.89, 249.13 61.8, 248.73 63.68 C248.33 65.57, 247.73 67.46, 246.94 69.32 C246.14 71.17, 245.15 73.02, 243.97 74.84 C242.78 76.65, 241.4 78.44, 239.84 80.2 C238.28 81.95, 236.53 83.67, 234.61 85.34 C232.69 87.01, 230.59 88.65, 228.32 90.22 C226.06 91.8, 223.62 93.33, 221.04 94.79 C218.45 96.26, 215.7 97.67, 212.82 99.01 C209.94 100.35, 206.9 101.63, 203.75 102.83 C200.61 104.04, 197.31 105.17, 193.93 106.23 C190.54 107.28, 187.03 108.26, 183.43 109.15 C179.84 110.04, 176.14 110.86, 172.37 111.59 C168.61 112.31, 164.75 112.95, 160.86 113.5 C156.96 114.05, 152.98 114.52, 148.99 114.89 C144.99 115.26, 140.94 115.53, 136.89 115.72 C132.83 115.91, 128.74 116, 124.67 116 C120.59 116, 116.5 115.91, 112.45 115.72 C108.39 115.53, 104.34 115.26, 100.35 114.89 C96.35 114.52, 92.38 114.05, 88.48 113.5 C84.58 112.95, 80.72 112.31, 76.96 111.59 C73.2 110.86, 69.49 110.04, 65.9 109.15 C62.31 108.26, 58.79 107.28, 55.41 106.23 C52.02 105.17, 48.73 104.04, 45.58 102.83 C42.43 101.63, 39.39 100.35, 36.51 99.01 C33.63 97.67, 30.88 96.26, 28.3 94.79 C25.71 93.33, 23.27 91.8, 21.01 90.22 C18.75 88.65, 16.64 87.01, 14.72 85.34 C12.8 83.67, 11.05 81.95, 9.49 80.2 C7.93 78.44, 6.55 76.65, 5.37 74.84 C4.19 73.02, 3.19 71.17, 2.4 69.32 C1.6 67.46, 1 65.57, 0.6 63.68 C0.2 61.8, 0 59.89, 0 58 C0 56.11, 0.2 54.2, 0.6 52.32 C1 50.43, 1.6 48.54, 2.4 46.68 C3.19 44.83, 4.19 42.98, 5.37 41.16 C6.55 39.35, 7.93 37.56, 9.49 35.8 C11.05 34.05, 12.8 32.33, 14.72 30.66 C16.64 28.99, 18.75 27.35, 21.01 25.78 C23.27 24.2, 25.71 22.67, 28.3 21.21 C30.88 19.74, 33.63 18.33, 36.51 16.99 C39.39 15.65, 42.43 14.37, 45.58 13.17 C48.73 11.96, 52.02 10.83, 55.41 9.77 C58.79 8.72, 62.31 7.74, 65.9 6.85 C69.49 5.96, 73.2 5.14, 76.96 4.41 C80.72 3.69, 84.58 3.05, 88.48 2.5 C92.38 1.95, 96.35 1.48, 100.35 1.11 C104.34 0.74, 108.39 0.47, 112.45 0.28 C116.5 0.09, 120.59 0, 124.67 0 C128.74 0, 132.83 0.09, 136.89 0.28 C140.94 0.47, 144.99 0.74, 148.99 1.11 C152.98 1.48, 156.96 1.95, 160.86 2.5 C164.75 3.05, 168.61 3.69, 172.37 4.41 C176.14 5.14, 179.84 5.96, 183.43 6.85 C187.03 7.74, 190.54 8.72, 193.93 9.77 C197.31 10.83, 200.61 11.96, 203.75 13.17 C206.9 14.37, 209.94 15.65, 212.82 16.99 C215.7 18.33, 218.45 19.74, 221.04 21.21 C223.62 22.67, 226.06 24.2, 228.32 25.78 C230.59 27.35, 232.69 28.99, 234.61 30.66 C236.53 32.33, 238.28 34.05, 239.84 35.8 C241.4 37.56, 242.78 39.35, 243.97 41.16 C245.15 42.98, 246.14 44.83, 246.94 46.68 C247.73 48.54, 248.33 50.43, 248.73 52.32 C249.13 54.2, 249.23 57.05, 249.33 58 C249.43 58.95, 249.43 57.05, 249.33 58" stroke="#1e1e1e" stroke-width="1" fill="none"></path></g><g transform="translate(197.1494247934205 345.98780669118025) rotate(0 82.03125 12)"><text x="82.03125" y="0" font-family="Cascadia, Segoe UI Emoji" font-size="20px" fill="#1e1e1e" text-anchor="middle" style="white-space: pre;" direction="ltr" dominant-baseline="text-before-edge">GlobalVariable</text></g><g stroke-linecap="round" transform="translate(379 369.66668701171875) rotate(0 124.66665649414062 58)"><path d="M249.33 58 C249.33 59.89, 249.13 61.8, 248.73 63.68 C248.33 65.57, 247.73 67.46, 246.94 69.32 C246.14 71.17, 245.15 73.02, 243.97 74.84 C242.78 76.65, 241.4 78.44, 239.84 80.2 C238.28 81.95, 236.53 83.67, 234.61 85.34 C232.69 87.01, 230.59 88.65, 228.32 90.22 C226.06 91.8, 223.62 93.33, 221.04 94.79 C218.45 96.26, 215.7 97.67, 212.82 99.01 C209.94 100.35, 206.9 101.63, 203.75 102.83 C200.61 104.04, 197.31 105.17, 193.93 106.23 C190.54 107.28, 187.03 108.26, 183.43 109.15 C179.84 110.04, 176.14 110.86, 172.37 111.59 C168.61 112.31, 164.75 112.95, 160.86 113.5 C156.96 114.05, 152.98 114.52, 148.99 114.89 C144.99 115.26, 140.94 115.53, 136.89 115.72 C132.83 115.91, 128.74 116, 124.67 116 C120.59 116, 116.5 115.91, 112.45 115.72 C108.39 115.53, 104.34 115.26, 100.35 114.89 C96.35 114.52, 92.38 114.05, 88.48 113.5 C84.58 112.95, 80.72 112.31, 76.96 111.59 C73.2 110.86, 69.49 110.04, 65.9 109.15 C62.31 108.26, 58.79 107.28, 55.41 106.23 C52.02 105.17, 48.73 104.04, 45.58 102.83 C42.43 101.63, 39.39 100.35, 36.51 99.01 C33.63 97.67, 30.88 96.26, 28.3 94.79 C25.71 93.33, 23.27 91.8, 21.01 90.22 C18.75 88.65, 16.64 87.01, 14.72 85.34 C12.8 83.67, 11.05 81.95, 9.49 80.2 C7.93 78.44, 6.55 76.65, 5.37 74.84 C4.19 73.02, 3.19 71.17, 2.4 69.32 C1.6 67.46, 1 65.57, 0.6 63.68 C0.2 61.8, 0 59.89, 0 58 C0 56.11, 0.2 54.2, 0.6 52.32 C1 50.43, 1.6 48.54, 2.4 46.68 C3.19 44.83, 4.19 42.98, 5.37 41.16 C6.55 39.35, 7.93 37.56, 9.49 35.8 C11.05 34.05, 12.8 32.33, 14.72 30.66 C16.64 28.99, 18.75 27.35, 21.01 25.78 C23.27 24.2, 25.71 22.67, 28.3 21.21 C30.88 19.74, 33.63 18.33, 36.51 16.99 C39.39 15.65, 42.43 14.37, 45.58 13.17 C48.73 11.96, 52.02 10.83, 55.41 9.77 C58.79 8.72, 62.31 7.74, 65.9 6.85 C69.49 5.96, 73.2 5.14, 76.96 4.41 C80.72 3.69, 84.58 3.05, 88.48 2.5 C92.38 1.95, 96.35 1.48, 100.35 1.11 C104.34 0.74, 108.39 0.47, 112.45 0.28 C116.5 0.09, 120.59 0, 124.67 0 C128.74 0, 132.83 0.09, 136.89 0.28 C140.94 0.47, 144.99 0.74, 148.99 1.11 C152.98 1.48, 156.96 1.95, 160.86 2.5 C164.75 3.05, 168.61 3.69, 172.37 4.41 C176.14 5.14, 179.84 5.96, 183.43 6.85 C187.03 7.74, 190.54 8.72, 193.93 9.77 C197.31 10.83, 200.61 11.96, 203.75 13.17 C206.9 14.37, 209.94 15.65, 212.82 16.99 C215.7 18.33, 218.45 19.74, 221.04 21.21 C223.62 22.67, 226.06 24.2, 228.32 25.78 C230.59 27.35, 232.69 28.99, 234.61 30.66 C236.53 32.33, 238.28 34.05, 239.84 35.8 C241.4 37.56, 242.78 39.35, 243.97 41.16 C245.15 42.98, 246.14 44.83, 246.94 46.68 C247.73 48.54, 248.33 50.43, 248.73 52.32 C249.13 54.2, 249.23 57.05, 249.33 58 C249.43 58.95, 249.43 57.05, 249.33 58" stroke="none" stroke-width="0" fill="#ffec99"></path><path d="M249.33 58 C249.33 59.89, 249.13 61.8, 248.73 63.68 C248.33 65.57, 247.73 67.46, 246.94 69.32 C246.14 71.17, 245.15 73.02, 243.97 74.84 C242.78 76.65, 241.4 78.44, 239.84 80.2 C238.28 81.95, 236.53 83.67, 234.61 85.34 C232.69 87.01, 230.59 88.65, 228.32 90.22 C226.06 91.8, 223.62 93.33, 221.04 94.79 C218.45 96.26, 215.7 97.67, 212.82 99.01 C209.94 100.35, 206.9 101.63, 203.75 102.83 C200.61 104.04, 197.31 105.17, 193.93 106.23 C190.54 107.28, 187.03 108.26, 183.43 109.15 C179.84 110.04, 176.14 110.86, 172.37 111.59 C168.61 112.31, 164.75 112.95, 160.86 113.5 C156.96 114.05, 152.98 114.52, 148.99 114.89 C144.99 115.26, 140.94 115.53, 136.89 115.72 C132.83 115.91, 128.74 116, 124.67 116 C120.59 116, 116.5 115.91, 112.45 115.72 C108.39 115.53, 104.34 115.26, 100.35 114.89 C96.35 114.52, 92.38 114.05, 88.48 113.5 C84.58 112.95, 80.72 112.31, 76.96 111.59 C73.2 110.86, 69.49 110.04, 65.9 109.15 C62.31 108.26, 58.79 107.28, 55.41 106.23 C52.02 105.17, 48.73 104.04, 45.58 102.83 C42.43 101.63, 39.39 100.35, 36.51 99.01 C33.63 97.67, 30.88 96.26, 28.3 94.79 C25.71 93.33, 23.27 91.8, 21.01 90.22 C18.75 88.65, 16.64 87.01, 14.72 85.34 C12.8 83.67, 11.05 81.95, 9.49 80.2 C7.93 78.44, 6.55 76.65, 5.37 74.84 C4.19 73.02, 3.19 71.17, 2.4 69.32 C1.6 67.46, 1 65.57, 0.6 63.68 C0.2 61.8, 0 59.89, 0 58 C0 56.11, 0.2 54.2, 0.6 52.32 C1 50.43, 1.6 48.54, 2.4 46.68 C3.19 44.83, 4.19 42.98, 5.37 41.16 C6.55 39.35, 7.93 37.56, 9.49 35.8 C11.05 34.05, 12.8 32.33, 14.72 30.66 C16.64 28.99, 18.75 27.35, 21.01 25.78 C23.27 24.2, 25.71 22.67, 28.3 21.21 C30.88 19.74, 33.63 18.33, 36.51 16.99 C39.39 15.65, 42.43 14.37, 45.58 13.17 C48.73 11.96, 52.02 10.83, 55.41 9.77 C58.79 8.72, 62.31 7.74, 65.9 6.85 C69.49 5.96, 73.2 5.14, 76.96 4.41 C80.72 3.69, 84.58 3.05, 88.48 2.5 C92.38 1.95, 96.35 1.48, 100.35 1.11 C104.34 0.74, 108.39 0.47, 112.45 0.28 C116.5 0.09, 120.59 0, 124.67 0 C128.74 0, 132.83 0.09, 136.89 0.28 C140.94 0.47, 144.99 0.74, 148.99 1.11 C152.98 1.48, 156.96 1.95, 160.86 2.5 C164.75 3.05, 168.61 3.69, 172.37 4.41 C176.14 5.14, 179.84 5.96, 183.43 6.85 C187.03 7.74, 190.54 8.72, 193.93 9.77 C197.31 10.83, 200.61 11.96, 203.75 13.17 C206.9 14.37, 209.94 15.65, 212.82 16.99 C215.7 18.33, 218.45 19.74, 221.04 21.21 C223.62 22.67, 226.06 24.2, 228.32 25.78 C230.59 27.35, 232.69 28.99, 234.61 30.66 C236.53 32.33, 238.28 34.05, 239.84 35.8 C241.4 37.56, 242.78 39.35, 243.97 41.16 C245.15 42.98, 246.14 44.83, 246.94 46.68 C247.73 48.54, 248.33 50.43, 248.73 52.32 C249.13 54.2, 249.23 57.05, 249.33 58 C249.43 58.95, 249.43 57.05, 249.33 58" stroke="#1e1e1e" stroke-width="1" fill="none"></path></g><g transform="translate(456.6390182992799 415.654493702899) rotate(0 46.875 12)"><text x="46.875" y="0" font-family="Cascadia, Segoe UI Emoji" font-size="20px" fill="#1e1e1e" text-anchor="middle" style="white-space: pre;" direction="ltr" dominant-baseline="text-before-edge">Argument</text></g></svg>