<?xml version="1.0" encoding="UTF-8" standalone="no"?>
<!DOCTYPE svg PUBLIC "-//W3C//DTD SVG 1.1//EN"
 "http://www.w3.org/Graphics/SVG/1.1/DTD/svg11.dtd">
<!-- Generated by graphviz version 10.0.1 (0)
 -->
<!-- Title: CFG for &#39;_Z1fv&#39; function Pages: 1 -->
<svg width="486pt" height="407pt"
 viewBox="0.00 0.00 486.25 407.00" xmlns="http://www.w3.org/2000/svg" xmlns:xlink="http://www.w3.org/1999/xlink">
<g id="graph0" class="graph" transform="scale(1 1) rotate(0) translate(4 403)">
<title>CFG for &#39;_Z1fv&#39; function</title>
<polygon fill="white" stroke="none" points="-4,4 -4,-403 482.25,-403 482.25,4 -4,4"/>
<text text-anchor="middle" x="239.12" y="-7.2" font-family="Times,serif" font-size="14.00">CFG for If Stmt with &#39;&amp;&amp;&#39; cond</text>
<!-- Node0x60e6f543e830 -->
<g id="node1" class="node">
<title>Node0x60e6f543e830</title>
<polygon fill="#b70d28" fill-opacity="0.439216" stroke="#b70d28" points="118.75,-316.5 118.75,-398.5 478.25,-398.5 478.25,-316.5 118.75,-316.5"/>
<text text-anchor="start" x="126.75" y="-381.2" font-family="Times,serif" font-size="14.00">%if_entry_and_left_expr:</text>
<text text-anchor="start" x="126.75" y="-364.7" font-family="Times,serif" font-size="14.00"> %left_expr = do left expr of &#39;&amp;&amp;&#39;</text>
<text text-anchor="start" x="126.75" y="-348.2" font-family="Times,serif" font-size="14.00"> br %left_expr, label %and_right_expr, label %if_false_branch</text>
<polyline fill="none" stroke="#b70d28" points="118.75,-341 478.25,-341"/>
<text text-anchor="middle" x="208.38" y="-323.7" font-family="Times,serif" font-size="14.00">T</text>
<polyline fill="none" stroke="#b70d28" points="298,-316.5 298,-341"/>
<text text-anchor="middle" x="387.75" y="-323.7" font-family="Times,serif" font-size="14.00">F</text>
</g>
<!-- Node0x60e6f543e740 -->
<g id="node2" class="node">
<title>Node0x60e6f543e740</title>
<polygon fill="#f08b6e" fill-opacity="0.439216" stroke="#3d50c3" points="0,-197.5 0,-279.5 379,-279.5 379,-197.5 0,-197.5"/>
<text text-anchor="start" x="8" y="-262.2" font-family="Times,serif" font-size="14.00">%and_right_expr: </text>
<text text-anchor="start" x="8" y="-245.7" font-family="Times,serif" font-size="14.00"> %right_expr = do right expr of &#39;&amp;&amp;&#39;</text>
<text text-anchor="start" x="8" y="-229.2" font-family="Times,serif" font-size="14.00"> br i1 %right_expr, label %if_true_branch, label %if_false_branch</text>
<polyline fill="none" stroke="#3d50c3" points="0,-222 379,-222"/>
<text text-anchor="middle" x="94.62" y="-204.7" font-family="Times,serif" font-size="14.00">T</text>
<polyline fill="none" stroke="#3d50c3" points="189.25,-197.5 189.25,-222"/>
<text text-anchor="middle" x="284" y="-204.7" font-family="Times,serif" font-size="14.00">F</text>
</g>
<!-- Node0x60e6f543e830&#45;&gt;Node0x60e6f543e740 -->
<g id="edge1" class="edge">
<title>Node0x60e6f543e830:s0&#45;&gt;Node0x60e6f543e740</title>
<path fill="none" stroke="black" d="M208.5,-316C208.5,-307.81 207.46,-299.28 205.87,-291"/>
<polygon fill="black" stroke="black" points="209.33,-290.41 203.74,-281.41 202.49,-291.93 209.33,-290.41"/>
</g>
<!-- Node0x60e6f543fbe0 -->
<g id="node3" class="node">
<title>Node0x60e6f543fbe0</title>
<polygon fill="#d65244" fill-opacity="0.439216" stroke="#b70d28" points="223.25,-103 223.25,-160.5 345.75,-160.5 345.75,-103 223.25,-103"/>
<text text-anchor="start" x="231.25" y="-143.2" font-family="Times,serif" font-size="14.00">%if_false_branch: </text>
<text text-anchor="start" x="231.25" y="-126.7" font-family="Times,serif" font-size="14.00"> do If false branch</text>
<text text-anchor="start" x="231.25" y="-110.2" font-family="Times,serif" font-size="14.00"> jmp label %if_exit</text>
</g>
<!-- Node0x60e6f543e830&#45;&gt;Node0x60e6f543fbe0 -->
<g id="edge2" class="edge">
<title>Node0x60e6f543e830:s1&#45;&gt;Node0x60e6f543fbe0</title>
<path fill="none" stroke="black" d="M387.5,-316C387.5,-263.11 414.26,-243.19 388.5,-197 380.85,-183.28 368.92,-172.12 355.84,-163.19"/>
<polygon fill="black" stroke="black" points="357.76,-160.26 347.43,-157.88 354.02,-166.18 357.76,-160.26"/>
</g>
<!-- Node0x60e6f543e740&#45;&gt;Node0x60e6f543fbe0 -->
<g id="edge4" class="edge">
<title>Node0x60e6f543e740:s1&#45;&gt;Node0x60e6f543fbe0</title>
<path fill="none" stroke="black" d="M284.5,-197C284.5,-188.96 284.5,-180.36 284.5,-172.15"/>
<polygon fill="black" stroke="black" points="288,-172.41 284.5,-162.41 281,-172.41 288,-172.41"/>
</g>
<!-- Node0x60e6f543ff00 -->
<g id="node4" class="node">
<title>Node0x60e6f543ff00</title>
<polygon fill="#f2cab5" fill-opacity="0.439216" stroke="#3d50c3" points="58.25,-103 58.25,-160.5 180.75,-160.5 180.75,-103 58.25,-103"/>
<text text-anchor="start" x="66.25" y="-143.2" font-family="Times,serif" font-size="14.00">%if_true_branch: </text>
<text text-anchor="start" x="66.25" y="-126.7" font-family="Times,serif" font-size="14.00"> do If true branch</text>
<text text-anchor="start" x="66.25" y="-110.2" font-family="Times,serif" font-size="14.00"> jmp label %if_exit</text>
</g>
<!-- Node0x60e6f543e740&#45;&gt;Node0x60e6f543ff00 -->
<g id="edge3" class="edge">
<title>Node0x60e6f543e740:s0&#45;&gt;Node0x60e6f543ff00</title>
<path fill="none" stroke="black" d="M94.5,-197C94.5,-188.52 96.41,-179.82 99.18,-171.67"/>
<polygon fill="black" stroke="black" points="102.44,-172.95 102.83,-162.37 95.92,-170.39 102.44,-172.95"/>
</g>
<!-- Node0x60e6f5440200 -->
<g id="node5" class="node">
<title>Node0x60e6f5440200</title>
<polygon fill="#b70d28" fill-opacity="0.439216" stroke="#b70d28" points="147,-25 147,-66 256,-66 256,-25 147,-25"/>
<text text-anchor="start" x="155" y="-48.7" font-family="Times,serif" font-size="14.00">%if_exit: </text>
<text text-anchor="start" x="155" y="-32.2" font-family="Times,serif" font-size="14.00"> exit If statement</text>
</g>
<!-- Node0x60e6f543fbe0&#45;&gt;Node0x60e6f5440200 -->
<g id="edge6" class="edge">
<title>Node0x60e6f543fbe0&#45;&gt;Node0x60e6f5440200</title>
<path fill="none" stroke="black" d="M256.86,-102.7C247.91,-93.61 237.98,-83.53 229.03,-74.45"/>
<polygon fill="black" stroke="black" points="231.72,-72.19 222.21,-67.52 226.74,-77.1 231.72,-72.19"/>
</g>
<!-- Node0x60e6f543ff00&#45;&gt;Node0x60e6f5440200 -->
<g id="edge5" class="edge">
<title>Node0x60e6f543ff00&#45;&gt;Node0x60e6f5440200</title>
<path fill="none" stroke="black" d="M146.8,-102.7C155.65,-93.61 165.46,-83.53 174.3,-74.45"/>
<polygon fill="black" stroke="black" points="176.56,-77.14 181.03,-67.53 171.55,-72.26 176.56,-77.14"/>
</g>
</g>
</svg>
