<?xml version="1.0" encoding="UTF-8" standalone="no"?>
<!DOCTYPE svg PUBLIC "-//W3C//DTD SVG 1.1//EN"
 "http://www.w3.org/Graphics/SVG/1.1/DTD/svg11.dtd">
<!-- Generated by graphviz version 2.43.0 (0)
 -->
<!-- Title: CFG for &#39;while_loop&#39; function Pages: 1 -->
<svg width="364pt" height="230pt"
 viewBox="0.00 0.00 363.50 230.00" xmlns="http://www.w3.org/2000/svg" xmlns:xlink="http://www.w3.org/1999/xlink">
<g id="graph0" class="graph" transform="scale(1 1) rotate(0) translate(4 226)">
<title>CFG for &#39;while_loop&#39; function</title>
<polygon fill="white" stroke="transparent" points="-4,4 -4,-226 359.5,-226 359.5,4 -4,4"/>
<text text-anchor="middle" x="177.75" y="-7.8" font-family="Times,serif" font-size="14.00">Possible structure of a while loop</text>
<!-- Node0x55702bfb9350 -->
<g id="node1" class="node">
<title>Node0x55702bfb9350</title>
<polygon fill="#b70d28" fill-opacity="0.439216" stroke="#b70d28" points="49.5,-129.5 49.5,-221.5 264.5,-221.5 264.5,-129.5 49.5,-129.5"/>
<text text-anchor="start" x="57.5" y="-206.3" font-family="Times,serif" font-size="14.00">%loop_entry:</text>
<text text-anchor="start" x="57.5" y="-175.3" font-family="Times,serif" font-size="14.00"> compute loop condition</text>
<text text-anchor="start" x="57.5" y="-160.3" font-family="Times,serif" font-size="14.00"> decide the flow of control...</text>
<polyline fill="none" stroke="#b70d28" points="49.5,-152.5 264.5,-152.5 "/>
<text text-anchor="middle" x="103" y="-137.3" font-family="Times,serif" font-size="14.00">T</text>
<polyline fill="none" stroke="#b70d28" points="156.5,-129.5 156.5,-152.5 "/>
<text text-anchor="middle" x="210.5" y="-137.3" font-family="Times,serif" font-size="14.00">F</text>
</g>
<!-- Node0x55702bfb9530 -->
<g id="node2" class="node">
<title>Node0x55702bfb9530</title>
<polygon fill="#bb1b2c" fill-opacity="0.439216" stroke="#b70d28" points="0,-23.5 0,-92.5 206,-92.5 206,-23.5 0,-23.5"/>
<text text-anchor="start" x="8" y="-77.3" font-family="Times,serif" font-size="14.00">%loop_body:</text>
<text text-anchor="start" x="8" y="-46.3" font-family="Times,serif" font-size="14.00"> do something...</text>
<text text-anchor="start" x="8" y="-31.3" font-family="Times,serif" font-size="14.00"> jump back to %loop_entry</text>
</g>
<!-- Node0x55702bfb9350&#45;&gt;Node0x55702bfb9530 -->
<g id="edge1" class="edge">
<title>Node0x55702bfb9350:s0&#45;&gt;Node0x55702bfb9530</title>
<path fill="none" stroke="black" d="M103,-129C100.55,-120.53 98.77,-111.48 97.65,-102.79"/>
<polygon fill="black" stroke="black" points="101.13,-102.42 96.65,-92.82 94.17,-103.12 101.13,-102.42"/>
</g>
<!-- Node0x55702bfb9580 -->
<g id="node3" class="node">
<title>Node0x55702bfb9580</title>
<polygon fill="#b9d0f9" fill-opacity="0.439216" stroke="#3d50c3" points="224.5,-31 224.5,-85 355.5,-85 355.5,-31 224.5,-31"/>
<text text-anchor="start" x="232.5" y="-69.8" font-family="Times,serif" font-size="14.00">%loop_exit:</text>
<text text-anchor="start" x="232.5" y="-38.8" font-family="Times,serif" font-size="14.00"> do other stuff...</text>
</g>
<!-- Node0x55702bfb9350&#45;&gt;Node0x55702bfb9580 -->
<g id="edge2" class="edge">
<title>Node0x55702bfb9350:s1&#45;&gt;Node0x55702bfb9580</title>
<path fill="none" stroke="black" d="M266,-140.5C286.25,-140.5 291.68,-117.07 292.37,-95.33"/>
<polygon fill="black" stroke="black" points="295.87,-95.24 292.38,-85.24 288.87,-95.23 295.87,-95.24"/>
</g>
<!-- Node0x55702bfb9530&#45;&gt;Node0x55702bfb9350 -->
<g id="edge3" class="edge">
<title>Node0x55702bfb9530&#45;&gt;Node0x55702bfb9350</title>
<path fill="none" stroke="black" d="M109.37,-92.6C108.78,-100.9 107.52,-109.95 105.58,-118.79"/>
<polygon fill="black" stroke="black" points="102.15,-118.08 103.11,-128.64 108.94,-119.79 102.15,-118.08"/>
</g>
</g>
</svg>
