<svg version="1.1" xmlns="http://www.w3.org/2000/svg" viewBox="0 0 552.6666259765625 623.6666501363119" width="552.6666259765625" height="623.6666501363119">
  <!-- svg-source:excalidraw -->
  
  <defs>
    <style class="style-fonts">
      @font-face {
        font-family: "Virgil";
        src: url("https://excalidraw.com/Virgil.woff2");
      }
      @font-face {
        font-family: "Cascadia";
        src: url("https://excalidraw.com/Cascadia.woff2");
      }
      @font-face {
        font-family: "Assistant";
        src: url("https://excalidraw.com/Assistant-Regular.woff2");
      }
    </style>
    
  </defs>
  <rect x="0" y="0" width="552.6666259765625" height="623.6666501363119" fill="#ffffff"></rect><g stroke-linecap="round" transform="translate(10 173.3333435058594) rotate(0 64.33332824707031 40.66667175292969)"><path d="M20.33 0 C39.42 0, 58.5 0, 108.33 0 C121.89 0, 128.67 6.78, 128.67 20.33 C128.67 30.61, 128.67 40.89, 128.67 61 C128.67 74.56, 121.89 81.33, 108.33 81.33 C78.15 81.33, 47.96 81.33, 20.33 81.33 C6.78 81.33, 0 74.56, 0 61 C0 45.6, 0 30.21, 0 20.33 C0 6.78, 6.78 0, 20.33 0" stroke="none" stroke-width="0" fill="#a5d8ff"></path><path d="M20.33 0 C53.57 0, 86.8 0, 108.33 0 M20.33 0 C54.47 0, 88.61 0, 108.33 0 M108.33 0 C121.89 0, 128.67 6.78, 128.67 20.33 M108.33 0 C121.89 0, 128.67 6.78, 128.67 20.33 M128.67 20.33 C128.67 33.4, 128.67 46.47, 128.67 61 M128.67 20.33 C128.67 29.6, 128.67 38.87, 128.67 61 M128.67 61 C128.67 74.56, 121.89 81.33, 108.33 81.33 M128.67 61 C128.67 74.56, 121.89 81.33, 108.33 81.33 M108.33 81.33 C77.14 81.33, 45.94 81.33, 20.33 81.33 M108.33 81.33 C79.8 81.33, 51.26 81.33, 20.33 81.33 M20.33 81.33 C6.78 81.33, 0 74.56, 0 61 M20.33 81.33 C6.78 81.33, 0 74.56, 0 61 M0 61 C0 48.39, 0 35.78, 0 20.33 M0 61 C0 51.26, 0 41.52, 0 20.33 M0 20.33 C0 6.78, 6.78 0, 20.33 0 M0 20.33 C0 6.78, 6.78 0, 20.33 0" stroke="#1e1e1e" stroke-width="2" fill="none"></path></g><g transform="translate(69.33328247070312 193.0666259765625) rotate(0 10.546875 21.599999999999994)"><text x="0" y="0" font-family="Cascadia, Segoe UI Emoji" font-size="36px" fill="#1e1e1e" text-anchor="start" style="white-space: pre;" direction="ltr" dominant-baseline="text-before-edge">y</text></g><g stroke-linecap="round" transform="translate(157.33338928222656 315.33326721191406) rotate(0 64.33332824707031 40.66667175292969)"><path d="M20.33 0 C39.24 0, 58.14 0, 108.33 0 C121.89 0, 128.67 6.78, 128.67 20.33 C128.67 33.82, 128.67 47.31, 128.67 61 C128.67 74.56, 121.89 81.33, 108.33 81.33 C75.63 81.33, 42.93 81.33, 20.33 81.33 C6.78 81.33, 0 74.56, 0 61 C0 48.65, 0 36.3, 0 20.33 C0 6.78, 6.78 0, 20.33 0" stroke="none" stroke-width="0" fill="#a5d8ff"></path><path d="M20.33 0 C39.21 0, 58.08 0, 108.33 0 M20.33 0 C47.73 0, 75.13 0, 108.33 0 M108.33 0 C121.89 0, 128.67 6.78, 128.67 20.33 M108.33 0 C121.89 0, 128.67 6.78, 128.67 20.33 M128.67 20.33 C128.67 34.5, 128.67 48.67, 128.67 61 M128.67 20.33 C128.67 29.15, 128.67 37.97, 128.67 61 M128.67 61 C128.67 74.56, 121.89 81.33, 108.33 81.33 M128.67 61 C128.67 74.56, 121.89 81.33, 108.33 81.33 M108.33 81.33 C82.25 81.33, 56.17 81.33, 20.33 81.33 M108.33 81.33 C75.21 81.33, 42.08 81.33, 20.33 81.33 M20.33 81.33 C6.78 81.33, 0 74.56, 0 61 M20.33 81.33 C6.78 81.33, 0 74.56, 0 61 M0 61 C0 50.45, 0 39.9, 0 20.33 M0 61 C0 49.76, 0 38.52, 0 20.33 M0 20.33 C0 6.78, 6.78 0, 20.33 0 M0 20.33 C0 6.78, 6.78 0, 20.33 0" stroke="#1e1e1e" stroke-width="2" fill="none"></path></g><g transform="translate(213.3332977294922 336.39992370605455) rotate(0 10.546875 21.599999999999994)"><text x="0" y="0" font-family="Cascadia, Segoe UI Emoji" font-size="36px" fill="#1e1e1e" text-anchor="start" style="white-space: pre;" direction="ltr" dominant-baseline="text-before-edge">x</text></g><g stroke-linecap="round" transform="translate(335.00001525878906 433.33326721191395) rotate(0 64.33332824707031 40.66667175292969)"><path d="M20.33 0 C50.98 0, 81.62 0, 108.33 0 C121.89 0, 128.67 6.78, 128.67 20.33 C128.67 34.22, 128.67 48.11, 128.67 61 C128.67 74.56, 121.89 81.33, 108.33 81.33 C85.81 81.33, 63.28 81.33, 20.33 81.33 C6.78 81.33, 0 74.56, 0 61 C0 49.93, 0 38.87, 0 20.33 C0 6.78, 6.78 0, 20.33 0" stroke="none" stroke-width="0" fill="#b2f2bb"></path><path d="M20.33 0 C47.05 0, 73.76 0, 108.33 0 M20.33 0 C43.55 0, 66.76 0, 108.33 0 M108.33 0 C121.89 0, 128.67 6.78, 128.67 20.33 M108.33 0 C121.89 0, 128.67 6.78, 128.67 20.33 M128.67 20.33 C128.67 29.65, 128.67 38.97, 128.67 61 M128.67 20.33 C128.67 36.27, 128.67 52.21, 128.67 61 M128.67 61 C128.67 74.56, 121.89 81.33, 108.33 81.33 M128.67 61 C128.67 74.56, 121.89 81.33, 108.33 81.33 M108.33 81.33 C89.17 81.33, 70.01 81.33, 20.33 81.33 M108.33 81.33 C77.12 81.33, 45.91 81.33, 20.33 81.33 M20.33 81.33 C6.78 81.33, 0 74.56, 0 61 M20.33 81.33 C6.78 81.33, 0 74.56, 0 61 M0 61 C0 45.29, 0 29.57, 0 20.33 M0 61 C0 49.6, 0 38.21, 0 20.33 M0 20.33 C0 6.78, 6.78 0, 20.33 0 M0 20.33 C0 6.78, 6.78 0, 20.33 0" stroke="#1e1e1e" stroke-width="2" fill="none"></path></g><g transform="translate(388.9999237060547 447.0666107177734) rotate(0 10.546875 21.599999999999994)"><text x="0" y="0" font-family="Cascadia, Segoe UI Emoji" font-size="36px" fill="#1e1e1e" text-anchor="start" style="white-space: pre;" direction="ltr" dominant-baseline="text-before-edge">y</text></g><g stroke-linecap="round" transform="translate(191.33340454101562 10) rotate(0 48.666656494140625 46.66667175292969)"><path d="M97.33 46.67 C97.33 48.7, 97.19 50.74, 96.92 52.76 C96.64 54.77, 96.22 56.78, 95.68 58.74 C95.13 60.71, 94.44 62.65, 93.63 64.53 C92.82 66.4, 91.87 68.24, 90.81 70 C89.75 71.76, 88.57 73.46, 87.28 75.08 C85.99 76.69, 84.58 78.23, 83.08 79.66 C81.58 81.1, 79.97 82.45, 78.29 83.69 C76.61 84.93, 74.83 86.07, 73 87.08 C71.17 88.1, 69.25 89, 67.29 89.78 C65.33 90.56, 63.31 91.22, 61.26 91.74 C59.22 92.27, 57.12 92.67, 55.02 92.93 C52.92 93.2, 50.78 93.33, 48.67 93.33 C46.55 93.33, 44.41 93.2, 42.31 92.93 C40.22 92.67, 38.12 92.27, 36.07 91.74 C34.03 91.22, 32 90.56, 30.04 89.78 C28.09 89, 26.17 88.1, 24.33 87.08 C22.5 86.07, 20.72 84.93, 19.04 83.69 C17.36 82.45, 15.75 81.1, 14.25 79.66 C12.76 78.23, 11.35 76.69, 10.06 75.08 C8.77 73.46, 7.58 71.76, 6.52 70 C5.46 68.24, 4.51 66.4, 3.7 64.53 C2.89 62.65, 2.21 60.71, 1.66 58.74 C1.11 56.78, 0.69 54.77, 0.42 52.76 C0.14 50.74, 0 48.7, 0 46.67 C0 44.64, 0.14 42.59, 0.42 40.58 C0.69 38.56, 1.11 36.55, 1.66 34.59 C2.21 32.63, 2.89 30.68, 3.7 28.81 C4.51 26.93, 5.46 25.09, 6.52 23.33 C7.58 21.57, 8.77 19.87, 10.06 18.26 C11.35 16.65, 12.76 15.1, 14.25 13.67 C15.75 12.23, 17.36 10.88, 19.04 9.64 C20.72 8.41, 22.5 7.27, 24.33 6.25 C26.17 5.24, 28.09 4.33, 30.04 3.55 C32 2.78, 34.03 2.12, 36.07 1.59 C38.12 1.06, 40.22 0.66, 42.31 0.4 C44.41 0.13, 46.55 0, 48.67 0 C50.78 0, 52.92 0.13, 55.02 0.4 C57.12 0.66, 59.22 1.06, 61.26 1.59 C63.31 2.12, 65.33 2.78, 67.29 3.55 C69.25 4.33, 71.17 5.24, 73 6.25 C74.83 7.27, 76.61 8.41, 78.29 9.64 C79.97 10.88, 81.58 12.23, 83.08 13.67 C84.58 15.1, 85.99 16.65, 87.28 18.26 C88.57 19.87, 89.75 21.57, 90.81 23.33 C91.87 25.09, 92.82 26.93, 93.63 28.81 C94.44 30.68, 95.13 32.63, 95.68 34.59 C96.22 36.55, 96.64 38.56, 96.92 40.58 C97.19 42.59, 97.26 45.65, 97.33 46.67 C97.4 47.68, 97.4 45.65, 97.33 46.67" stroke="none" stroke-width="0" fill="#ffec99"></path><path d="M97.33 46.67 C97.33 48.7, 97.19 50.74, 96.92 52.76 C96.64 54.77, 96.22 56.78, 95.68 58.74 C95.13 60.71, 94.44 62.65, 93.63 64.53 C92.82 66.4, 91.87 68.24, 90.81 70 C89.75 71.76, 88.57 73.46, 87.28 75.08 C85.99 76.69, 84.58 78.23, 83.08 79.66 C81.58 81.1, 79.97 82.45, 78.29 83.69 C76.61 84.93, 74.83 86.07, 73 87.08 C71.17 88.1, 69.25 89, 67.29 89.78 C65.33 90.56, 63.31 91.22, 61.26 91.74 C59.22 92.27, 57.12 92.67, 55.02 92.93 C52.92 93.2, 50.78 93.33, 48.67 93.33 C46.55 93.33, 44.41 93.2, 42.31 92.93 C40.22 92.67, 38.12 92.27, 36.07 91.74 C34.03 91.22, 32 90.56, 30.04 89.78 C28.09 89, 26.17 88.1, 24.33 87.08 C22.5 86.07, 20.72 84.93, 19.04 83.69 C17.36 82.45, 15.75 81.1, 14.25 79.66 C12.76 78.23, 11.35 76.69, 10.06 75.08 C8.77 73.46, 7.58 71.76, 6.52 70 C5.46 68.24, 4.51 66.4, 3.7 64.53 C2.89 62.65, 2.21 60.71, 1.66 58.74 C1.11 56.78, 0.69 54.77, 0.42 52.76 C0.14 50.74, 0 48.7, 0 46.67 C0 44.64, 0.14 42.59, 0.42 40.58 C0.69 38.56, 1.11 36.55, 1.66 34.59 C2.21 32.63, 2.89 30.68, 3.7 28.81 C4.51 26.93, 5.46 25.09, 6.52 23.33 C7.58 21.57, 8.77 19.87, 10.06 18.26 C11.35 16.65, 12.76 15.1, 14.25 13.67 C15.75 12.23, 17.36 10.88, 19.04 9.64 C20.72 8.41, 22.5 7.27, 24.33 6.25 C26.17 5.24, 28.09 4.33, 30.04 3.55 C32 2.78, 34.03 2.12, 36.07 1.59 C38.12 1.06, 40.22 0.66, 42.31 0.4 C44.41 0.13, 46.55 0, 48.67 0 C50.78 0, 52.92 0.13, 55.02 0.4 C57.12 0.66, 59.22 1.06, 61.26 1.59 C63.31 2.12, 65.33 2.78, 67.29 3.55 C69.25 4.33, 71.17 5.24, 73 6.25 C74.83 7.27, 76.61 8.41, 78.29 9.64 C79.97 10.88, 81.58 12.23, 83.08 13.67 C84.58 15.1, 85.99 16.65, 87.28 18.26 C88.57 19.87, 89.75 21.57, 90.81 23.33 C91.87 25.09, 92.82 26.93, 93.63 28.81 C94.44 30.68, 95.13 32.63, 95.68 34.59 C96.22 36.55, 96.64 38.56, 96.92 40.58 C97.19 42.59, 97.26 45.65, 97.33 46.67 C97.4 47.68, 97.4 45.65, 97.33 46.67" stroke="#1e1e1e" stroke-width="2" fill="none"></path></g><g transform="translate(229.5406632104731 35.0683517010264) rotate(0 10.546875 21.599999999999994)"><text x="10.546875" y="0" font-family="Cascadia, Segoe UI Emoji" font-size="36px" fill="#1e1e1e" text-anchor="middle" style="white-space: pre;" direction="ltr" dominant-baseline="text-before-edge">a</text></g><g stroke-linecap="round" transform="translate(445.33331298828125 88.66662089029947) rotate(0 48.666656494140625 46.66667175292969)"><path d="M97.33 46.67 C97.33 48.7, 97.19 50.74, 96.92 52.76 C96.64 54.77, 96.22 56.78, 95.68 58.74 C95.13 60.71, 94.44 62.65, 93.63 64.53 C92.82 66.4, 91.87 68.24, 90.81 70 C89.75 71.76, 88.57 73.46, 87.28 75.08 C85.99 76.69, 84.58 78.23, 83.08 79.66 C81.58 81.1, 79.97 82.45, 78.29 83.69 C76.61 84.93, 74.83 86.07, 73 87.08 C71.17 88.1, 69.25 89, 67.29 89.78 C65.33 90.56, 63.31 91.22, 61.26 91.74 C59.22 92.27, 57.12 92.67, 55.02 92.93 C52.92 93.2, 50.78 93.33, 48.67 93.33 C46.55 93.33, 44.41 93.2, 42.31 92.93 C40.22 92.67, 38.12 92.27, 36.07 91.74 C34.03 91.22, 32 90.56, 30.04 89.78 C28.09 89, 26.17 88.1, 24.33 87.08 C22.5 86.07, 20.72 84.93, 19.04 83.69 C17.36 82.45, 15.75 81.1, 14.25 79.66 C12.76 78.23, 11.35 76.69, 10.06 75.08 C8.77 73.46, 7.58 71.76, 6.52 70 C5.46 68.24, 4.51 66.4, 3.7 64.53 C2.89 62.65, 2.21 60.71, 1.66 58.74 C1.11 56.78, 0.69 54.77, 0.42 52.76 C0.14 50.74, 0 48.7, 0 46.67 C0 44.64, 0.14 42.59, 0.42 40.58 C0.69 38.56, 1.11 36.55, 1.66 34.59 C2.21 32.63, 2.89 30.68, 3.7 28.81 C4.51 26.93, 5.46 25.09, 6.52 23.33 C7.58 21.57, 8.77 19.87, 10.06 18.26 C11.35 16.65, 12.76 15.1, 14.25 13.67 C15.75 12.23, 17.36 10.88, 19.04 9.64 C20.72 8.41, 22.5 7.27, 24.33 6.25 C26.17 5.24, 28.09 4.33, 30.04 3.55 C32 2.78, 34.03 2.12, 36.07 1.59 C38.12 1.06, 40.22 0.66, 42.31 0.4 C44.41 0.13, 46.55 0, 48.67 0 C50.78 0, 52.92 0.13, 55.02 0.4 C57.12 0.66, 59.22 1.06, 61.26 1.59 C63.31 2.12, 65.33 2.78, 67.29 3.55 C69.25 4.33, 71.17 5.24, 73 6.25 C74.83 7.27, 76.61 8.41, 78.29 9.64 C79.97 10.88, 81.58 12.23, 83.08 13.67 C84.58 15.1, 85.99 16.65, 87.28 18.26 C88.57 19.87, 89.75 21.57, 90.81 23.33 C91.87 25.09, 92.82 26.93, 93.63 28.81 C94.44 30.68, 95.13 32.63, 95.68 34.59 C96.22 36.55, 96.64 38.56, 96.92 40.58 C97.19 42.59, 97.26 45.65, 97.33 46.67 C97.4 47.68, 97.4 45.65, 97.33 46.67" stroke="none" stroke-width="0" fill="#ffec99"></path><path d="M97.33 46.67 C97.33 48.7, 97.19 50.74, 96.92 52.76 C96.64 54.77, 96.22 56.78, 95.68 58.74 C95.13 60.71, 94.44 62.65, 93.63 64.53 C92.82 66.4, 91.87 68.24, 90.81 70 C89.75 71.76, 88.57 73.46, 87.28 75.08 C85.99 76.69, 84.58 78.23, 83.08 79.66 C81.58 81.1, 79.97 82.45, 78.29 83.69 C76.61 84.93, 74.83 86.07, 73 87.08 C71.17 88.1, 69.25 89, 67.29 89.78 C65.33 90.56, 63.31 91.22, 61.26 91.74 C59.22 92.27, 57.12 92.67, 55.02 92.93 C52.92 93.2, 50.78 93.33, 48.67 93.33 C46.55 93.33, 44.41 93.2, 42.31 92.93 C40.22 92.67, 38.12 92.27, 36.07 91.74 C34.03 91.22, 32 90.56, 30.04 89.78 C28.09 89, 26.17 88.1, 24.33 87.08 C22.5 86.07, 20.72 84.93, 19.04 83.69 C17.36 82.45, 15.75 81.1, 14.25 79.66 C12.76 78.23, 11.35 76.69, 10.06 75.08 C8.77 73.46, 7.58 71.76, 6.52 70 C5.46 68.24, 4.51 66.4, 3.7 64.53 C2.89 62.65, 2.21 60.71, 1.66 58.74 C1.11 56.78, 0.69 54.77, 0.42 52.76 C0.14 50.74, 0 48.7, 0 46.67 C0 44.64, 0.14 42.59, 0.42 40.58 C0.69 38.56, 1.11 36.55, 1.66 34.59 C2.21 32.63, 2.89 30.68, 3.7 28.81 C4.51 26.93, 5.46 25.09, 6.52 23.33 C7.58 21.57, 8.77 19.87, 10.06 18.26 C11.35 16.65, 12.76 15.1, 14.25 13.67 C15.75 12.23, 17.36 10.88, 19.04 9.64 C20.72 8.41, 22.5 7.27, 24.33 6.25 C26.17 5.24, 28.09 4.33, 30.04 3.55 C32 2.78, 34.03 2.12, 36.07 1.59 C38.12 1.06, 40.22 0.66, 42.31 0.4 C44.41 0.13, 46.55 0, 48.67 0 C50.78 0, 52.92 0.13, 55.02 0.4 C57.12 0.66, 59.22 1.06, 61.26 1.59 C63.31 2.12, 65.33 2.78, 67.29 3.55 C69.25 4.33, 71.17 5.24, 73 6.25 C74.83 7.27, 76.61 8.41, 78.29 9.64 C79.97 10.88, 81.58 12.23, 83.08 13.67 C84.58 15.1, 85.99 16.65, 87.28 18.26 C88.57 19.87, 89.75 21.57, 90.81 23.33 C91.87 25.09, 92.82 26.93, 93.63 28.81 C94.44 30.68, 95.13 32.63, 95.68 34.59 C96.22 36.55, 96.64 38.56, 96.92 40.58 C97.19 42.59, 97.26 45.65, 97.33 46.67 C97.4 47.68, 97.4 45.65, 97.33 46.67" stroke="#1e1e1e" stroke-width="2" fill="none"></path></g><g transform="translate(483.5405716577387 113.73497259132587) rotate(0 10.546875 21.6)"><text x="10.546875" y="0" font-family="Cascadia, Segoe UI Emoji" font-size="36px" fill="#1e1e1e" text-anchor="middle" style="white-space: pre;" direction="ltr" dominant-baseline="text-before-edge">b</text></g><g stroke-linecap="round"><g transform="translate(215.33334350585938 92.83333333333331) rotate(0 -48.333343505859375 40)"><path d="M0 0 C-16.11 13.33, -80.56 66.67, -96.67 80 M0 0 C-16.11 13.33, -80.56 66.67, -96.67 80" stroke="#1e1e1e" stroke-width="2" fill="none"></path></g><g transform="translate(215.33334350585938 92.83333333333331) rotate(0 -48.333343505859375 40)"><path d="M-84.02 58.43 C-87.11 63.71, -90.21 68.99, -96.67 80 M-84.02 58.43 C-88.56 66.18, -93.11 73.93, -96.67 80" stroke="#1e1e1e" stroke-width="2" fill="none"></path></g><g transform="translate(215.33334350585938 92.83333333333331) rotate(0 -48.333343505859375 40)"><path d="M-73.12 71.61 C-78.88 73.66, -84.64 75.72, -96.67 80 M-73.12 71.61 C-81.58 74.62, -90.04 77.64, -96.67 80" stroke="#1e1e1e" stroke-width="2" fill="none"></path></g></g><mask></mask><g transform="translate(10.666656494140625 28.83330281575519) rotate(0 10.546875 21.599999999999998)"><text x="0" y="0" font-family="Cascadia, Segoe UI Emoji" font-size="36px" fill="#1e1e1e" text-anchor="start" style="white-space: pre;" direction="ltr" dominant-baseline="text-before-edge">1</text></g><g stroke-linecap="round"><g transform="translate(17.333343505859375 66.83333333333331) rotate(0 22 52.33332824707031)"><path d="M0 0 C7.33 17.44, 36.67 87.22, 44 104.67 M0 0 C7.33 17.44, 36.67 87.22, 44 104.67" stroke="#1e1e1e" stroke-width="2" fill="none"></path></g><g transform="translate(17.333343505859375 66.83333333333331) rotate(0 22 52.33332824707031)"><path d="M27.01 86.32 C32.97 92.76, 38.93 99.19, 44 104.67 M27.01 86.32 C31.24 90.89, 35.46 95.45, 44 104.67" stroke="#1e1e1e" stroke-width="2" fill="none"></path></g><g transform="translate(17.333343505859375 66.83333333333331) rotate(0 22 52.33332824707031)"><path d="M42.78 79.7 C43.21 88.46, 43.64 97.22, 44 104.67 M42.78 79.7 C43.08 85.91, 43.39 92.12, 44 104.67" stroke="#1e1e1e" stroke-width="2" fill="none"></path></g></g><mask></mask><g transform="translate(64.66671752929688 108.83330281575519) rotate(0 31.640625 21.599999999999994)"><text x="0" y="0" font-family="Cascadia, Segoe UI Emoji" font-size="36px" fill="#1e1e1e" text-anchor="start" style="white-space: pre;" direction="ltr" dominant-baseline="text-before-edge">add</text></g><g stroke-linecap="round"><g transform="translate(116.66671752929688 255.66666539510095) rotate(0 25.666656494140625 30.999999999999986)"><path d="M0 0 C8.56 10.33, 42.78 51.67, 51.33 62 M0 0 C8.56 10.33, 42.78 51.67, 51.33 62" stroke="#1e1e1e" stroke-width="2" fill="none"></path></g><g transform="translate(116.66671752929688 255.66666539510095) rotate(0 25.666656494140625 30.999999999999986)"><path d="M29.77 49.36 C36.47 53.29, 43.18 57.22, 51.33 62 M29.77 49.36 C35.2 52.54, 40.64 55.73, 51.33 62" stroke="#1e1e1e" stroke-width="2" fill="none"></path></g><g transform="translate(116.66671752929688 255.66666539510095) rotate(0 25.666656494140625 30.999999999999986)"><path d="M42.94 38.45 C45.55 45.78, 48.16 53.1, 51.33 62 M42.94 38.45 C45.05 44.39, 47.17 50.32, 51.33 62" stroke="#1e1e1e" stroke-width="2" fill="none"></path></g></g><mask></mask><g stroke-linecap="round"><g transform="translate(460.05694360055145 172.38088591835685) rotate(0 -92.02845654148666 73.64288973837203)"><path d="M0 0 C-30.68 24.55, -153.38 122.74, -184.06 147.29 M0 0 C-30.68 24.55, -153.38 122.74, -184.06 147.29" stroke="#1e1e1e" stroke-width="2" fill="none"></path></g><g transform="translate(460.05694360055145 172.38088591835685) rotate(0 -92.02845654148666 73.64288973837203)"><path d="M-171.06 125.93 C-175.19 132.73, -179.33 139.52, -184.06 147.29 M-171.06 125.93 C-176.18 134.35, -181.3 142.76, -184.06 147.29" stroke="#1e1e1e" stroke-width="2" fill="none"></path></g><g transform="translate(460.05694360055145 172.38088591835685) rotate(0 -92.02845654148666 73.64288973837203)"><path d="M-160.37 139.28 C-167.91 141.83, -175.45 144.38, -184.06 147.29 M-160.37 139.28 C-169.71 142.44, -179.04 145.59, -184.06 147.29" stroke="#1e1e1e" stroke-width="2" fill="none"></path></g></g><mask></mask><g transform="translate(191.99996948242188 258.3333524068197) rotate(0 31.640625 21.599999999999994)"><text x="0" y="0" font-family="Cascadia, Segoe UI Emoji" font-size="36px" fill="#1e1e1e" text-anchor="start" style="white-space: pre;" direction="ltr" dominant-baseline="text-before-edge">sub</text></g><g stroke-linecap="round"><g transform="translate(278.6666564941406 392.9999783833822) rotate(0 35.333343505859375 22.333343505859375)"><path d="M0 0 C11.78 7.44, 58.89 37.22, 70.67 44.67 M0 0 C11.78 7.44, 58.89 37.22, 70.67 44.67" stroke="#1e1e1e" stroke-width="2" fill="none"></path></g><g transform="translate(278.6666564941406 392.9999783833822) rotate(0 35.333343505859375 22.333343505859375)"><path d="M46.24 39.34 C54.13 41.06, 62.02 42.78, 70.67 44.67 M46.24 39.34 C53.73 40.97, 61.21 42.61, 70.67 44.67" stroke="#1e1e1e" stroke-width="2" fill="none"></path></g><g transform="translate(278.6666564941406 392.9999783833822) rotate(0 35.333343505859375 22.333343505859375)"><path d="M55.38 24.89 C60.32 31.28, 65.25 37.66, 70.67 44.67 M55.38 24.89 C60.06 30.95, 64.75 37.01, 70.67 44.67" stroke="#1e1e1e" stroke-width="2" fill="none"></path></g></g><mask></mask><g stroke-linecap="round"><g transform="translate(481.3333435058594 182.9999783833822) rotate(0 -30.666656494140625 125.33334350585936)"><path d="M0 0 C-10.22 41.78, -51.11 208.89, -61.33 250.67 M0 0 C-10.22 41.78, -51.11 208.89, -61.33 250.67" stroke="#1e1e1e" stroke-width="2" fill="none"></path></g><g transform="translate(481.3333435058594 182.9999783833822) rotate(0 -30.666656494140625 125.33334350585936)"><path d="M-64.06 225.82 C-63.17 233.9, -62.28 241.98, -61.33 250.67 M-64.06 225.82 C-63.37 232.11, -62.68 238.4, -61.33 250.67" stroke="#1e1e1e" stroke-width="2" fill="none"></path></g><g transform="translate(481.3333435058594 182.9999783833822) rotate(0 -30.666656494140625 125.33334350585936)"><path d="M-47.44 229.88 C-51.96 236.64, -56.48 243.4, -61.33 250.67 M-47.44 229.88 C-50.96 235.14, -54.48 240.41, -61.33 250.67" stroke="#1e1e1e" stroke-width="2" fill="none"></path></g></g><mask></mask><g transform="translate(344.6666564941406 377.6666043599447) rotate(0 31.640625 21.599999999999994)"><text x="0" y="0" font-family="Cascadia, Segoe UI Emoji" font-size="36px" fill="#1e1e1e" text-anchor="start" style="white-space: pre;" direction="ltr" dominant-baseline="text-before-edge">add</text></g><g stroke-linecap="round" transform="translate(94.33332824707031 532.3333066304525) rotate(0 74.00001525878906 40.66667175292969)"><path d="M20.33 0 C55.22 0, 90.11 0, 127.67 0 C141.22 0, 148 6.78, 148 20.33 C148 29.14, 148 37.95, 148 61 C148 74.56, 141.22 81.33, 127.67 81.33 C97.48 81.33, 67.3 81.33, 20.33 81.33 C6.78 81.33, 0 74.56, 0 61 C0 51.74, 0 42.48, 0 20.33 C0 6.78, 6.78 0, 20.33 0" stroke="none" stroke-width="0" fill="#a5d8ff"></path><path d="M20.33 0 C47.05 0, 73.78 0, 127.67 0 M20.33 0 C48.7 0, 77.07 0, 127.67 0 M127.67 0 C141.22 0, 148 6.78, 148 20.33 M127.67 0 C141.22 0, 148 6.78, 148 20.33 M148 20.33 C148 36.34, 148 52.35, 148 61 M148 20.33 C148 28.76, 148 37.18, 148 61 M148 61 C148 74.56, 141.22 81.33, 127.67 81.33 M148 61 C148 74.56, 141.22 81.33, 127.67 81.33 M127.67 81.33 C90.01 81.33, 52.36 81.33, 20.33 81.33 M127.67 81.33 C94.66 81.33, 61.65 81.33, 20.33 81.33 M20.33 81.33 C6.78 81.33, 0 74.56, 0 61 M20.33 81.33 C6.78 81.33, 0 74.56, 0 61 M0 61 C0 51.4, 0 41.8, 0 20.33 M0 61 C0 45.69, 0 30.39, 0 20.33 M0 20.33 C0 6.78, 6.78 0, 20.33 0 M0 20.33 C0 6.78, 6.78 0, 20.33 0" stroke="#1e1e1e" stroke-width="2" fill="none"></path></g><g transform="translate(108.33323669433594 552.0665891011556) rotate(0 63.28125 21.600000000000023)"><text x="0" y="0" font-family="Cascadia, Segoe UI Emoji" font-size="36px" fill="#1e1e1e" text-anchor="start" style="white-space: pre;" direction="ltr" dominant-baseline="text-before-edge">result</text></g><g stroke-linecap="round"><g transform="translate(346.6666564941406 516.3333295186361) rotate(0 -51.666656494140625 14.666656494140625)"><path d="M0 0 C-17.22 4.89, -86.11 24.44, -103.33 29.33 M0 0 C-17.22 4.89, -86.11 24.44, -103.33 29.33" stroke="#1e1e1e" stroke-width="2" fill="none"></path></g><g transform="translate(346.6666564941406 516.3333295186361) rotate(0 -51.666656494140625 14.666656494140625)"><path d="M-83.07 14.69 C-91.17 20.54, -99.26 26.39, -103.33 29.33 M-83.07 14.69 C-88.4 18.54, -93.73 22.39, -103.33 29.33" stroke="#1e1e1e" stroke-width="2" fill="none"></path></g><g transform="translate(346.6666564941406 516.3333295186361) rotate(0 -51.666656494140625 14.666656494140625)"><path d="M-78.4 31.14 C-88.36 30.42, -98.33 29.7, -103.33 29.33 M-78.4 31.14 C-84.96 30.67, -91.51 30.19, -103.33 29.33" stroke="#1e1e1e" stroke-width="2" fill="none"></path></g></g><mask></mask><g stroke-linecap="round"><g transform="translate(166.66665649414062 399.00001653035486) rotate(0 -19.66668701171875 66)"><path d="M0 0 C-6.56 22, -32.78 110, -39.33 132 M0 0 C-6.56 22, -32.78 110, -39.33 132" stroke="#1e1e1e" stroke-width="2" fill="none"></path></g><g transform="translate(166.66665649414062 399.00001653035486) rotate(0 -19.66668701171875 66)"><path d="M-40.82 107.04 C-40.52 112.08, -40.22 117.11, -39.33 132 M-40.82 107.04 C-40.36 114.8, -39.9 122.56, -39.33 132" stroke="#1e1e1e" stroke-width="2" fill="none"></path></g><g transform="translate(166.66665649414062 399.00001653035486) rotate(0 -19.66668701171875 66)"><path d="M-24.43 111.93 C-27.44 115.98, -30.44 120.02, -39.33 132 M-24.43 111.93 C-29.06 118.17, -33.69 124.41, -39.33 132" stroke="#1e1e1e" stroke-width="2" fill="none"></path></g></g><mask></mask><g transform="translate(164.66665649414062 471.66664250691736) rotate(0 31.640625 21.599999999999994)"><text x="0" y="0" font-family="Cascadia, Segoe UI Emoji" font-size="36px" fill="#1e1e1e" text-anchor="start" style="white-space: pre;" direction="ltr" dominant-baseline="text-before-edge">add</text></g></svg>