<svg version="1.1" xmlns="http://www.w3.org/2000/svg" viewBox="0 0 746.8957824707031 585.9666844685872" width="746.8957824707031" height="585.9666844685872">
  <!-- svg-source:excalidraw -->
  
  <defs>
    <style class="style-fonts">
      @font-face {
        font-family: "Virgil";
        src: url("https://excalidraw.com/Virgil.woff2");
      }
      @font-face {
        font-family: "Cascadia";
        src: url("https://excalidraw.com/Cascadia.woff2");
      }
      @font-face {
        font-family: "Assistant";
        src: url("https://excalidraw.com/Assistant-Regular.woff2");
      }
    </style>
    
  </defs>
  <rect x="0" y="0" width="746.8957824707031" height="585.9666844685872" fill="#ffffff"></rect><g stroke-linecap="round" transform="translate(10 167.2999872843425) rotate(0 176.6666717529297 204.33334859212238)"><path d="M32 0 C115.29 -1.78, 201.36 0.88, 321.33 0 M321.33 0 C340.88 -1.35, 352.31 10.28, 353.33 32 M353.33 32 C351.1 166.12, 352.21 300.67, 353.33 376.67 M353.33 376.67 C353.43 396.39, 340.83 408.02, 321.33 408.67 M321.33 408.67 C250.33 408.19, 181.24 405.52, 32 408.67 M32 408.67 C8.78 409.97, 0.81 397.92, 0 376.67 M0 376.67 C2.24 242.6, 0.15 107.36, 0 32 M0 32 C1.96 11.49, 10.66 -1.64, 32 0" stroke="#1e1e1e" stroke-width="2.5" fill="none" stroke-dasharray="1.5 8"></path></g><g stroke-linecap="round" transform="translate(12.66668701171875 64.63332570393885) rotate(0 171.33329772949213 45.33332824707033)"><path d="M22.67 0 C110.19 1.17, 191.87 0.4, 320 0 C336.54 -3.12, 344.69 5.04, 342.67 22.67 C342.41 37.13, 340.62 48.76, 342.67 68 C346.12 82.2, 336.65 89.45, 320 90.67 C219.88 92.39, 116.89 92.39, 22.67 90.67 C5.71 91.33, 2.57 86.43, 0 68 C-3.2 55.36, -3.09 49.27, 0 22.67 C2.12 9.02, 8.63 0.01, 22.67 0" stroke="none" stroke-width="0" fill="#a5d8ff"></path><path d="M22.67 0 C124.08 1.27, 225.36 1.41, 320 0 M22.67 0 C121.59 -2.07, 219.33 -1.65, 320 0 M320 0 C334.23 -1.58, 341.19 8.83, 342.67 22.67 M320 0 C337.24 -0.27, 341.49 6.49, 342.67 22.67 M342.67 22.67 C343.37 34.18, 343.18 45.9, 342.67 68 M342.67 22.67 C342.55 35.66, 343.25 50.18, 342.67 68 M342.67 68 C344.37 83.95, 335.68 89.48, 320 90.67 M342.67 68 C344.55 84.59, 336.95 90.83, 320 90.67 M320 90.67 C203.46 89.11, 86.99 88.17, 22.67 90.67 M320 90.67 C208.91 89.43, 97.14 88.61, 22.67 90.67 M22.67 90.67 C8.37 89.11, 1 82.54, 0 68 M22.67 90.67 C9.7 90.01, 0.84 83.35, 0 68 M0 68 C0.74 56.87, 0.73 44.66, 0 22.67 M0 68 C0.06 50.06, -0.25 31.73, 0 22.67 M0 22.67 C-1.34 6.3, 9.41 -1.91, 22.67 0 M0 22.67 C-1.94 9.49, 9.67 -1.88, 22.67 0" stroke="#1e1e1e" stroke-width="1" fill="none"></path></g><g transform="translate(136.00003051757812 100.96666666666667) rotate(0 41.015625 12)"><text x="0" y="0" font-family="Cascadia, Segoe UI Emoji" font-size="20px" fill="#1e1e1e" text-anchor="start" style="white-space: pre;" direction="ltr" dominant-baseline="text-before-edge">#n: i64</text></g><g stroke-linecap="round" transform="translate(37.333343505859375 190.80003051757814) rotate(0 151.33334350585938 43.333312988281236)"><path d="M21.67 0 C121.13 -4.26, 223.8 -1.99, 281 0 C296.62 -0.21, 305.39 6.38, 302.67 21.67 C301.46 35.81, 301.39 47.78, 302.67 65 C299.87 82.69, 297 85.49, 281 86.67 C193.96 90.42, 105.51 88.6, 21.67 86.67 C5.17 87.86, 1.51 78.39, 0 65 C2.67 53.36, 2.52 43.02, 0 21.67 C-0.86 9.98, 8.41 -0.26, 21.67 0" stroke="none" stroke-width="0" fill="#b2f2bb"></path><path d="M21.67 0 C83.28 -1.61, 148.2 0.87, 281 0 M21.67 0 C76.71 -1.48, 131.71 -2.36, 281 0 M281 0 C293.86 -1.04, 303.66 7.08, 302.67 21.67 M281 0 C296.58 0.85, 303.37 8.37, 302.67 21.67 M302.67 21.67 C301.38 30.93, 301.21 40.08, 302.67 65 M302.67 21.67 C302.01 37.63, 303.86 54.48, 302.67 65 M302.67 65 C301.44 80.22, 296.56 85.88, 281 86.67 M302.67 65 C304.77 77.63, 294.03 86.82, 281 86.67 M281 86.67 C183.53 86.44, 86.69 87.49, 21.67 86.67 M281 86.67 C196.12 85.8, 109.94 85.11, 21.67 86.67 M21.67 86.67 C8.55 88.49, 1.94 79.29, 0 65 M21.67 86.67 C7.04 84.49, 1.98 77.72, 0 65 M0 65 C-1.73 52.51, -1.93 39.22, 0 21.67 M0 65 C-0.31 53.85, -0.35 42.27, 0 21.67 M0 21.67 C1.54 6.93, 7.05 -1.35, 21.67 0 M0 21.67 C-0.74 9.48, 5.87 -0.62, 21.67 0" stroke="#1e1e1e" stroke-width="1" fill="none"></path></g><g transform="translate(110.66671752929688 222.8000305175781) rotate(0 76.171875 12)"><text x="0" y="0" font-family="Cascadia, Segoe UI Emoji" font-size="20px" fill="#1e1e1e" text-anchor="start" style="white-space: pre;" direction="ltr" dominant-baseline="text-before-edge">%n.addr: i64*</text></g><g stroke-linecap="round" transform="translate(36 303.4666564941406) rotate(0 151.33334350585938 43.33331298828125)"><path d="M21.67 0 C100.04 -3.42, 180.38 -5.35, 281 0 C295.11 -3.04, 299.41 7.16, 302.67 21.67 C302.95 33.24, 302.98 46.07, 302.67 65 C300.99 76.77, 297.81 87.67, 281 86.67 C210.87 85.09, 141.85 87.41, 21.67 86.67 C6.28 88.51, -2.37 76.04, 0 65 C2.03 52.79, 3.01 39.18, 0 21.67 C-3.01 10.05, 3.97 0.12, 21.67 0" stroke="none" stroke-width="0" fill="#b2f2bb"></path><path d="M21.67 0 C107.77 -0.32, 196.22 -0.06, 281 0 M21.67 0 C87.55 0.9, 154.89 0.89, 281 0 M281 0 C295.13 -0.32, 303.53 5.94, 302.67 21.67 M281 0 C294.66 -1.32, 303.07 7.5, 302.67 21.67 M302.67 21.67 C301.12 31.95, 301.14 42.29, 302.67 65 M302.67 21.67 C302.75 37.56, 301.47 54.61, 302.67 65 M302.67 65 C302.67 77.52, 294.45 87.4, 281 86.67 M302.67 65 C302.9 78.87, 294.42 86.54, 281 86.67 M281 86.67 C229.13 86.2, 178.42 85.78, 21.67 86.67 M281 86.67 C203.25 87.33, 125.01 86.98, 21.67 86.67 M21.67 86.67 C8.38 88.06, -1.44 79.21, 0 65 M21.67 86.67 C7.68 86.45, -2.07 78.93, 0 65 M0 65 C-1.19 48.3, -1.25 29.91, 0 21.67 M0 65 C-0.59 54.75, -0.78 43.74, 0 21.67 M0 21.67 C1.09 6.92, 8.89 -1.01, 21.67 0 M0 21.67 C0.2 8.49, 7.18 2.02, 21.67 0" stroke="#1e1e1e" stroke-width="1" fill="none"></path></g><g transform="translate(108.82809448242188 331.4666564941406) rotate(0 87.890625 12)"><text x="0" y="0" font-family="Cascadia, Segoe UI Emoji" font-size="20px" fill="#1e1e1e" text-anchor="start" style="white-space: pre;" direction="ltr" dominant-baseline="text-before-edge">%ans.addr: i64*</text></g><g stroke-linecap="round" transform="translate(35.99993896484375 416.4666564941406) rotate(0 151.33334350585938 43.33331298828125)"><path d="M21.67 0 C117.26 2.08, 212.69 0.92, 281 0 C295.95 -3.53, 299.99 6.86, 302.67 21.67 C304.98 36.77, 299.4 53.35, 302.67 65 C302.3 77.67, 298.18 88.43, 281 86.67 C209.32 84.32, 139.43 80.49, 21.67 86.67 C10.53 83.39, -2.67 77.05, 0 65 C1.83 51.87, -2.32 45.42, 0 21.67 C-2.03 5.9, 4.22 0.21, 21.67 0" stroke="none" stroke-width="0" fill="#ffec99"></path><path d="M21.67 0 C94.11 2.32, 166.86 2.14, 281 0 M21.67 0 C95.86 0.95, 169.88 1.68, 281 0 M281 0 C293.77 -0.24, 303.95 7.3, 302.67 21.67 M281 0 C297.46 0.04, 300.66 8.97, 302.67 21.67 M302.67 21.67 C302.72 32.48, 302.73 45.24, 302.67 65 M302.67 21.67 C302.7 33.12, 302.5 42.48, 302.67 65 M302.67 65 C301.55 80.76, 294.14 87.06, 281 86.67 M302.67 65 C302.87 80.83, 295.94 87.37, 281 86.67 M281 86.67 C196.86 85.79, 113.34 85.38, 21.67 86.67 M281 86.67 C202.02 88.47, 123.05 88.53, 21.67 86.67 M21.67 86.67 C8.82 86.27, -0.91 80.18, 0 65 M21.67 86.67 C7.06 84.49, 1.6 77.98, 0 65 M0 65 C-1.69 50.59, 0.35 35.85, 0 21.67 M0 65 C0.21 54.12, -0.56 43.9, 0 21.67 M0 21.67 C-1.98 6.14, 6.8 -0.87, 21.67 0 M0 21.67 C1.61 6.7, 8.57 -1.72, 21.67 0" stroke="#1e1e1e" stroke-width="1" fill="none"></path></g><g transform="translate(99.77603149414062 441.4666564941406) rotate(0 87.890625 12)"><text x="0" y="0" font-family="Cascadia, Segoe UI Emoji" font-size="20px" fill="#1e1e1e" text-anchor="start" style="white-space: pre;" direction="ltr" dominant-baseline="text-before-edge">%ret.addr: i64*</text></g><g transform="translate(87.3333740234375 10) rotate(0 98.4375 16.799999999999997)"><text x="0" y="0" font-family="Cascadia, Segoe UI Emoji" font-size="28px" fill="#1e1e1e" text-anchor="start" style="white-space: pre;" direction="ltr" dominant-baseline="text-before-edge">parameter #n</text></g><g transform="translate(75.33331298828125 522.6666564941405) rotate(0 114.84375 16.80000000000001)"><text x="0" y="0" font-family="Cascadia, Segoe UI Emoji" font-size="28px" fill="#1e1e1e" text-anchor="start" style="white-space: pre;" direction="ltr" dominant-baseline="text-before-edge">function frame</text></g><g stroke-linecap="round"><g transform="translate(354.6666564941406 107.46665649414064) rotate(0 52.000030517578125 63.00001525878905)"><path d="M0 0 C19.89 12.44, 121.89 53.67, 119.33 74.67 C116.78 95.67, 7.11 117.44, -15.33 126 M0 0 C19.89 12.44, 121.89 53.67, 119.33 74.67 C116.78 95.67, 7.11 117.44, -15.33 126" stroke="#1e1e1e" stroke-width="2" fill="none"></path></g><g transform="translate(354.6666564941406 107.46665649414064) rotate(0 52.000030517578125 63.00001525878905)"><path d="M4.94 111.38 C-0.98 115.65, -6.9 119.92, -15.33 126 M4.94 111.38 C-1.11 115.74, -7.16 120.11, -15.33 126" stroke="#1e1e1e" stroke-width="2" fill="none"></path></g><g transform="translate(354.6666564941406 107.46665649414064) rotate(0 52.000030517578125 63.00001525878905)"><path d="M9.6 127.83 C2.32 127.3, -4.96 126.76, -15.33 126 M9.6 127.83 C2.16 127.29, -5.29 126.74, -15.33 126" stroke="#1e1e1e" stroke-width="2" fill="none"></path></g></g><mask></mask><g transform="translate(387.3333435058594 232.79996948242186) rotate(0 105.46875 12)"><text x="0" y="0" font-family="Cascadia, Segoe UI Emoji" font-size="20px" fill="#1e1e1e" text-anchor="start" style="white-space: pre;" direction="ltr" dominant-baseline="text-before-edge">save the parameter</text></g><g transform="translate(384.6665954589844 327.5999694824219) rotate(0 134.765625 12)"><text x="0" y="0" font-family="Cascadia, Segoe UI Emoji" font-size="20px" fill="#1e1e1e" text-anchor="start" style="white-space: pre;" direction="ltr" dominant-baseline="text-before-edge">slot for local variable</text></g><g transform="translate(385.3332824707031 432.1334045410156) rotate(0 175.78125 24)"><text x="0" y="0" font-family="Cascadia, Segoe UI Emoji" font-size="20px" fill="#1e1e1e" text-anchor="start" style="white-space: pre;" direction="ltr" dominant-baseline="text-before-edge">compiler frontend synthesis </text><text x="0" y="24" font-family="Cascadia, Segoe UI Emoji" font-size="20px" fill="#1e1e1e" text-anchor="start" style="white-space: pre;" direction="ltr" dominant-baseline="text-before-edge">an extra slot for return value</text></g><g stroke-linecap="round"><g transform="translate(378.6666564941406 340.13334350585933) rotate(0 -21.666656494140625 1)"><path d="M0 0 C-7.22 0.33, -36.11 1.67, -43.33 2 M0 0 C-7.22 0.33, -36.11 1.67, -43.33 2" stroke="#1e1e1e" stroke-width="2" fill="none"></path></g><g transform="translate(378.6666564941406 340.13334350585933) rotate(0 -21.666656494140625 1)"><path d="M-23.32 -6.35 C-27.54 -4.59, -31.77 -2.82, -43.33 2 M-23.32 -6.35 C-29.72 -3.68, -36.13 -1.01, -43.33 2" stroke="#1e1e1e" stroke-width="2" fill="none"></path></g><g transform="translate(378.6666564941406 340.13334350585933) rotate(0 -21.666656494140625 1)"><path d="M-22.63 8.47 C-27 7.1, -31.38 5.74, -43.33 2 M-22.63 8.47 C-29.26 6.4, -35.88 4.33, -43.33 2" stroke="#1e1e1e" stroke-width="2" fill="none"></path></g></g><mask></mask><g stroke-linecap="round"><g transform="translate(380.0000305175781 462.13334350585933) rotate(0 -21.66668701171875 -1)"><path d="M0 0 C-7.22 -0.33, -36.11 -1.67, -43.33 -2 M0 0 C-7.22 -0.33, -36.11 -1.67, -43.33 -2" stroke="#1e1e1e" stroke-width="2" fill="none"></path></g><g transform="translate(380.0000305175781 462.13334350585933) rotate(0 -21.66668701171875 -1)"><path d="M-22.63 -8.47 C-29.42 -6.35, -36.21 -4.23, -43.33 -2 M-22.63 -8.47 C-27.37 -6.99, -32.12 -5.51, -43.33 -2" stroke="#1e1e1e" stroke-width="2" fill="none"></path></g><g transform="translate(380.0000305175781 462.13334350585933) rotate(0 -21.66668701171875 -1)"><path d="M-23.32 6.35 C-29.88 3.61, -36.44 0.87, -43.33 -2 M-23.32 6.35 C-27.9 4.44, -32.49 2.52, -43.33 -2" stroke="#1e1e1e" stroke-width="2" fill="none"></path></g></g><mask></mask></svg>