<svg version="1.1" xmlns="http://www.w3.org/2000/svg" viewBox="0 0 1596.0001116071426 705.2571254185269" width="1596.0001116071426" height="705.2571254185269">
  <!-- svg-source:excalidraw -->
  
  <defs>
    <style class="style-fonts">
      @font-face {
        font-family: "Virgil";
        src: url("https://excalidraw.com/Virgil.woff2");
      }
      @font-face {
        font-family: "Cascadia";
        src: url("https://excalidraw.com/Cascadia.woff2");
      }
      @font-face {
        font-family: "Assistant";
        src: url("https://excalidraw.com/Assistant-Regular.woff2");
      }
    </style>
    
  </defs>
  <rect x="0" y="0" width="1596.0001116071426" height="705.2571254185269" fill="#ffffff"></rect><g stroke-linecap="round" transform="translate(10 10) rotate(0 788.0000558035713 342.62856270926346)"><path d="M48.79 223.94 C48.79 223.94, 48.79 223.94, 48.79 223.94 M48.79 223.94 C48.79 223.94, 48.79 223.94, 48.79 223.94 M26.88 255.24 C50.13 228.5, 73.38 201.75, 85.92 187.32 M26.88 255.24 C45.9 233.36, 64.92 211.48, 85.92 187.32 M18.75 270.7 C36.73 250.01, 54.72 229.32, 101.41 175.6 M18.75 270.7 C43.38 242.36, 68.01 214.03, 101.41 175.6 M11.92 284.64 C35.87 257.09, 59.82 229.55, 116.89 163.89 M11.92 284.64 C42.86 249.05, 73.8 213.46, 116.89 163.89 M9.04 294.06 C34.17 265.15, 59.3 236.24, 129.75 155.19 M9.04 294.06 C50.86 245.95, 92.68 197.84, 129.75 155.19 M5.5 304.23 C56.65 245.39, 107.8 186.55, 141.96 147.25 M5.5 304.23 C36.8 268.21, 68.11 232.2, 141.96 147.25 M3.27 312.89 C33.5 278.11, 63.74 243.33, 153.5 140.06 M3.27 312.89 C46.91 262.69, 90.55 212.48, 153.5 140.06 M2.35 320.04 C57.24 256.9, 112.12 193.76, 164.4 133.63 M2.35 320.04 C63.1 250.16, 123.85 180.28, 164.4 133.63 M1.43 327.2 C42.71 279.71, 83.99 232.22, 174.63 127.95 M1.43 327.2 C45.53 276.47, 89.62 225.75, 174.63 127.95 M0.51 334.35 C50.68 276.65, 100.84 218.94, 184.21 123.03 M0.51 334.35 C65.97 259.05, 131.43 183.75, 184.21 123.03 M0.25 340.75 C69.82 260.72, 139.39 180.69, 193.79 118.11 M0.25 340.75 C75.68 253.98, 151.11 167.2, 193.79 118.11 M0.65 346.39 C57.15 281.39, 113.66 216.39, 202.71 113.94 M0.65 346.39 C56.32 282.35, 111.99 218.3, 202.71 113.94 M1.04 352.03 C64.87 278.61, 128.69 205.19, 211.64 109.77 M1.04 352.03 C79.7 261.55, 158.36 171.07, 211.64 109.77 M1.44 357.68 C69.05 279.89, 136.67 202.11, 220.56 105.6 M1.44 357.68 C47.63 304.54, 93.82 251.4, 220.56 105.6 M1.83 363.32 C48.74 309.35, 95.66 255.39, 229.48 101.44 M1.83 363.32 C72.4 282.14, 142.97 200.96, 229.48 101.44 M2.88 368.21 C63.6 298.36, 124.31 228.52, 237.75 98.02 M2.88 368.21 C77.36 282.53, 151.84 196.85, 237.75 98.02 M3.93 373.1 C77.47 288.5, 151.01 203.9, 246.02 94.61 M3.93 373.1 C59.59 309.07, 115.25 245.04, 246.02 94.61 M4.98 377.99 C74.09 298.48, 143.2 218.98, 254.94 90.44 M4.98 377.99 C86.44 284.28, 167.9 190.57, 254.94 90.44 M6.03 382.87 C65.17 314.85, 124.31 246.82, 263.21 87.03 M6.03 382.87 C106.46 267.35, 206.89 151.82, 263.21 87.03 M7.08 387.76 C75.12 309.49, 143.16 231.23, 270.82 84.37 M7.08 387.76 C71.75 313.38, 136.41 238.99, 270.82 84.37 M8.79 391.9 C94.21 293.63, 179.63 195.37, 278.43 81.71 M8.79 391.9 C110.06 275.4, 211.33 158.9, 278.43 81.71 M9.84 396.78 C105.66 286.56, 201.47 176.34, 286.04 79.05 M9.84 396.78 C81.54 314.31, 153.23 231.83, 286.04 79.05 M11.55 400.92 C94.76 305.2, 177.97 209.48, 293.65 76.39 M11.55 400.92 C123.13 272.56, 234.7 144.21, 293.65 76.39 M13.25 405.05 C80.96 327.16, 148.67 249.27, 300.61 74.49 M13.25 405.05 C79.41 328.94, 145.57 252.84, 300.61 74.49 M14.96 409.18 C130.36 276.43, 245.76 143.68, 308.22 71.83 M14.96 409.18 C128.53 278.54, 242.09 147.9, 308.22 71.83 M17.32 412.56 C96.42 321.58, 175.51 230.6, 315.83 69.17 M17.32 412.56 C135.2 276.97, 253.07 141.37, 315.83 69.17 M19.03 416.7 C92.08 332.66, 165.13 248.63, 323.44 66.51 M19.03 416.7 C114.71 306.63, 210.39 196.57, 323.44 66.51 M20.74 420.83 C121.1 305.38, 221.46 189.92, 330.4 64.61 M20.74 420.83 C103.66 325.44, 186.58 230.05, 330.4 64.61 M23.1 424.21 C136.56 293.69, 250.02 163.17, 338.01 61.95 M23.1 424.21 C107.09 327.59, 191.08 230.97, 338.01 61.95 M24.81 428.34 C137.1 299.16, 249.4 169.98, 344.96 60.05 M24.81 428.34 C133.6 303.2, 242.38 178.05, 344.96 60.05 M27.17 431.72 C117.91 327.34, 208.65 222.95, 352.58 57.39 M27.17 431.72 C144.68 296.54, 262.19 161.36, 352.58 57.39 M29.53 435.1 C105.76 347.41, 182 259.71, 359.53 55.48 M29.53 435.1 C154.38 291.48, 279.23 147.86, 359.53 55.48 M31.9 438.48 C105 354.38, 178.11 270.28, 366.49 53.58 M31.9 438.48 C112.43 345.83, 192.97 253.18, 366.49 53.58 M34.26 441.86 C135.81 325.03, 237.37 208.21, 373.44 51.67 M34.26 441.86 C145.29 314.13, 256.32 186.41, 373.44 51.67 M36.62 445.24 C105.54 365.95, 174.46 286.67, 380.4 49.77 M36.62 445.24 C165.62 296.85, 294.61 148.46, 380.4 49.77 M38.98 448.62 C122.07 353.03, 205.16 257.45, 386.7 48.62 M38.98 448.62 C111.09 365.67, 183.2 282.71, 386.7 48.62 M41.35 452 C162.72 312.38, 284.09 172.75, 393.65 46.72 M41.35 452 C168.53 305.69, 295.7 159.39, 393.65 46.72 M43.71 455.38 C179.71 298.93, 315.71 142.48, 400.61 44.81 M43.71 455.38 C120.63 366.89, 197.55 278.4, 400.61 44.81 M46.73 458 C179.53 305.23, 312.33 152.46, 406.9 43.66 M46.73 458 C126.28 366.48, 205.84 274.96, 406.9 43.66 M49.09 461.38 C124.08 375.12, 199.07 288.85, 413.86 41.76 M49.09 461.38 C131.33 366.78, 213.57 272.17, 413.86 41.76 M51.45 464.76 C158.26 341.89, 265.06 219.03, 420.16 40.61 M51.45 464.76 C163.66 335.68, 275.86 206.6, 420.16 40.61 M54.47 467.38 C144.21 364.16, 233.94 260.93, 427.11 38.71 M54.47 467.38 C161.55 344.2, 268.64 221.01, 427.11 38.71 M56.84 470.76 C178.46 330.85, 300.08 190.94, 434.07 36.8 M56.84 470.76 C202.95 302.68, 349.06 134.59, 434.07 36.8 M59.85 473.38 C198.16 314.28, 336.47 155.18, 440.37 35.65 M59.85 473.38 C184.68 329.79, 309.5 186.2, 440.37 35.65 M62.87 476.01 C208.86 308.07, 354.84 140.14, 446.67 34.5 M62.87 476.01 C205.82 311.57, 348.77 147.12, 446.67 34.5 M65.24 479.39 C181.27 345.9, 297.31 212.42, 453.62 32.6 M65.24 479.39 C162.66 367.32, 260.08 255.24, 453.62 32.6 M68.25 482.01 C215.31 312.85, 362.36 143.69, 459.92 31.45 M68.25 482.01 C220.55 306.82, 372.85 131.62, 459.92 31.45 M71.27 484.64 C197.77 339.12, 324.26 193.61, 466.22 30.3 M71.27 484.64 C164.35 377.57, 257.42 270.5, 466.22 30.3 M74.29 487.26 C200.92 341.6, 327.54 195.93, 472.52 29.15 M74.29 487.26 C190.64 353.42, 306.99 219.58, 472.52 29.15 M77.31 489.88 C217.86 328.2, 358.41 166.52, 478.82 28 M77.31 489.88 C173.26 379.5, 269.22 269.12, 478.82 28 M79.67 493.26 C167.53 392.19, 255.39 291.12, 485.12 26.85 M79.67 493.26 C227.53 323.18, 375.38 153.09, 485.12 26.85 M82.69 495.89 C188.39 374.3, 294.08 252.72, 491.42 25.7 M82.69 495.89 C202.79 357.74, 322.88 219.59, 491.42 25.7 M85.71 498.51 C241.79 318.96, 397.87 139.41, 497.72 24.55 M85.71 498.51 C174.37 396.52, 263.03 294.54, 497.72 24.55 M88.73 501.14 C240.23 326.86, 391.72 152.59, 504.02 23.41 M88.73 501.14 C175.85 400.91, 262.97 300.69, 504.02 23.41 M92.41 503.01 C221.96 353.97, 351.52 204.93, 510.32 22.26 M92.41 503.01 C209.03 368.84, 325.66 234.67, 510.32 22.26 M95.42 505.63 C236.74 343.06, 378.06 180.5, 515.96 21.86 M95.42 505.63 C210.24 373.55, 325.06 241.46, 515.96 21.86 M98.44 508.25 C189.28 403.76, 280.11 299.27, 522.26 20.71 M98.44 508.25 C233.34 353.08, 368.23 197.9, 522.26 20.71 M101.46 510.88 C224.32 369.54, 347.18 228.21, 527.9 20.32 M101.46 510.88 C249.13 341.01, 396.79 171.14, 527.9 20.32 M104.48 513.5 C230.94 368.03, 357.39 222.56, 534.2 19.17 M104.48 513.5 C242.56 354.67, 380.63 195.83, 534.2 19.17 M108.16 515.37 C231.48 373.51, 354.8 231.64, 540.5 18.02 M108.16 515.37 C267.6 331.95, 427.05 148.53, 540.5 18.02 M111.17 518 C220.44 392.3, 329.7 266.61, 546.8 16.87 M111.17 518 C199.71 416.15, 288.24 314.31, 546.8 16.87 M114.19 520.62 C219.42 399.57, 324.65 278.52, 552.44 16.48 M114.19 520.62 C226.58 391.34, 338.96 262.06, 552.44 16.48 M117.87 522.49 C286.87 328.07, 455.88 133.65, 558.74 15.33 M117.87 522.49 C252.62 367.48, 387.37 212.46, 558.74 15.33 M120.89 525.11 C215.71 416.03, 310.54 306.95, 564.38 14.93 M120.89 525.11 C210.3 422.25, 299.72 319.39, 564.38 14.93 M124.56 526.98 C253.79 378.32, 383.03 229.65, 570.68 13.78 M124.56 526.98 C256.95 374.68, 389.35 222.39, 570.68 13.78 M127.58 529.61 C269.55 366.29, 411.52 202.98, 576.98 12.63 M127.58 529.61 C295.34 336.62, 463.1 143.64, 576.98 12.63 M131.26 531.48 C296.5 341.39, 461.74 151.3, 582.62 12.24 M131.26 531.48 C253.72 390.59, 376.19 249.71, 582.62 12.24 M134.27 534.1 C227.19 427.21, 320.11 320.33, 588.92 11.09 M134.27 534.1 C232.94 420.6, 331.6 307.1, 588.92 11.09 M137.95 535.97 C278.26 374.57, 418.56 213.16, 594.57 10.69 M137.95 535.97 C252.4 404.31, 366.85 272.65, 594.57 10.69 M140.97 538.6 C318.32 334.58, 495.66 130.57, 600.87 9.54 M140.97 538.6 C304.16 350.86, 467.36 163.13, 600.87 9.54 M144.64 540.47 C239.83 430.97, 335.01 321.47, 605.85 9.9 M144.64 540.47 C274.99 390.52, 405.33 240.58, 605.85 9.9 M148.32 542.34 C294 374.75, 439.68 207.16, 611.5 9.51 M148.32 542.34 C280.55 390.22, 412.77 238.11, 611.5 9.51 M151.34 544.96 C270.27 408.14, 389.2 271.33, 617.8 8.36 M151.34 544.96 C310.7 361.63, 470.07 178.3, 617.8 8.36 M155.01 546.83 C292.91 388.2, 430.8 229.57, 623.44 7.97 M155.01 546.83 C288.1 393.73, 421.19 240.63, 623.44 7.97 M158.69 548.7 C273.03 417.17, 387.37 285.63, 629.08 7.57 M158.69 548.7 C266.3 424.91, 373.91 301.12, 629.08 7.57 M162.36 550.57 C340.4 345.76, 518.44 140.95, 634.72 7.18 M162.36 550.57 C305.27 386.17, 448.18 221.78, 634.72 7.18 M165.38 553.19 C288.47 411.6, 411.55 270, 640.37 6.78 M165.38 553.19 C294.35 404.83, 423.32 256.47, 640.37 6.78 M169.06 555.06 C294.15 411.15, 419.25 267.24, 646.01 6.39 M169.06 555.06 C297.4 407.42, 425.74 259.77, 646.01 6.39 M172.73 556.93 C359.53 342.04, 546.33 127.15, 651.65 5.99 M172.73 556.93 C280.03 433.5, 387.33 310.07, 651.65 5.99 M176.41 558.8 C368.34 338, 560.28 117.21, 657.3 5.6 M176.41 558.8 C363.32 343.78, 550.24 128.76, 657.3 5.6 M180.08 560.67 C286.86 437.84, 393.63 315.01, 662.94 5.2 M180.08 560.67 C357.3 356.81, 534.51 152.94, 662.94 5.2 M183.76 562.54 C321.86 403.67, 459.96 244.8, 669.24 4.05 M183.76 562.54 C301.63 426.94, 419.5 291.35, 669.24 4.05 M187.43 564.41 C351.29 375.91, 515.16 187.4, 674.88 3.66 M187.43 564.41 C288.67 447.94, 389.91 331.48, 674.88 3.66 M191.1 566.28 C369.15 361.46, 547.2 156.64, 680.52 3.27 M191.1 566.28 C332.76 403.32, 474.42 240.36, 680.52 3.27 M194.78 568.15 C301.58 445.29, 408.37 322.44, 686.17 2.87 M194.78 568.15 C381.46 353.4, 568.13 138.66, 686.17 2.87 M198.45 570.02 C361.77 382.14, 525.09 194.27, 691.81 2.48 M198.45 570.02 C377.65 363.88, 556.85 157.73, 691.81 2.48 M202.13 571.89 C372.93 375.4, 543.74 178.91, 696.8 2.84 M202.13 571.89 C372.29 376.14, 542.45 180.39, 696.8 2.84 M205.8 573.76 C319.3 443.19, 432.81 312.62, 702.44 2.44 M205.8 573.76 C392.19 359.34, 578.58 144.93, 702.44 2.44 M209.48 575.63 C358.62 404.07, 507.75 232.5, 708.08 2.05 M209.48 575.63 C352.54 411.06, 495.59 246.49, 708.08 2.05 M213.15 577.5 C386.91 377.62, 560.66 177.74, 713.73 1.65 M213.15 577.5 C319.97 454.62, 426.79 331.74, 713.73 1.65 M217.49 578.61 C346.12 430.64, 474.75 282.66, 719.37 1.26 M217.49 578.61 C328.99 450.34, 440.5 322.06, 719.37 1.26 M221.16 580.48 C385.19 391.79, 549.21 203.1, 724.36 1.62 M221.16 580.48 C342.82 440.53, 464.48 300.57, 724.36 1.62 M224.84 582.35 C372.56 412.41, 520.29 242.47, 729.34 1.98 M224.84 582.35 C371.06 414.14, 517.28 245.92, 729.34 1.98 M228.51 584.22 C356.55 436.93, 484.59 289.64, 734.99 1.58 M228.51 584.22 C330.46 466.93, 432.42 349.65, 734.99 1.58 M232.18 586.09 C376.1 420.53, 520.02 254.98, 740.63 1.19 M232.18 586.09 C362.61 436.05, 493.04 286.01, 740.63 1.19 M236.52 587.2 C421.68 374.2, 606.84 161.19, 745.62 1.55 M236.52 587.2 C394.02 406.02, 551.52 224.83, 745.62 1.55 M240.19 589.07 C444.53 354.01, 648.87 118.94, 751.26 1.15 M240.19 589.07 C350.28 462.43, 460.37 335.78, 751.26 1.15 M243.87 590.94 C419.96 388.37, 596.05 185.8, 756.9 0.76 M243.87 590.94 C428.54 378.5, 613.22 166.05, 756.9 0.76 M248.2 592.06 C358.48 465.19, 468.76 338.32, 762.55 0.37 M248.2 592.06 C395.44 422.67, 542.69 253.29, 762.55 0.37 M251.87 593.93 C367.72 460.66, 483.56 327.4, 768.19 -0.03 M251.87 593.93 C367.33 461.11, 482.78 328.3, 768.19 -0.03 M255.55 595.8 C460.79 359.69, 666.04 123.58, 773.18 0.33 M255.55 595.8 C418.81 407.98, 582.08 220.17, 773.18 0.33 M259.88 596.91 C409.61 424.67, 559.34 252.42, 778.82 -0.06 M259.88 596.91 C440.16 389.53, 620.43 182.14, 778.82 -0.06 M263.55 598.78 C375.02 470.55, 486.49 342.32, 783.81 0.3 M263.55 598.78 C459.01 373.93, 654.47 149.08, 783.81 0.3 M267.88 599.9 C458.55 380.56, 649.22 161.22, 789.45 -0.1 M267.88 599.9 C400.87 446.91, 533.86 293.92, 789.45 -0.1 M271.56 601.77 C394.03 460.87, 516.51 319.98, 794.44 0.26 M271.56 601.77 C410.95 441.42, 550.33 281.07, 794.44 0.26 M275.89 602.88 C450.86 401.6, 625.83 200.32, 800.08 -0.13 M275.89 602.88 C405.15 454.18, 534.41 305.48, 800.08 -0.13 M279.56 604.75 C395.94 470.88, 512.31 337.01, 805.07 0.23 M279.56 604.75 C392.05 475.35, 504.53 345.95, 805.07 0.23 M283.89 605.86 C399.61 472.75, 515.33 339.63, 810.05 0.59 M283.89 605.86 C441.22 424.88, 598.54 243.9, 810.05 0.59 M287.57 607.73 C413.98 462.31, 540.4 316.89, 815.7 0.19 M287.57 607.73 C483.33 382.53, 679.1 157.33, 815.7 0.19 M291.9 608.85 C450.09 426.88, 608.27 244.9, 820.68 0.55 M291.9 608.85 C485.21 386.48, 678.51 164.1, 820.68 0.55 M295.58 610.72 C481.03 397.37, 666.49 184.03, 825.67 0.91 M295.58 610.72 C462.87 418.27, 630.16 225.83, 825.67 0.91 M299.91 611.83 C509.59 370.62, 719.27 129.41, 830.66 1.27 M299.91 611.83 C446.49 443.21, 593.08 274.58, 830.66 1.27 M304.24 612.95 C470.91 421.21, 637.59 229.47, 836.3 0.88 M304.24 612.95 C492.84 395.99, 681.43 179.03, 836.3 0.88 M307.91 614.82 C510.44 381.83, 712.98 148.85, 841.29 1.24 M307.91 614.82 C434.5 469.2, 561.08 323.58, 841.29 1.24 M312.24 615.93 C466.23 438.79, 620.21 261.65, 846.28 1.6 M312.24 615.93 C429.5 481.05, 546.75 346.16, 846.28 1.6 M316.57 617.05 C463.04 448.56, 609.5 280.07, 851.92 1.2 M316.57 617.05 C494.32 412.57, 672.07 208.1, 851.92 1.2 M320.25 618.92 C498.58 413.77, 676.91 208.62, 856.91 1.56 M320.25 618.92 C518.65 390.68, 717.05 162.45, 856.91 1.56 M324.58 620.03 C510.28 406.41, 695.98 192.79, 861.89 1.92 M324.58 620.03 C442.72 484.12, 560.86 348.22, 861.89 1.92 M328.91 621.15 C490.72 435, 652.53 248.86, 866.88 2.28 M328.91 621.15 C485.05 441.52, 641.2 261.9, 866.88 2.28 M332.59 623.02 C447.52 490.8, 562.46 358.58, 871.87 2.64 M332.59 623.02 C460.42 475.96, 588.24 328.91, 871.87 2.64 M336.92 624.13 C524.73 408.07, 712.55 192.01, 876.85 3 M336.92 624.13 C549.19 379.94, 761.46 135.75, 876.85 3 M341.25 625.25 C526.32 412.34, 711.4 199.44, 882.5 2.61 M341.25 625.25 C501.58 440.8, 661.91 256.36, 882.5 2.61 M345.58 626.36 C468.07 485.45, 590.55 344.55, 887.48 2.97 M345.58 626.36 C517.3 428.82, 689.02 231.28, 887.48 2.97 M349.91 627.48 C537.79 411.34, 725.67 195.21, 892.47 3.33 M349.91 627.48 C559.73 386.1, 769.56 144.73, 892.47 3.33 M354.24 628.59 C564.07 387.21, 773.9 145.82, 897.46 3.69 M354.24 628.59 C477.3 487.02, 600.36 345.46, 897.46 3.69 M357.92 630.46 C515.2 449.53, 672.47 268.6, 902.44 4.05 M357.92 630.46 C507.33 458.58, 656.74 286.7, 902.44 4.05 M362.25 631.57 C513.79 457.24, 665.33 282.91, 907.43 4.41 M362.25 631.57 C533.29 434.81, 704.34 238.04, 907.43 4.41 M366.58 632.69 C574.38 393.64, 782.17 154.6, 912.42 4.77 M366.58 632.69 C476.62 506.1, 586.67 379.5, 912.42 4.77 M370.91 633.8 C506.95 477.3, 643 320.8, 917.41 5.13 M370.91 633.8 C533.03 447.3, 695.16 260.79, 917.41 5.13 M375.24 634.92 C529.21 457.79, 683.18 280.67, 922.39 5.49 M375.24 634.92 C587.19 391.1, 799.13 147.29, 922.39 5.49 M379.57 636.03 C514.03 481.35, 648.49 326.67, 927.38 5.85 M379.57 636.03 C554.91 434.33, 730.24 232.63, 927.38 5.85 M383.9 637.15 C602.72 385.43, 821.53 133.71, 932.37 6.21 M383.9 637.15 C563.35 430.72, 742.8 224.29, 932.37 6.21 M388.23 638.26 C559.67 441.04, 731.12 243.82, 937.35 6.57 M388.23 638.26 C528.4 477.01, 668.58 315.77, 937.35 6.57 M392.56 639.38 C606.85 392.87, 821.14 146.36, 942.34 6.93 M392.56 639.38 C553.74 453.97, 714.91 268.56, 942.34 6.93 M396.89 640.49 C557.82 455.37, 718.74 270.25, 947.33 7.29 M396.89 640.49 C507.05 513.77, 617.21 387.05, 947.33 7.29 M401.23 641.61 C543.79 477.6, 686.36 313.59, 952.31 7.65 M401.23 641.61 C530.16 493.29, 659.09 344.97, 952.31 7.65 M405.56 642.72 C586.02 435.13, 766.48 227.53, 956.65 8.77 M405.56 642.72 C614.47 402.39, 823.39 162.06, 956.65 8.77 M409.89 643.84 C552.82 479.42, 695.75 314.99, 961.63 9.13 M409.89 643.84 C561.5 469.42, 713.12 295.01, 961.63 9.13 M414.22 644.95 C611.73 417.75, 809.23 190.54, 966.62 9.49 M414.22 644.95 C548.55 490.42, 682.89 335.89, 966.62 9.49 M419.21 645.31 C636.05 395.86, 852.89 146.42, 971.61 9.85 M419.21 645.31 C539.32 507.13, 659.44 368.95, 971.61 9.85 M423.54 646.43 C545.79 505.79, 668.05 365.15, 976.59 10.21 M423.54 646.43 C628.13 411.07, 832.72 175.71, 976.59 10.21 M427.87 647.54 C598.96 450.72, 770.05 253.91, 980.92 11.32 M427.87 647.54 C560.75 494.68, 693.63 341.82, 980.92 11.32 M432.2 648.66 C628.7 422.61, 825.2 196.55, 985.91 11.68 M432.2 648.66 C633.46 417.13, 834.73 185.6, 985.91 11.68 M436.53 649.77 C551.89 517.06, 667.25 384.36, 990.9 12.04 M436.53 649.77 C657.25 395.86, 877.98 141.95, 990.9 12.04 M440.86 650.89 C604.24 462.94, 767.61 275, 995.89 12.4 M440.86 650.89 C637.62 424.54, 834.39 198.18, 995.89 12.4 M445.85 651.25 C632.01 437.09, 818.17 222.94, 1000.22 13.52 M445.85 651.25 C624.68 445.53, 803.51 239.81, 1000.22 13.52 M450.18 652.36 C657.58 413.77, 864.98 175.18, 1005.86 13.12 M450.18 652.36 C617.04 460.41, 783.9 268.46, 1005.86 13.12 M454.51 653.48 C614.53 469.39, 774.55 285.31, 1010.19 14.24 M454.51 653.48 C633.21 447.91, 811.91 242.34, 1010.19 14.24 M459.5 653.84 C583.82 510.82, 708.15 367.79, 1015.18 14.6 M459.5 653.84 C617.65 471.91, 775.79 289.98, 1015.18 14.6 M463.83 654.95 C635.47 457.5, 807.11 260.05, 1020.16 14.96 M463.83 654.95 C619.46 475.91, 775.1 296.87, 1020.16 14.96 M468.16 656.07 C621.98 479.12, 775.8 302.17, 1024.5 16.07 M468.16 656.07 C589.36 516.64, 710.56 377.22, 1024.5 16.07 M473.14 656.43 C690.01 406.95, 906.87 157.48, 1029.48 16.43 M473.14 656.43 C672.45 427.15, 871.76 197.87, 1029.48 16.43 M477.48 657.54 C622.44 490.78, 767.4 324.03, 1033.81 17.55 M477.48 657.54 C664.94 441.89, 852.41 226.23, 1033.81 17.55 M481.81 658.66 C689.35 419.9, 896.9 181.15, 1038.8 17.91 M481.81 658.66 C646 469.77, 810.2 280.88, 1038.8 17.91 M486.79 659.02 C655.63 464.79, 824.47 270.56, 1043.13 19.02 M486.79 659.02 C656.72 463.54, 826.65 268.06, 1043.13 19.02 M491.12 660.13 C628.25 502.38, 765.38 344.63, 1048.12 19.38 M491.12 660.13 C660.26 465.56, 829.39 271, 1048.12 19.38 M496.11 660.49 C624.89 512.35, 753.66 364.21, 1053.11 19.74 M496.11 660.49 C670.64 459.72, 845.17 258.94, 1053.11 19.74 M500.44 661.61 C638.69 502.57, 776.95 343.53, 1057.44 20.86 M500.44 661.61 C709.7 420.88, 918.96 180.15, 1057.44 20.86 M504.77 662.72 C654.28 490.73, 803.79 318.75, 1062.42 21.22 M504.77 662.72 C715.18 420.68, 925.58 178.63, 1062.42 21.22 M509.76 663.08 C712.93 429.36, 916.11 195.63, 1066.75 22.33 M509.76 663.08 C720.48 420.68, 931.2 178.27, 1066.75 22.33 M514.09 664.2 C701.81 448.25, 889.52 232.31, 1071.09 23.45 M514.09 664.2 C648.05 510.09, 782.02 355.98, 1071.09 23.45 M519.08 664.56 C647.42 516.92, 775.76 369.28, 1076.07 23.81 M519.08 664.56 C717.08 436.78, 915.08 209.01, 1076.07 23.81 M523.41 665.67 C723.49 435.51, 923.56 205.35, 1080.4 24.92 M523.41 665.67 C675.31 490.93, 827.21 316.19, 1080.4 24.92 M528.4 666.03 C655.47 519.85, 782.54 373.67, 1085.39 25.28 M528.4 666.03 C655.24 520.11, 782.08 374.2, 1085.39 25.28 M532.73 667.15 C730.11 440.08, 927.5 213.01, 1089.72 26.4 M532.73 667.15 C738.94 429.93, 945.15 192.71, 1089.72 26.4 M537.71 667.51 C754.33 418.32, 970.94 169.13, 1094.05 27.51 M537.71 667.51 C700.25 480.53, 862.78 293.56, 1094.05 27.51 M542.05 668.62 C731.8 450.34, 921.54 232.06, 1099.04 27.87 M542.05 668.62 C684.59 504.65, 827.13 340.67, 1099.04 27.87 M547.03 668.98 C710.55 480.87, 874.08 292.76, 1103.37 28.99 M547.03 668.98 C726.4 462.64, 905.77 256.3, 1103.37 28.99 M552.02 669.34 C682.41 519.34, 812.8 369.34, 1107.7 30.1 M552.02 669.34 C762.75 426.93, 973.47 184.51, 1107.7 30.1 M556.35 670.45 C762.28 433.56, 968.2 196.67, 1112.69 30.46 M556.35 670.45 C705.85 498.48, 855.34 326.5, 1112.69 30.46 M561.34 670.82 C756.58 446.22, 951.82 221.62, 1117.02 31.58 M561.34 670.82 C681.45 532.64, 801.57 394.46, 1117.02 31.58 M566.32 671.18 C785.42 419.14, 1004.51 167.1, 1121.35 32.69 M566.32 671.18 C764.95 442.69, 963.57 214.2, 1121.35 32.69 M570.66 672.29 C739.7 477.83, 908.74 283.36, 1126.34 33.05 M570.66 672.29 C775.86 436.23, 981.06 200.17, 1126.34 33.05 M575.64 672.65 C793.71 421.79, 1011.78 170.93, 1130.67 34.17 M575.64 672.65 C793.87 421.61, 1012.1 170.57, 1130.67 34.17 M580.63 673.01 C749.78 478.42, 918.93 283.84, 1135 35.28 M580.63 673.01 C729.05 502.28, 877.46 331.54, 1135 35.28 M584.96 674.13 C772.46 458.44, 959.95 242.75, 1139.33 36.4 M584.96 674.13 C726.1 511.76, 867.24 349.4, 1139.33 36.4 M589.95 674.49 C736.36 506.06, 882.77 337.63, 1143.66 37.51 M589.95 674.49 C737.88 504.31, 885.81 334.14, 1143.66 37.51 M594.93 674.85 C734.88 513.86, 874.82 352.87, 1148.65 37.87 M594.93 674.85 C815.62 420.97, 1036.31 167.1, 1148.65 37.87 M599.92 675.21 C760.78 490.16, 921.64 305.11, 1152.98 38.99 M599.92 675.21 C793.41 452.62, 986.9 230.04, 1152.98 38.99 M604.25 676.32 C774.01 481.03, 943.78 285.74, 1157.31 40.1 M604.25 676.32 C802.31 448.48, 1000.37 220.64, 1157.31 40.1 M609.24 676.68 C825.58 427.81, 1041.92 178.94, 1161.64 41.21 M609.24 676.68 C733.31 533.95, 857.38 391.22, 1161.64 41.21 M614.23 677.04 C790.66 474.08, 967.1 271.11, 1165.97 42.33 M614.23 677.04 C748.22 522.9, 882.21 368.76, 1165.97 42.33 M619.21 677.4 C824.44 441.31, 1029.67 205.23, 1170.3 43.44 M619.21 677.4 C744.2 533.62, 869.19 389.83, 1170.3 43.44 M624.2 677.76 C766.53 514.03, 908.85 350.31, 1174.63 44.56 M624.2 677.76 C755.72 526.47, 887.23 375.17, 1174.63 44.56 M629.19 678.12 C814.59 464.84, 1000 251.55, 1178.97 45.67 M629.19 678.12 C749.25 540.01, 869.31 401.89, 1178.97 45.67 M633.52 679.24 C819.97 464.75, 1006.41 250.27, 1183.3 46.79 M633.52 679.24 C803.44 483.76, 973.36 288.29, 1183.3 46.79 M638.51 679.6 C851.92 434.09, 1065.33 188.59, 1187.63 47.9 M638.51 679.6 C796.57 497.77, 954.63 315.94, 1187.63 47.9 M643.49 679.96 C822.12 474.46, 1000.76 268.97, 1191.96 49.02 M643.49 679.96 C803.95 495.37, 964.41 310.79, 1191.96 49.02 M648.48 680.32 C827.93 473.88, 1007.39 267.44, 1196.29 50.13 M648.48 680.32 C785.57 522.61, 922.65 364.91, 1196.29 50.13 M653.47 680.68 C779.82 535.33, 906.17 389.98, 1200.62 51.25 M653.47 680.68 C765.76 551.5, 878.05 422.33, 1200.62 51.25 M658.45 681.04 C851.61 458.83, 1044.77 236.63, 1204.95 52.36 M658.45 681.04 C848.21 462.75, 1037.96 244.46, 1204.95 52.36 M663.44 681.4 C781.31 545.81, 899.17 410.22, 1209.28 53.48 M663.44 681.4 C848.75 468.22, 1034.06 255.05, 1209.28 53.48 M668.43 681.76 C866.91 453.43, 1065.38 225.11, 1213.61 54.59 M668.43 681.76 C857.58 464.16, 1046.74 246.56, 1213.61 54.59 M673.41 682.12 C831.47 500.29, 989.53 318.46, 1217.94 55.71 M673.41 682.12 C871.8 453.9, 1070.18 225.69, 1217.94 55.71 M679.06 681.72 C817.94 521.95, 956.83 362.18, 1222.27 56.82 M679.06 681.72 C811.71 529.12, 944.37 376.52, 1222.27 56.82 M684.04 682.08 C799.02 549.82, 913.99 417.56, 1226.61 57.94 M684.04 682.08 C806.25 541.5, 928.46 400.91, 1226.61 57.94 M689.03 682.44 C809.73 543.59, 930.44 404.74, 1230.28 59.81 M689.03 682.44 C884.03 458.13, 1079.02 233.81, 1230.28 59.81 M694.02 682.8 C903.38 441.96, 1112.74 201.12, 1234.61 60.92 M694.02 682.8 C826.12 530.84, 958.22 378.87, 1234.61 60.92 M698.35 683.92 C838.47 522.73, 978.59 361.54, 1238.94 62.04 M698.35 683.92 C829.73 532.78, 961.12 381.64, 1238.94 62.04 M703.99 683.52 C904.19 453.22, 1104.4 222.91, 1243.27 63.15 M703.99 683.52 C822.81 546.84, 941.63 410.15, 1243.27 63.15 M708.98 683.88 C846.77 525.38, 984.55 366.87, 1247.6 64.27 M708.98 683.88 C906.62 456.52, 1104.27 229.16, 1247.6 64.27 M713.97 684.24 C911.2 457.35, 1108.44 230.45, 1251.28 66.14 M713.97 684.24 C890.4 481.28, 1066.83 278.32, 1251.28 66.14 M718.95 684.6 C881.49 497.62, 1044.03 310.65, 1255.61 67.25 M718.95 684.6 C843.99 540.77, 969.02 396.93, 1255.61 67.25 M723.94 684.96 C898.97 483.62, 1073.99 282.28, 1259.94 68.37 M723.94 684.96 C841.99 549.16, 960.05 413.36, 1259.94 68.37 M729.58 684.57 C937.23 445.7, 1144.88 206.82, 1263.62 70.23 M729.58 684.57 C873.1 519.48, 1016.61 354.38, 1263.62 70.23 M734.57 684.93 C867.8 531.67, 1001.03 378.4, 1267.95 71.35 M734.57 684.93 C907.56 485.93, 1080.55 286.93, 1267.95 71.35 M739.56 685.29 C899.68 501.09, 1059.81 316.89, 1272.28 72.46 M739.56 685.29 C914.46 484.09, 1089.35 282.9, 1272.28 72.46 M745.2 684.89 C896.88 510.41, 1048.55 335.93, 1276.61 73.58 M745.2 684.89 C928.81 473.68, 1112.41 262.47, 1276.61 73.58 M750.19 685.25 C921.64 488.02, 1093.09 290.79, 1280.28 75.45 M750.19 685.25 C958.2 445.96, 1166.21 206.68, 1280.28 75.45 M755.18 685.61 C877.21 545.22, 999.25 404.83, 1284.61 76.56 M755.18 685.61 C948.56 463.15, 1141.94 240.69, 1284.61 76.56 M760.16 685.97 C940.35 478.7, 1120.53 271.42, 1288.29 78.43 M760.16 685.97 C901.84 522.99, 1043.52 360.01, 1288.29 78.43 M765.81 685.58 C887.24 545.88, 1008.68 406.18, 1292.62 79.55 M765.81 685.58 C945.78 478.55, 1125.75 271.51, 1292.62 79.55 M770.79 685.94 C947.36 482.82, 1123.93 279.7, 1296.3 81.42 M770.79 685.94 C923.03 510.81, 1075.27 335.67, 1296.3 81.42 M776.44 685.54 C922.88 517.08, 1069.32 348.62, 1300.63 82.53 M776.44 685.54 C886.08 559.41, 995.73 433.27, 1300.63 82.53 M781.42 685.91 C932.29 512.35, 1083.16 338.79, 1304.3 84.4 M781.42 685.91 C894.94 555.32, 1008.46 424.73, 1304.3 84.4 M787.07 685.51 C953.67 493.86, 1120.27 302.2, 1308.63 85.52 M787.07 685.51 C984.79 458.06, 1182.51 230.61, 1308.63 85.52 M792.05 685.87 C936.62 519.57, 1081.18 353.26, 1312.31 87.39 M792.05 685.87 C967.59 483.94, 1143.12 282.01, 1312.31 87.39 M797.7 685.48 C974.91 481.62, 1152.12 277.76, 1316.64 88.5 M797.7 685.48 C921.76 542.75, 1045.83 400.02, 1316.64 88.5 M803.34 685.08 C1000.58 458.18, 1197.82 231.29, 1320.31 90.37 M803.34 685.08 C991.57 468.55, 1179.79 252.02, 1320.31 90.37 M808.33 685.44 C955.36 516.29, 1102.4 347.15, 1324.64 91.49 M808.33 685.44 C939.18 534.92, 1070.03 384.39, 1324.64 91.49 M813.97 685.05 C1007.08 462.9, 1200.19 240.76, 1328.32 93.35 M813.97 685.05 C987.43 485.5, 1160.89 285.96, 1328.32 93.35 M818.96 685.41 C991.84 486.53, 1164.72 287.65, 1331.99 95.22 M818.96 685.41 C953.87 530.2, 1088.79 374.99, 1331.99 95.22 M824.6 685.01 C944.19 547.43, 1063.79 409.85, 1335.67 97.09 M824.6 685.01 C989.92 494.83, 1155.25 304.65, 1335.67 97.09 M830.24 684.62 C949.62 547.29, 1069 409.96, 1340 98.21 M830.24 684.62 C1026.57 458.77, 1222.9 232.92, 1340 98.21 M835.23 684.98 C952.2 550.42, 1069.18 415.85, 1343.67 100.08 M835.23 684.98 C995.9 500.15, 1156.56 315.32, 1343.67 100.08 M840.87 684.58 C1023.69 474.28, 1206.51 263.97, 1347.35 101.95 M840.87 684.58 C999.85 501.7, 1158.82 318.82, 1347.35 101.95 M846.51 684.19 C965.16 547.71, 1083.8 411.22, 1351.68 103.06 M846.51 684.19 C1015.51 489.78, 1184.51 295.37, 1351.68 103.06 M851.5 684.55 C977.6 539.49, 1103.7 394.43, 1355.36 104.93 M851.5 684.55 C962.22 557.19, 1072.93 429.82, 1355.36 104.93 M857.15 684.15 C966.61 558.23, 1076.07 432.31, 1359.03 106.8 M857.15 684.15 C1020.47 496.27, 1183.79 308.39, 1359.03 106.8 M862.79 683.76 C1004.54 520.7, 1146.29 357.63, 1362.71 108.67 M862.79 683.76 C987.67 540.1, 1112.54 396.45, 1362.71 108.67 M867.78 684.12 C1041.49 484.29, 1215.2 284.46, 1367.04 109.79 M867.78 684.12 C998.34 533.93, 1128.9 383.73, 1367.04 109.79 M873.42 683.73 C1067.68 460.25, 1261.94 236.78, 1370.71 111.66 M873.42 683.73 C986.66 553.45, 1099.91 423.18, 1370.71 111.66 M879.06 683.33 C1023.17 517.56, 1167.27 351.78, 1374.39 113.52 M879.06 683.33 C999.06 545.29, 1119.05 407.25, 1374.39 113.52 M884.7 682.94 C1057.31 484.38, 1229.91 285.82, 1378.06 115.39 M884.7 682.94 C1059.22 482.18, 1233.74 281.42, 1378.06 115.39 M890.35 682.54 C1043.71 506.11, 1197.08 329.69, 1381.74 117.26 M890.35 682.54 C1083.79 460.01, 1277.23 237.49, 1381.74 117.26 M895.99 682.15 C1036.9 520.04, 1177.82 357.94, 1385.41 119.13 M895.99 682.15 C1045.07 510.65, 1194.15 339.15, 1385.41 119.13 M901.63 681.75 C1084.39 471.52, 1267.14 261.28, 1389.09 121 M901.63 681.75 C1081.15 475.24, 1260.67 268.73, 1389.09 121 M907.28 681.36 C1091.76 469.13, 1276.25 256.9, 1392.76 122.87 M907.28 681.36 C1069.28 495, 1231.28 308.63, 1392.76 122.87 M912.92 680.96 C1029.57 546.78, 1146.21 412.59, 1396.44 124.74 M912.92 680.96 C1031.5 544.55, 1150.08 408.14, 1396.44 124.74 M918.56 680.57 C1086.97 486.84, 1255.38 293.1, 1400.11 126.61 M918.56 680.57 C1097.17 475.11, 1275.77 269.65, 1400.11 126.61 M924.21 680.17 C1102.33 475.26, 1280.46 270.35, 1403.79 128.48 M924.21 680.17 C1034.63 553.15, 1145.05 426.13, 1403.79 128.48 M929.85 679.78 C1105.9 477.25, 1281.95 274.73, 1406.8 131.11 M929.85 679.78 C1083.76 502.73, 1237.66 325.68, 1406.8 131.11 M935.49 679.38 C1041.99 556.87, 1148.49 434.36, 1410.48 132.97 M935.49 679.38 C1104.36 485.12, 1273.23 290.86, 1410.48 132.97 M941.14 678.99 C1110.79 483.82, 1280.45 288.65, 1414.15 134.84 M941.14 678.99 C1117.14 476.51, 1293.15 274.04, 1414.15 134.84 M946.78 678.6 C1114.86 485.24, 1282.94 291.88, 1417.83 136.71 M946.78 678.6 C1125.73 472.73, 1304.68 266.87, 1417.83 136.71 M952.42 678.2 C1087.19 523.17, 1221.96 368.13, 1421.5 138.58 M952.42 678.2 C1083.17 527.8, 1213.91 377.39, 1421.5 138.58 M958.06 677.81 C1109.61 503.47, 1261.16 329.14, 1424.52 141.21 M958.06 677.81 C1092.76 522.86, 1227.45 367.92, 1424.52 141.21 M963.71 677.41 C1090.22 531.87, 1216.74 386.33, 1428.2 143.08 M963.71 677.41 C1093.17 528.48, 1222.63 379.55, 1428.2 143.08 M970.01 676.26 C1146.66 473.04, 1323.31 269.83, 1431.87 144.95 M970.01 676.26 C1151.99 466.92, 1333.97 257.57, 1431.87 144.95 M975.65 675.87 C1104.09 528.11, 1232.53 380.36, 1434.89 147.57 M975.65 675.87 C1152.37 472.57, 1329.09 269.28, 1434.89 147.57 M981.29 675.47 C1156.03 474.47, 1330.76 273.46, 1438.57 149.44 M981.29 675.47 C1088.38 552.28, 1195.47 429.09, 1438.57 149.44 M987.59 674.32 C1089.19 557.45, 1190.78 440.58, 1442.24 151.31 M987.59 674.32 C1117.75 524.6, 1247.9 374.87, 1442.24 151.31 M993.23 673.93 C1117.43 531.06, 1241.63 388.18, 1445.26 153.93 M993.23 673.93 C1117.24 531.27, 1241.25 388.62, 1445.26 153.93 M998.88 673.53 C1118.76 535.63, 1238.64 397.72, 1448.93 155.8 M998.88 673.53 C1110.92 544.64, 1222.97 415.75, 1448.93 155.8 M1005.18 672.39 C1098.91 564.56, 1192.63 456.74, 1451.95 158.43 M1005.18 672.39 C1097.26 566.46, 1189.33 460.54, 1451.95 158.43 M1011.48 671.24 C1153.4 507.97, 1295.32 344.71, 1455.63 160.3 M1011.48 671.24 C1107.09 561.25, 1202.7 451.26, 1455.63 160.3 M1017.12 670.84 C1120.89 551.46, 1224.67 432.09, 1458.65 162.92 M1017.12 670.84 C1126.46 545.06, 1235.8 419.28, 1458.65 162.92 M1023.42 669.69 C1173.51 497.03, 1323.61 324.36, 1461.67 165.55 M1023.42 669.69 C1156.72 516.35, 1290.02 363, 1461.67 165.55 M1029.06 669.3 C1202.16 470.17, 1375.25 271.05, 1465.34 167.42 M1029.06 669.3 C1135.39 546.98, 1241.72 424.66, 1465.34 167.42 M1035.36 668.15 C1140.67 547, 1245.99 425.85, 1468.36 170.04 M1035.36 668.15 C1170.11 513.14, 1304.86 358.12, 1468.36 170.04 M1041 667.75 C1144.15 549.1, 1247.29 430.45, 1471.38 172.66 M1041 667.75 C1198.38 486.72, 1355.75 305.68, 1471.38 172.66 M1047.3 666.6 C1209.06 480.53, 1370.81 294.45, 1475.05 174.53 M1047.3 666.6 C1136.47 564.03, 1225.64 461.46, 1475.05 174.53 M1053.6 665.45 C1183.87 515.6, 1314.13 365.75, 1478.07 177.16 M1053.6 665.45 C1143.31 562.26, 1233.01 459.07, 1478.07 177.16 M1059.25 665.06 C1165.61 542.71, 1271.97 420.35, 1481.09 179.78 M1059.25 665.06 C1162.42 546.37, 1265.6 427.67, 1481.09 179.78 M1065.54 663.91 C1166.01 548.34, 1266.47 432.77, 1484.11 182.41 M1065.54 663.91 C1193.28 516.97, 1321.01 370.03, 1484.11 182.41 M1071.84 662.76 C1162.57 558.39, 1253.3 454.02, 1487.13 185.03 M1071.84 662.76 C1173.51 545.8, 1275.19 428.84, 1487.13 185.03 M1078.14 661.61 C1193.12 529.35, 1308.09 397.09, 1490.15 187.65 M1078.14 661.61 C1242.2 472.89, 1406.25 284.17, 1490.15 187.65 M1084.44 660.46 C1239.3 482.31, 1394.17 304.16, 1493.17 190.28 M1084.44 660.46 C1211.53 514.27, 1338.62 368.07, 1493.17 190.28 M1090.08 660.07 C1237.28 490.74, 1384.48 321.4, 1496.19 192.9 M1090.08 660.07 C1239.5 488.19, 1388.92 316.3, 1496.19 192.9 M1096.38 658.92 C1210.61 527.51, 1324.84 396.11, 1499.2 195.53 M1096.38 658.92 C1225.8 510.04, 1355.22 361.16, 1499.2 195.53 M1102.68 657.77 C1193.43 553.38, 1284.18 448.98, 1502.22 198.15 M1102.68 657.77 C1229.95 511.37, 1357.21 364.96, 1502.22 198.15 M1109.64 655.87 C1201.07 550.69, 1292.5 445.51, 1505.24 200.78 M1109.64 655.87 C1200.93 550.85, 1292.21 445.84, 1505.24 200.78 M1115.94 654.72 C1236.92 515.54, 1357.91 376.36, 1508.26 203.4 M1115.94 654.72 C1226.06 528.04, 1336.17 401.36, 1508.26 203.4 M1122.89 652.81 C1265.8 488.42, 1408.7 324.03, 1510.62 206.78 M1122.89 652.81 C1266.68 487.41, 1410.46 322, 1510.62 206.78 M1129.19 651.66 C1221.45 545.53, 1313.71 439.4, 1513.64 209.4 M1129.19 651.66 C1249 513.84, 1368.81 376.02, 1513.64 209.4 M1136.15 649.76 C1285.09 478.42, 1434.02 307.09, 1516.66 212.03 M1136.15 649.76 C1269.15 496.75, 1402.16 343.74, 1516.66 212.03 M1142.45 648.61 C1275.8 495.21, 1409.15 341.8, 1519.02 215.41 M1142.45 648.61 C1291.27 477.41, 1440.09 306.21, 1519.02 215.41 M1148.09 648.22 C1239.18 543.43, 1330.26 438.65, 1522.04 218.03 M1148.09 648.22 C1279.53 497.01, 1410.97 345.8, 1522.04 218.03 M1155.04 646.31 C1295.94 484.23, 1436.83 322.15, 1524.41 221.41 M1155.04 646.31 C1281.27 501.1, 1407.5 355.89, 1524.41 221.41 M1161.34 645.16 C1240.93 553.6, 1320.52 462.04, 1527.42 224.03 M1161.34 645.16 C1248.41 545.01, 1335.47 444.85, 1527.42 224.03 M1168.3 643.26 C1295.2 497.28, 1422.1 351.29, 1529.79 227.41 M1168.3 643.26 C1272.49 523.4, 1376.68 403.54, 1529.79 227.41 M1175.25 641.35 C1265.8 537.19, 1356.35 433.02, 1532.15 230.79 M1175.25 641.35 C1263.14 540.25, 1351.03 439.14, 1532.15 230.79 M1182.21 639.45 C1284.72 521.53, 1387.23 403.6, 1535.17 233.42 M1182.21 639.45 C1322.74 477.79, 1463.26 316.14, 1535.17 233.42 M1188.51 638.3 C1272.88 541.25, 1357.24 444.19, 1537.53 236.79 M1188.51 638.3 C1290.11 521.43, 1391.7 404.55, 1537.53 236.79 M1195.46 636.4 C1307.59 507.41, 1419.72 378.42, 1539.89 240.17 M1195.46 636.4 C1319.99 493.15, 1444.51 349.9, 1539.89 240.17 M1202.42 634.49 C1310.86 509.74, 1419.31 384.99, 1542.26 243.55 M1202.42 634.49 C1291.85 531.61, 1381.28 428.74, 1542.26 243.55 M1209.37 632.59 C1337.03 485.74, 1464.68 338.89, 1544.62 246.93 M1209.37 632.59 C1308.29 518.8, 1407.2 405.01, 1544.62 246.93 M1216.33 630.68 C1339.32 489.2, 1462.31 347.71, 1546.98 250.31 M1216.33 630.68 C1325.4 505.21, 1434.47 379.74, 1546.98 250.31 M1223.28 628.78 C1314.24 524.14, 1405.2 419.5, 1549.35 253.69 M1223.28 628.78 C1302.15 538.05, 1381.02 447.33, 1549.35 253.69 M1230.24 626.88 C1337.89 503.04, 1445.53 379.21, 1551.71 257.07 M1230.24 626.88 C1305.84 539.91, 1381.44 452.94, 1551.71 257.07 M1237.19 624.97 C1313.52 537.17, 1389.85 449.37, 1553.41 261.2 M1237.19 624.97 C1323.13 526.12, 1409.06 427.26, 1553.41 261.2 M1244.81 622.31 C1335.22 518.3, 1425.64 414.29, 1555.78 264.58 M1244.81 622.31 C1369.08 479.35, 1493.36 336.39, 1555.78 264.58 M1251.76 620.41 C1370.29 484.06, 1488.81 347.71, 1557.48 268.71 M1251.76 620.41 C1368.24 486.41, 1484.73 352.41, 1557.48 268.71 M1259.37 617.75 C1370.63 489.76, 1481.89 361.77, 1559.19 272.85 M1259.37 617.75 C1325.43 541.76, 1391.49 465.76, 1559.19 272.85 M1266.33 615.85 C1336.02 535.68, 1405.71 455.5, 1561.55 276.23 M1266.33 615.85 C1382.2 482.55, 1498.08 349.24, 1561.55 276.23 M1273.94 613.19 C1347.92 528.08, 1421.91 442.97, 1563.26 280.36 M1273.94 613.19 C1381.26 489.73, 1488.57 366.28, 1563.26 280.36 M1282.21 609.77 C1339.63 543.72, 1397.05 477.67, 1564.97 284.49 M1282.21 609.77 C1354.5 526.61, 1426.8 443.44, 1564.97 284.49 M1289.82 607.12 C1365.2 520.4, 1440.58 433.68, 1566.02 289.38 M1289.82 607.12 C1373.13 511.28, 1456.44 415.44, 1566.02 289.38 M1297.43 604.46 C1379.52 510.02, 1461.62 415.58, 1567.72 293.52 M1297.43 604.46 C1391.1 496.7, 1484.77 388.94, 1567.72 293.52 M1305.7 601.04 C1384.67 510.19, 1463.65 419.34, 1569.43 297.65 M1305.7 601.04 C1395.17 498.12, 1484.64 395.2, 1569.43 297.65 M1313.96 597.63 C1378.47 523.42, 1442.98 449.21, 1570.48 302.54 M1313.96 597.63 C1408.28 489.13, 1502.59 380.64, 1570.48 302.54 M1321.57 594.97 C1386.68 520.07, 1451.79 445.18, 1571.53 307.43 M1321.57 594.97 C1418.33 483.67, 1515.09 372.36, 1571.53 307.43 M1329.19 592.31 C1416.38 492.01, 1503.57 391.71, 1572.58 312.32 M1329.19 592.31 C1389.59 522.83, 1449.99 453.34, 1572.58 312.32 M1338.11 588.14 C1392.18 525.94, 1446.26 463.73, 1573.63 317.2 M1338.11 588.14 C1391.12 527.16, 1444.14 466.17, 1573.63 317.2 M1345.72 585.49 C1399.37 523.77, 1453.01 462.06, 1574.68 322.09 M1345.72 585.49 C1401.52 521.29, 1457.33 457.1, 1574.68 322.09 M1354.64 581.32 C1427.14 497.93, 1499.63 414.53, 1575.08 327.74 M1354.64 581.32 C1400.87 528.14, 1447.1 474.96, 1575.08 327.74 M1363.57 577.15 C1424.88 506.62, 1486.19 436.09, 1576.13 332.62 M1363.57 577.15 C1413.86 519.3, 1464.15 461.44, 1576.13 332.62 M1371.83 573.74 C1418.66 519.87, 1465.48 466.01, 1576.52 338.27 M1371.83 573.74 C1448.38 485.68, 1524.93 397.62, 1576.52 338.27 M1381.41 568.81 C1425.81 517.74, 1470.22 466.66, 1576.26 344.66 M1381.41 568.81 C1427.32 516.01, 1473.22 463.2, 1576.26 344.66 M1392.31 562.38 C1437.9 509.93, 1483.49 457.49, 1576 351.06 M1392.31 562.38 C1452.46 493.18, 1512.62 423.97, 1576 351.06 M1401.88 557.46 C1463.93 486.08, 1525.97 414.71, 1575.08 358.21 M1401.88 557.46 C1449.7 502.45, 1497.52 447.44, 1575.08 358.21 M1412.12 551.78 C1453.37 504.33, 1494.61 456.88, 1574.17 365.37 M1412.12 551.78 C1469.87 485.34, 1527.63 418.91, 1574.17 365.37 M1423.01 545.35 C1465.8 496.12, 1508.59 446.9, 1573.91 371.77 M1423.01 545.35 C1471.3 489.79, 1519.6 434.24, 1573.91 371.77 M1431.93 541.18 C1482.74 482.73, 1533.55 424.28, 1571.68 380.43 M1431.93 541.18 C1477.13 489.19, 1522.33 437.19, 1571.68 380.43 M1444.14 533.24 C1469.74 503.79, 1495.34 474.34, 1568.13 390.6 M1444.14 533.24 C1488.27 482.47, 1532.41 431.7, 1568.13 390.6 M1457 524.54 C1483.09 494.53, 1509.18 464.51, 1565.9 399.26 M1457 524.54 C1497.06 478.45, 1537.13 432.36, 1565.9 399.26 M1471.83 513.58 C1491.7 490.72, 1511.58 467.85, 1559.08 413.21 M1471.83 513.58 C1497.9 483.59, 1523.98 453.59, 1559.08 413.21 M1490.59 498.09 C1514.7 470.36, 1538.81 442.62, 1551.6 427.9 M1490.59 498.09 C1503.13 483.66, 1515.68 469.23, 1551.6 427.9" stroke="#ffc9c9" stroke-width="0.5" fill="none"></path><path d="M1576 342.63 C1576 347.11, 1575.8 351.6, 1575.39 356.08 C1574.99 360.56, 1574.38 365.04, 1573.57 369.51 C1572.76 373.98, 1571.75 378.45, 1570.54 382.9 C1569.33 387.35, 1567.91 391.8, 1566.3 396.23 C1564.69 400.66, 1562.87 405.07, 1560.86 409.47 C1558.85 413.87, 1556.63 418.25, 1554.23 422.61 C1551.82 426.97, 1549.21 431.32, 1546.41 435.63 C1543.62 439.95, 1540.62 444.24, 1537.43 448.51 C1534.25 452.77, 1530.86 457.01, 1527.29 461.22 C1523.73 465.42, 1519.96 469.6, 1516.02 473.75 C1512.07 477.89, 1507.93 482, 1503.62 486.07 C1499.3 490.15, 1494.79 494.18, 1490.11 498.18 C1485.43 502.17, 1480.57 506.13, 1475.53 510.04 C1470.49 513.96, 1465.27 517.83, 1459.88 521.65 C1454.49 525.47, 1448.93 529.25, 1443.2 532.98 C1437.47 536.71, 1431.57 540.39, 1425.51 544.02 C1419.44 547.65, 1413.21 551.23, 1406.83 554.75 C1400.45 558.27, 1393.9 561.74, 1387.2 565.15 C1380.5 568.56, 1373.65 571.91, 1366.65 575.21 C1359.65 578.5, 1352.49 581.73, 1345.2 584.9 C1337.91 588.07, 1330.47 591.18, 1322.9 594.23 C1315.32 597.27, 1307.61 600.25, 1299.77 603.17 C1291.92 606.08, 1283.94 608.92, 1275.85 611.7 C1267.75 614.48, 1259.52 617.19, 1251.17 619.82 C1242.83 622.46, 1234.36 625.02, 1225.79 627.51 C1217.22 630, 1208.52 632.42, 1199.73 634.77 C1190.94 637.11, 1182.03 639.38, 1173.03 641.57 C1164.04 643.76, 1154.93 645.88, 1145.74 647.91 C1136.56 649.95, 1127.27 651.91, 1117.9 653.78 C1108.54 655.66, 1099.08 657.46, 1089.55 659.18 C1080.03 660.89, 1070.42 662.53, 1060.74 664.08 C1051.07 665.63, 1041.31 667.1, 1031.51 668.49 C1021.7 669.87, 1011.82 671.18, 1001.9 672.39 C991.97 673.61, 981.98 674.74, 971.96 675.79 C961.93 676.84, 951.85 677.8, 941.73 678.67 C931.62 679.55, 921.46 680.34, 911.27 681.04 C901.09 681.74, 890.86 682.36, 880.62 682.88 C870.38 683.41, 860.11 683.85, 849.83 684.2 C839.55 684.55, 829.24 684.82, 818.94 684.99 C808.63 685.17, 798.31 685.26, 788 685.26 C777.69 685.26, 767.37 685.17, 757.06 684.99 C746.76 684.82, 736.45 684.55, 726.17 684.2 C715.89 683.85, 705.62 683.41, 695.38 682.88 C685.14 682.36, 674.91 681.74, 664.73 681.04 C654.54 680.34, 644.38 679.55, 634.27 678.67 C624.15 677.8, 614.07 676.84, 604.05 675.79 C594.02 674.74, 584.03 673.61, 574.1 672.39 C564.18 671.18, 554.3 669.87, 544.49 668.49 C534.69 667.1, 524.93 665.63, 515.26 664.08 C505.58 662.53, 495.97 660.89, 486.45 659.18 C476.92 657.46, 467.46 655.66, 458.1 653.78 C448.73 651.91, 439.44 649.95, 430.26 647.91 C421.07 645.88, 411.96 643.76, 402.97 641.57 C393.97 639.38, 385.06 637.11, 376.27 634.77 C367.48 632.42, 358.79 630, 350.21 627.51 C341.64 625.02, 333.17 622.46, 324.83 619.82 C316.48 617.19, 308.25 614.48, 300.15 611.7 C292.06 608.92, 284.08 606.08, 276.23 603.17 C268.39 600.25, 260.68 597.27, 253.11 594.23 C245.53 591.18, 238.09 588.07, 230.8 584.9 C223.51 581.73, 216.35 578.5, 209.35 575.21 C202.35 571.91, 195.5 568.56, 188.8 565.15 C182.1 561.74, 175.55 558.27, 169.17 554.75 C162.79 551.23, 156.56 547.65, 150.49 544.02 C144.43 540.39, 138.53 536.71, 132.8 532.98 C127.07 529.25, 121.51 525.47, 116.12 521.65 C110.73 517.83, 105.51 513.96, 100.47 510.04 C95.43 506.13, 90.57 502.17, 85.89 498.18 C81.21 494.18, 76.7 490.15, 72.38 486.07 C68.07 482, 63.93 477.89, 59.98 473.75 C56.04 469.6, 52.27 465.42, 48.71 461.22 C45.14 457.01, 41.75 452.77, 38.57 448.51 C35.38 444.24, 32.38 439.95, 29.59 435.63 C26.79 431.32, 24.18 426.97, 21.77 422.61 C19.37 418.25, 17.15 413.87, 15.14 409.47 C13.13 405.07, 11.31 400.66, 9.7 396.23 C8.09 391.8, 6.67 387.35, 5.46 382.9 C4.25 378.45, 3.24 373.98, 2.43 369.51 C1.62 365.04, 1.01 360.56, 0.61 356.08 C0.2 351.6, 0 347.11, 0 342.63 C0 338.14, 0.2 333.66, 0.61 329.18 C1.01 324.7, 1.62 320.22, 2.43 315.75 C3.24 311.28, 4.25 306.81, 5.46 302.36 C6.67 297.9, 8.09 293.46, 9.7 289.03 C11.31 284.6, 13.13 280.18, 15.14 275.79 C17.15 271.39, 19.37 267, 21.77 262.64 C24.18 258.28, 26.79 253.94, 29.59 249.63 C32.38 245.31, 35.38 241.01, 38.57 236.75 C41.75 232.49, 45.14 228.25, 48.71 224.04 C52.27 219.83, 56.04 215.65, 59.98 211.51 C63.93 207.37, 68.07 203.26, 72.38 199.18 C76.7 195.11, 81.21 191.07, 85.89 187.08 C90.57 183.08, 95.43 179.13, 100.47 175.21 C105.51 171.3, 110.73 167.43, 116.12 163.61 C121.51 159.78, 127.07 156, 132.8 152.27 C138.53 148.55, 144.43 144.86, 150.49 141.24 C156.56 137.61, 162.79 134.03, 169.17 130.51 C175.55 126.99, 182.1 123.52, 188.8 120.11 C195.5 116.7, 202.35 113.34, 209.35 110.05 C216.35 106.76, 223.51 103.52, 230.8 100.35 C238.09 97.18, 245.53 94.07, 253.11 91.03 C260.68 87.99, 268.39 85, 276.23 82.09 C284.08 79.18, 292.06 76.33, 300.15 73.56 C308.25 70.78, 316.48 68.07, 324.83 65.44 C333.17 62.8, 341.64 60.23, 350.21 57.74 C358.79 55.25, 367.48 52.83, 376.27 50.49 C385.06 48.15, 393.97 45.88, 402.97 43.69 C411.96 41.5, 421.07 39.38, 430.26 37.34 C439.44 35.31, 448.73 33.35, 458.1 31.47 C467.46 29.6, 476.92 27.8, 486.45 26.08 C495.97 24.37, 505.58 22.73, 515.26 21.18 C524.93 19.63, 534.69 18.16, 544.49 16.77 C554.3 15.38, 564.18 14.08, 574.1 12.86 C584.03 11.65, 594.02 10.51, 604.05 9.47 C614.07 8.42, 624.15 7.46, 634.27 6.58 C644.38 5.71, 654.54 4.92, 664.73 4.22 C674.91 3.52, 685.14 2.9, 695.38 2.37 C705.62 1.85, 715.89 1.41, 726.17 1.06 C736.45 0.7, 746.76 0.44, 757.06 0.26 C767.37 0.09, 777.69 0, 788 0 C798.31 0, 808.63 0.09, 818.94 0.26 C829.24 0.44, 839.55 0.7, 849.83 1.06 C860.11 1.41, 870.38 1.85, 880.62 2.37 C890.86 2.9, 901.09 3.52, 911.27 4.22 C921.46 4.92, 931.62 5.71, 941.73 6.58 C951.85 7.46, 961.93 8.42, 971.96 9.47 C981.98 10.51, 991.97 11.65, 1001.9 12.86 C1011.82 14.08, 1021.7 15.38, 1031.51 16.77 C1041.31 18.16, 1051.07 19.63, 1060.74 21.18 C1070.42 22.73, 1080.03 24.37, 1089.55 26.08 C1099.08 27.8, 1108.54 29.6, 1117.9 31.47 C1127.27 33.35, 1136.56 35.31, 1145.74 37.34 C1154.93 39.38, 1164.04 41.5, 1173.03 43.69 C1182.03 45.88, 1190.94 48.15, 1199.73 50.49 C1208.52 52.83, 1217.22 55.25, 1225.79 57.74 C1234.36 60.23, 1242.83 62.8, 1251.17 65.44 C1259.52 68.07, 1267.75 70.78, 1275.85 73.56 C1283.94 76.33, 1291.92 79.18, 1299.77 82.09 C1307.61 85, 1315.32 87.99, 1322.9 91.03 C1330.47 94.07, 1337.91 97.18, 1345.2 100.35 C1352.49 103.52, 1359.65 106.76, 1366.65 110.05 C1373.65 113.34, 1380.5 116.7, 1387.2 120.11 C1393.9 123.52, 1400.45 126.99, 1406.83 130.51 C1413.21 134.03, 1419.44 137.61, 1425.51 141.24 C1431.57 144.86, 1437.47 148.55, 1443.2 152.27 C1448.93 156, 1454.49 159.78, 1459.88 163.61 C1465.27 167.43, 1470.49 171.3, 1475.53 175.21 C1480.57 179.13, 1485.43 183.08, 1490.11 187.08 C1494.79 191.07, 1499.3 195.11, 1503.62 199.18 C1507.93 203.26, 1512.07 207.37, 1516.02 211.51 C1519.96 215.65, 1523.73 219.83, 1527.29 224.04 C1530.86 228.25, 1534.25 232.49, 1537.43 236.75 C1540.62 241.01, 1543.62 245.31, 1546.41 249.63 C1549.21 253.94, 1551.82 258.28, 1554.23 262.64 C1556.63 267, 1558.85 271.39, 1560.86 275.79 C1562.87 280.18, 1564.69 284.6, 1566.3 289.03 C1567.91 293.46, 1569.33 297.9, 1570.54 302.36 C1571.75 306.81, 1572.76 311.28, 1573.57 315.75 C1574.38 320.22, 1574.99 324.7, 1575.39 329.18 C1575.8 333.66, 1576 338.14, 1576 342.63" stroke="#1e1e1e" stroke-width="1" fill="none"></path></g><g stroke-linecap="round" transform="translate(456.742892020089 189.99998256138412) rotate(0 540.9524100167409 221.1619175502232)"><path d="M29.62 148.98 C29.62 148.98, 29.62 148.98, 29.62 148.98 M29.62 148.98 C29.62 148.98, 29.62 148.98, 29.62 148.98 M13.62 173.49 C26.66 158.48, 39.71 143.47, 60.2 119.9 M13.62 173.49 C23.37 162.26, 33.13 151.03, 60.2 119.9 M6.14 188.19 C22.55 169.3, 38.97 150.42, 73.06 111.21 M6.14 188.19 C25.05 166.43, 43.96 144.68, 73.06 111.21 M3.91 196.85 C29.24 167.71, 54.57 138.57, 86.57 101.76 M3.91 196.85 C24.58 173.07, 45.26 149.28, 86.57 101.76 M2.33 204.76 C29.2 173.85, 56.06 142.95, 97.46 95.32 M2.33 204.76 C29.14 173.92, 55.95 143.07, 97.46 95.32 M0.76 212.66 C36.54 171.5, 72.33 130.33, 108.35 88.89 M0.76 212.66 C31.28 177.56, 61.79 142.46, 108.35 88.89 M0.5 219.06 C45.25 167.59, 89.99 116.11, 118.59 83.21 M0.5 219.06 C38.93 174.85, 77.37 130.63, 118.59 83.21 M0.89 224.7 C29.7 191.57, 58.51 158.43, 127.51 79.04 M0.89 224.7 C47.7 170.86, 94.51 117.02, 127.51 79.04 M1.29 230.35 C54.08 169.62, 106.87 108.89, 136.44 74.88 M1.29 230.35 C41.68 183.88, 82.08 137.41, 136.44 74.88 M1.68 235.99 C31.65 201.52, 61.61 167.05, 145.36 70.71 M1.68 235.99 C36.8 195.6, 71.91 155.2, 145.36 70.71 M2.73 240.88 C43.7 193.75, 84.67 146.62, 153.63 67.3 M2.73 240.88 C35.03 203.72, 67.33 166.57, 153.63 67.3 M3.78 245.77 C57.78 183.65, 111.78 121.53, 161.89 63.88 M3.78 245.77 C38.65 205.66, 73.52 165.55, 161.89 63.88 M4.83 250.66 C66.69 179.49, 128.55 108.33, 170.16 60.47 M4.83 250.66 C55.99 191.81, 107.14 132.96, 170.16 60.47 M6.54 254.79 C47.75 207.39, 88.95 159.99, 177.77 57.81 M6.54 254.79 C55.74 198.19, 104.95 141.59, 177.77 57.81 M8.25 258.92 C70.16 187.71, 132.06 116.49, 185.38 55.15 M8.25 258.92 C70.26 187.59, 132.27 116.25, 185.38 55.15 M9.95 263.06 C77.42 185.45, 144.89 107.84, 193 52.49 M9.95 263.06 C48.52 218.69, 87.09 174.33, 193 52.49 M11.66 267.19 C58.31 213.52, 104.96 159.86, 200.61 49.83 M11.66 267.19 C73.57 195.97, 135.48 124.75, 200.61 49.83 M14.02 270.57 C79.36 195.4, 144.7 120.24, 208.22 47.17 M14.02 270.57 C59.27 218.52, 104.51 166.47, 208.22 47.17 M15.73 274.7 C58.59 225.39, 101.46 176.09, 215.83 44.52 M15.73 274.7 C87.83 191.76, 159.94 108.81, 215.83 44.52 M18.09 278.08 C59.82 230.09, 101.54 182.09, 222.78 42.61 M18.09 278.08 C94.48 190.21, 170.87 102.34, 222.78 42.61 M20.46 281.46 C103.69 185.72, 186.91 89.97, 229.74 40.71 M20.46 281.46 C102.68 186.88, 184.9 92.29, 229.74 40.71 M22.82 284.84 C103.8 191.68, 184.79 98.51, 236.69 38.8 M22.82 284.84 C92.72 204.43, 162.62 124.02, 236.69 38.8 M25.18 288.22 C78.06 227.39, 130.93 166.56, 243.65 36.9 M25.18 288.22 C89.97 213.68, 154.77 139.15, 243.65 36.9 M28.2 290.84 C98.79 209.64, 169.37 128.45, 250.61 35 M28.2 290.84 C109.6 197.2, 191 103.57, 250.61 35 M30.56 294.22 C119.18 192.28, 207.8 90.34, 257.56 33.09 M30.56 294.22 C114.4 197.78, 198.23 101.34, 257.56 33.09 M32.93 297.6 C84.85 237.87, 136.77 178.15, 263.86 31.94 M32.93 297.6 C88.2 234.01, 143.48 170.43, 263.86 31.94 M35.95 300.22 C126.21 196.38, 216.48 92.54, 270.81 30.04 M35.95 300.22 C91.27 236.58, 146.59 172.94, 270.81 30.04 M38.96 302.85 C123.58 205.51, 208.19 108.17, 277.77 28.13 M38.96 302.85 C103.95 228.09, 168.94 153.33, 277.77 28.13 M41.33 306.23 C129.65 204.62, 217.98 103.01, 284.07 26.99 M41.33 306.23 C125.38 209.54, 209.43 112.85, 284.07 26.99 M44.35 308.85 C120.02 221.8, 195.69 134.75, 290.37 25.84 M44.35 308.85 C109.81 233.54, 175.28 158.23, 290.37 25.84 M47.36 311.48 C138.98 206.09, 230.59 100.7, 296.67 24.69 M47.36 311.48 C116.92 231.46, 186.48 151.44, 296.67 24.69 M50.38 314.1 C134.95 216.82, 219.52 119.54, 302.97 23.54 M50.38 314.1 C151.32 197.99, 252.26 81.87, 302.97 23.54 M53.4 316.72 C112.92 248.26, 172.44 179.79, 309.92 21.63 M53.4 316.72 C114.44 246.51, 175.48 176.29, 309.92 21.63 M56.42 319.35 C117.36 249.24, 178.3 179.14, 316.22 20.48 M56.42 319.35 C141.52 221.45, 226.63 123.55, 316.22 20.48 M59.44 321.97 C136.48 233.35, 213.51 144.73, 322.52 19.33 M59.44 321.97 C152.5 214.92, 245.56 107.87, 322.52 19.33 M62.46 324.6 C130.1 246.79, 197.73 168.98, 328.82 18.19 M62.46 324.6 C137.42 238.36, 212.39 152.12, 328.82 18.19 M66.13 326.47 C142.44 238.69, 218.74 150.91, 335.12 17.04 M66.13 326.47 C169.33 207.76, 272.52 89.05, 335.12 17.04 M69.15 329.09 C174.89 207.45, 280.63 85.81, 341.42 15.89 M69.15 329.09 C169.69 213.44, 270.23 97.78, 341.42 15.89 M72.17 331.72 C137.41 256.67, 202.65 181.62, 347.72 14.74 M72.17 331.72 C130.44 264.69, 188.71 197.66, 347.72 14.74 M75.85 333.58 C154.24 243.4, 232.64 153.22, 354.02 13.59 M75.85 333.58 C152.52 245.38, 229.19 157.18, 354.02 13.59 M78.87 336.21 C186.33 212.58, 293.8 88.96, 359.66 13.19 M78.87 336.21 C176.47 223.93, 274.07 111.66, 359.66 13.19 M82.54 338.08 C175.11 231.59, 267.69 125.09, 365.96 12.04 M82.54 338.08 C185.05 220.15, 287.56 102.23, 365.96 12.04 M85.56 340.7 C157.25 258.23, 228.94 175.76, 371.6 11.65 M85.56 340.7 C151.05 265.36, 216.54 190.02, 371.6 11.65 M89.23 342.57 C194.19 221.83, 299.15 101.09, 377.9 10.5 M89.23 342.57 C194.65 221.31, 300.06 100.04, 377.9 10.5 M92.25 345.2 C199.45 221.88, 306.65 98.56, 383.54 10.11 M92.25 345.2 C185.19 238.28, 278.13 131.37, 383.54 10.11 M95.93 347.07 C207.94 218.21, 319.95 89.36, 389.19 9.71 M95.93 347.07 C184.01 245.74, 272.1 144.41, 389.19 9.71 M99.6 348.94 C206.13 226.39, 312.65 103.85, 394.83 9.32 M99.6 348.94 C161 278.3, 222.4 207.67, 394.83 9.32 M103.28 350.81 C168.61 275.64, 233.95 200.48, 401.13 8.17 M103.28 350.81 C209.94 228.11, 316.6 105.41, 401.13 8.17 M106.95 352.67 C182.94 265.26, 258.92 177.85, 406.77 7.77 M106.95 352.67 C200.59 244.96, 294.23 137.24, 406.77 7.77 M109.97 355.3 C189.19 264.16, 268.42 173.03, 412.41 7.38 M109.97 355.3 C172.21 283.7, 234.45 212.11, 412.41 7.38 M113.65 357.17 C226.12 227.78, 338.6 98.39, 418.71 6.23 M113.65 357.17 C228.13 225.47, 342.62 93.77, 418.71 6.23 M117.32 359.04 C223.02 237.45, 328.71 115.86, 424.36 5.83 M117.32 359.04 C205.56 257.53, 293.8 156.02, 424.36 5.83 M121 360.91 C191.4 279.92, 261.81 198.92, 430 5.44 M121 360.91 C234.28 230.59, 347.56 100.27, 430 5.44 M124.67 362.78 C202.18 273.61, 279.69 184.45, 435.64 5.04 M124.67 362.78 C225.26 247.07, 325.84 131.35, 435.64 5.04 M128.35 364.65 C206.93 274.24, 285.52 183.84, 441.94 3.9 M128.35 364.65 C248.33 226.62, 368.32 88.58, 441.94 3.9 M132.02 366.52 C197.77 290.88, 263.52 215.24, 447.58 3.5 M132.02 366.52 C198.63 289.89, 265.24 213.27, 447.58 3.5 M136.35 367.63 C217.19 274.64, 298.03 181.65, 453.23 3.11 M136.35 367.63 C246.05 241.43, 355.75 115.24, 453.23 3.11 M140.03 369.5 C204.26 295.61, 268.49 221.72, 458.87 2.71 M140.03 369.5 C243.3 250.7, 346.57 131.9, 458.87 2.71 M143.7 371.37 C258.53 239.27, 373.36 107.18, 464.51 2.32 M143.7 371.37 C242.12 258.16, 340.53 144.95, 464.51 2.32 M147.38 373.24 C230.27 277.88, 313.17 182.51, 470.16 1.92 M147.38 373.24 C215.85 294.46, 284.33 215.69, 470.16 1.92 M151.71 374.35 C240.36 272.37, 329.01 170.39, 475.14 2.28 M151.71 374.35 C261.78 247.73, 371.86 121.1, 475.14 2.28 M155.38 376.22 C269.66 244.76, 383.95 113.29, 480.79 1.89 M155.38 376.22 C253.85 262.94, 352.33 149.67, 480.79 1.89 M159.06 378.09 C230.11 296.36, 301.16 214.62, 486.43 1.49 M159.06 378.09 C240.72 284.15, 322.39 190.2, 486.43 1.49 M163.39 379.21 C265 262.32, 366.61 145.43, 491.42 1.85 M163.39 379.21 C294.15 228.78, 424.91 78.36, 491.42 1.85 M167.06 381.08 C298.62 229.74, 430.18 78.4, 497.06 1.46 M167.06 381.08 C253.94 281.13, 340.83 181.19, 497.06 1.46 M170.74 382.95 C272.35 266.05, 373.96 149.16, 502.7 1.06 M170.74 382.95 C296.92 237.79, 423.1 92.63, 502.7 1.06 M175.07 384.06 C284.6 258.06, 394.13 132.06, 507.69 1.42 M175.07 384.06 C287.32 254.93, 399.57 125.8, 507.69 1.42 M178.74 385.93 C299.95 246.49, 421.17 107.06, 513.33 1.03 M178.74 385.93 C280.3 269.11, 381.85 152.28, 513.33 1.03 M183.07 387.05 C289.79 264.29, 396.5 141.53, 518.98 0.64 M183.07 387.05 C268.49 288.78, 353.91 190.52, 518.98 0.64 M186.75 388.92 C270.8 292.23, 354.84 195.54, 524.62 0.24 M186.75 388.92 C288.75 271.58, 390.75 154.24, 524.62 0.24 M191.08 390.03 C316.94 245.25, 442.8 100.46, 530.26 -0.15 M191.08 390.03 C300.49 264.17, 409.89 138.32, 530.26 -0.15 M195.41 391.15 C326.07 240.84, 456.74 90.53, 535.25 0.21 M195.41 391.15 C292.21 279.8, 389 168.45, 535.25 0.21 M199.09 393.02 C299.93 277, 400.78 160.99, 540.89 -0.19 M199.09 393.02 C293.98 283.85, 388.88 174.68, 540.89 -0.19 M203.42 394.13 C318.54 261.7, 433.66 129.27, 545.22 0.93 M203.42 394.13 C284.93 300.36, 366.44 206.59, 545.22 0.93 M207.75 395.24 C342.84 239.84, 477.93 84.44, 550.87 0.53 M207.75 395.24 C338.64 244.67, 469.53 94.1, 550.87 0.53 M212.08 396.36 C322.61 269.21, 433.14 142.06, 555.85 0.89 M212.08 396.36 C324 267.61, 435.91 138.87, 555.85 0.89 M215.75 398.23 C343.54 251.23, 471.32 104.23, 561.5 0.5 M215.75 398.23 C327.28 269.94, 438.8 141.64, 561.5 0.5 M220.08 399.34 C325.19 278.43, 430.3 157.52, 567.14 0.1 M220.08 399.34 C353.82 245.49, 487.56 91.64, 567.14 0.1 M224.42 400.46 C302.17 311.01, 379.92 221.57, 572.13 0.46 M224.42 400.46 C334.28 274.07, 444.15 147.68, 572.13 0.46 M228.75 401.57 C330.99 283.96, 433.23 166.35, 577.11 0.82 M228.75 401.57 C310.17 307.91, 391.59 214.25, 577.11 0.82 M233.08 402.69 C357.05 260.08, 481.02 117.47, 582.1 1.18 M233.08 402.69 C304.04 321.05, 375.01 239.41, 582.1 1.18 M236.75 404.56 C326.09 301.79, 415.42 199.03, 587.74 0.79 M236.75 404.56 C364.18 257.97, 491.61 111.38, 587.74 0.79 M241.08 405.67 C333.26 299.63, 425.44 193.59, 592.73 1.15 M241.08 405.67 C365.15 262.95, 489.22 120.23, 592.73 1.15 M245.41 406.79 C384.75 246.5, 524.09 86.21, 597.72 1.51 M245.41 406.79 C330.79 308.58, 416.16 210.37, 597.72 1.51 M249.75 407.9 C334.71 310.16, 419.67 212.42, 602.71 1.87 M249.75 407.9 C376.53 262.06, 503.31 116.21, 602.71 1.87 M254.08 409.02 C351.12 297.39, 448.15 185.76, 607.69 2.23 M254.08 409.02 C330.84 320.72, 407.59 232.41, 607.69 2.23 M258.41 410.13 C359.6 293.72, 460.8 177.31, 612.68 2.59 M258.41 410.13 C380.19 270.03, 501.98 129.93, 612.68 2.59 M262.74 411.25 C368.59 289.48, 474.45 167.7, 618.32 2.19 M262.74 411.25 C337.19 325.6, 411.64 239.95, 618.32 2.19 M267.07 412.36 C406.02 252.52, 544.96 92.68, 623.31 2.55 M267.07 412.36 C357.7 308.1, 448.34 203.84, 623.31 2.55 M272.06 412.72 C350.49 322.49, 428.93 232.26, 628.3 2.91 M272.06 412.72 C349.69 323.42, 427.32 234.12, 628.3 2.91 M276.39 413.84 C364 313.05, 451.62 212.26, 633.28 3.27 M276.39 413.84 C406.86 263.74, 537.33 113.65, 633.28 3.27 M280.72 414.95 C368.38 314.11, 456.04 213.27, 638.27 3.63 M280.72 414.95 C358.63 325.33, 436.53 235.71, 638.27 3.63 M285.05 416.07 C407.56 275.13, 530.08 134.19, 643.26 3.99 M285.05 416.07 C420.54 260.2, 556.04 104.33, 643.26 3.99 M289.38 417.18 C405.58 283.51, 521.79 149.83, 647.59 5.11 M289.38 417.18 C382.91 309.59, 476.43 202, 647.59 5.11 M293.71 418.3 C389.91 307.63, 486.11 196.97, 652.58 5.47 M293.71 418.3 C408.55 286.19, 523.39 154.08, 652.58 5.47 M298.04 419.41 C390.81 312.69, 483.59 205.97, 657.56 5.83 M298.04 419.41 C433.17 263.96, 568.31 108.51, 657.56 5.83 M303.03 419.77 C378.72 332.7, 454.4 245.63, 662.55 6.19 M303.03 419.77 C391.1 318.46, 479.17 217.15, 662.55 6.19 M307.36 420.89 C449.53 257.34, 591.69 93.8, 667.54 6.55 M307.36 420.89 C403.57 310.21, 499.78 199.53, 667.54 6.55 M311.69 422 C403.6 316.27, 495.51 210.54, 672.52 6.91 M311.69 422 C432.14 283.44, 552.59 144.88, 672.52 6.91 M316.68 422.36 C436.27 284.78, 555.87 147.2, 677.51 7.27 M316.68 422.36 C394.73 332.57, 472.78 242.78, 677.51 7.27 M321.01 423.48 C423.64 305.41, 526.27 187.35, 681.84 8.39 M321.01 423.48 C463.11 260.01, 605.2 96.55, 681.84 8.39 M326 423.84 C403.12 335.12, 480.24 246.4, 686.83 8.75 M326 423.84 C463.65 265.48, 601.3 107.13, 686.83 8.75 M330.33 424.95 C432.21 307.75, 534.08 190.55, 691.82 9.11 M330.33 424.95 C460.01 275.77, 589.7 126.58, 691.82 9.11 M334.66 426.07 C419.78 328.14, 504.91 230.22, 696.15 10.22 M334.66 426.07 C442.11 302.46, 549.56 178.85, 696.15 10.22 M339.64 426.43 C421.91 331.78, 504.18 237.14, 701.13 10.58 M339.64 426.43 C480.28 264.65, 620.91 102.87, 701.13 10.58 M343.98 427.54 C466.77 286.28, 589.56 145.03, 706.12 10.94 M343.98 427.54 C479.68 271.43, 615.38 115.32, 706.12 10.94 M348.96 427.9 C421.54 344.41, 494.11 260.93, 710.45 12.06 M348.96 427.9 C483.29 273.38, 617.61 118.86, 710.45 12.06 M353.29 429.01 C467.47 297.67, 581.65 166.33, 715.44 12.42 M353.29 429.01 C426.32 345, 499.35 260.99, 715.44 12.42 M358.28 429.37 C459.27 313.2, 560.27 197.02, 720.43 12.78 M358.28 429.37 C437.92 337.76, 517.56 246.15, 720.43 12.78 M362.61 430.49 C472.67 303.89, 582.72 177.29, 725.41 13.14 M362.61 430.49 C450.53 329.36, 538.44 228.22, 725.41 13.14 M367.6 430.85 C453.74 331.75, 539.89 232.65, 729.74 14.25 M367.6 430.85 C503.06 275.01, 638.53 119.18, 729.74 14.25 M372.59 431.21 C477.95 310, 583.31 188.8, 734.73 14.61 M372.59 431.21 C494.83 290.58, 617.08 149.95, 734.73 14.61 M376.92 432.32 C468.24 327.28, 559.55 222.23, 739.06 15.73 M376.92 432.32 C485.81 307.06, 594.7 181.8, 739.06 15.73 M381.9 432.68 C459.33 343.62, 536.75 254.55, 743.39 16.84 M381.9 432.68 C455.94 347.52, 529.97 262.36, 743.39 16.84 M386.89 433.05 C529.52 268.97, 672.14 104.9, 748.38 17.2 M386.89 433.05 C528.94 269.64, 670.99 106.23, 748.38 17.2 M391.22 434.16 C484.34 327.04, 577.46 219.92, 752.71 18.31 M391.22 434.16 C513.4 293.61, 635.58 153.06, 752.71 18.31 M396.21 434.52 C517.78 294.67, 639.35 154.82, 757.7 18.67 M396.21 434.52 C494.04 321.98, 591.86 209.44, 757.7 18.67 M401.2 434.88 C529 287.86, 656.8 140.84, 762.03 19.79 M401.2 434.88 C512.21 307.18, 623.22 179.47, 762.03 19.79 M406.18 435.24 C495.36 332.65, 584.54 230.07, 767.02 20.15 M406.18 435.24 C507.22 319.01, 608.26 202.78, 767.02 20.15 M410.51 436.35 C513.48 317.9, 616.45 199.45, 771.35 21.26 M410.51 436.35 C504.66 328.05, 598.8 219.75, 771.35 21.26 M415.5 436.72 C521.82 314.41, 628.14 192.1, 775.68 22.38 M415.5 436.72 C557.4 273.47, 699.31 110.23, 775.68 22.38 M420.49 437.08 C557.71 279.22, 694.93 121.37, 780.66 22.74 M420.49 437.08 C500.23 345.34, 579.97 253.61, 780.66 22.74 M425.47 437.44 C550.24 293.91, 675 150.39, 785 23.85 M425.47 437.44 C537.64 308.4, 649.81 179.37, 785 23.85 M430.46 437.8 C509.18 347.24, 587.89 256.69, 789.33 24.97 M430.46 437.8 C570.19 277.06, 709.91 116.33, 789.33 24.97 M434.79 438.91 C530.85 328.41, 626.9 217.92, 793.66 26.08 M434.79 438.91 C563.99 290.28, 693.19 141.66, 793.66 26.08 M440.44 438.52 C557.42 303.94, 674.41 169.36, 797.99 27.2 M440.44 438.52 C526.8 339.16, 613.17 239.81, 797.99 27.2 M445.42 438.88 C524.14 348.32, 602.85 257.77, 802.32 28.31 M445.42 438.88 C584.84 278.49, 724.26 118.11, 802.32 28.31 M450.41 439.24 C550.22 324.41, 650.04 209.59, 807.31 28.67 M450.41 439.24 C532.97 344.26, 615.53 249.29, 807.31 28.67 M455.4 439.6 C586.35 288.95, 717.3 138.31, 811.64 29.79 M455.4 439.6 C556.21 323.62, 657.02 207.65, 811.64 29.79 M460.38 439.96 C531.65 357.97, 602.91 275.99, 815.97 30.9 M460.38 439.96 C563 321.9, 665.62 203.85, 815.97 30.9 M465.37 440.32 C596.38 289.61, 727.39 138.9, 820.3 32.02 M465.37 440.32 C551.53 341.2, 637.69 242.09, 820.3 32.02 M470.36 440.68 C562.99 334.12, 655.61 227.56, 824.63 33.13 M470.36 440.68 C583.67 310.33, 696.97 179.99, 824.63 33.13 M475.35 441.04 C575.73 325.56, 676.11 210.09, 828.96 34.25 M475.35 441.04 C582.19 318.12, 689.04 195.21, 828.96 34.25 M480.33 441.4 C615.62 285.77, 750.9 130.14, 833.29 35.36 M480.33 441.4 C589.07 316.31, 697.8 191.23, 833.29 35.36 M485.98 441 C580.59 332.16, 675.21 223.31, 837.62 36.48 M485.98 441 C563.35 351.99, 640.73 262.98, 837.62 36.48 M490.96 441.36 C608.48 306.17, 726 170.98, 841.95 37.59 M490.96 441.36 C565.68 355.41, 640.4 269.45, 841.95 37.59 M495.95 441.72 C594.16 328.74, 692.38 215.76, 846.28 38.71 M495.95 441.72 C629.7 287.86, 763.45 134, 846.28 38.71 M500.94 442.08 C582.56 348.19, 664.18 254.29, 850.62 39.82 M500.94 442.08 C595.51 333.29, 690.08 224.5, 850.62 39.82 M506.58 441.69 C636.09 292.7, 765.61 143.71, 854.95 40.94 M506.58 441.69 C610.84 321.75, 715.11 201.8, 854.95 40.94 M511.57 442.05 C596.71 344.1, 681.86 246.15, 859.28 42.05 M511.57 442.05 C613.61 324.66, 715.66 207.27, 859.28 42.05 M516.55 442.41 C653.68 284.66, 790.81 126.91, 862.95 43.92 M516.55 442.41 C624.32 318.44, 732.08 194.47, 862.95 43.92 M522.2 442.01 C620 329.5, 717.81 216.98, 867.28 45.04 M522.2 442.01 C650.31 294.63, 778.43 147.25, 867.28 45.04 M527.18 442.37 C631.75 322.08, 736.32 201.78, 871.61 46.15 M527.18 442.37 C624.4 330.54, 721.62 218.7, 871.61 46.15 M532.17 442.73 C639.34 319.45, 746.51 196.17, 875.95 47.27 M532.17 442.73 C659.24 296.55, 786.31 150.37, 875.95 47.27 M537.81 442.34 C621.33 346.26, 704.85 250.19, 879.62 49.14 M537.81 442.34 C641.86 322.65, 745.9 202.97, 879.62 49.14 M542.8 442.7 C624.99 348.15, 707.19 253.59, 883.95 50.25 M542.8 442.7 C621.61 352.04, 700.42 261.38, 883.95 50.25 M548.44 442.3 C638.82 338.34, 729.19 234.38, 888.28 51.36 M548.44 442.3 C682.91 287.61, 817.38 132.92, 888.28 51.36 M553.43 442.66 C631.47 352.89, 709.51 263.11, 891.96 53.23 M553.43 442.66 C646.31 335.82, 739.19 228.98, 891.96 53.23 M559.07 442.27 C631.44 359.02, 703.81 275.76, 896.29 54.35 M559.07 442.27 C626.82 364.34, 694.57 286.4, 896.29 54.35 M564.06 442.63 C694.57 292.49, 825.08 142.36, 899.96 56.22 M564.06 442.63 C663.22 328.56, 762.39 214.48, 899.96 56.22 M569.7 442.24 C648.37 351.74, 727.03 261.25, 904.29 57.33 M569.7 442.24 C667.19 330.09, 764.67 217.95, 904.29 57.33 M575.35 441.84 C665.61 338, 755.87 234.17, 907.97 59.2 M575.35 441.84 C663.71 340.19, 752.07 238.54, 907.97 59.2 M580.33 442.2 C670.15 338.88, 759.96 235.57, 912.3 60.32 M580.33 442.2 C668.27 341.04, 756.21 239.88, 912.3 60.32 M585.98 441.81 C712.66 296.08, 839.34 150.35, 915.97 62.19 M585.98 441.81 C663.32 352.84, 740.65 263.87, 915.97 62.19 M591.62 441.41 C710.77 304.34, 829.93 167.27, 920.31 63.3 M591.62 441.41 C672.48 348.4, 753.33 255.39, 920.31 63.3 M596.61 441.77 C688.06 336.56, 779.52 231.35, 923.98 65.17 M596.61 441.77 C670.77 356.46, 744.93 271.14, 923.98 65.17 M602.25 441.38 C716.47 309.98, 830.7 178.58, 927.66 67.04 M602.25 441.38 C727.74 297.02, 853.23 152.66, 927.66 67.04 M607.89 440.98 C692.02 344.21, 776.14 247.44, 931.99 68.16 M607.89 440.98 C719.37 312.74, 830.85 184.5, 931.99 68.16 M613.54 440.59 C734.18 301.81, 854.82 163.03, 935.66 70.03 M613.54 440.59 C729.95 306.67, 846.36 172.76, 935.66 70.03 M619.18 440.19 C707.11 339.04, 795.04 237.89, 939.34 71.9 M619.18 440.19 C704.02 342.59, 788.87 244.99, 939.34 71.9 M624.82 439.8 C742.52 304.41, 860.21 169.01, 943.01 73.76 M624.82 439.8 C713.08 338.27, 801.33 236.74, 943.01 73.76 M630.47 439.4 C701.2 358.04, 771.93 276.67, 947.34 74.88 M630.47 439.4 C739.65 313.81, 848.83 188.21, 947.34 74.88 M636.11 439.01 C753.4 304.08, 870.7 169.14, 951.02 76.75 M636.11 439.01 C750.82 307.05, 865.54 175.08, 951.02 76.75 M641.75 438.61 C720.71 347.78, 799.67 256.95, 954.69 78.62 M641.75 438.61 C740.04 325.55, 838.32 212.49, 954.69 78.62 M646.74 438.98 C714.06 361.53, 781.38 284.09, 958.37 80.49 M646.74 438.98 C733.8 338.83, 820.85 238.68, 958.37 80.49 M652.38 438.58 C732.1 346.87, 811.82 255.17, 962.04 82.36 M652.38 438.58 C770.55 302.64, 888.72 166.71, 962.04 82.36 M658.68 437.43 C730.15 355.22, 801.61 273, 965.72 84.23 M658.68 437.43 C722.06 364.52, 785.44 291.61, 965.72 84.23 M664.32 437.04 C781.01 302.8, 897.7 168.57, 969.39 86.1 M664.32 437.04 C765.53 320.61, 866.73 204.19, 969.39 86.1 M670.62 435.89 C777.48 312.96, 884.34 190.04, 973.07 87.97 M670.62 435.89 C778.25 312.07, 885.88 188.26, 973.07 87.97 M676.27 435.49 C772.38 324.93, 868.49 214.37, 976.74 89.84 M676.27 435.49 C744.07 357.5, 811.87 279.5, 976.74 89.84 M681.91 435.1 C743.49 364.26, 805.07 293.42, 979.76 92.46 M681.91 435.1 C760.72 344.44, 839.53 253.77, 979.76 92.46 M688.21 433.95 C750.3 362.52, 812.39 291.09, 983.43 94.33 M688.21 433.95 C777.08 331.71, 865.95 229.48, 983.43 94.33 M693.85 433.55 C758.54 359.14, 823.23 284.72, 987.11 96.2 M693.85 433.55 C780.7 333.65, 867.54 233.75, 987.11 96.2 M699.49 433.16 C799.44 318.19, 899.38 203.22, 990.78 98.07 M699.49 433.16 C778.78 341.96, 858.06 250.75, 990.78 98.07 M705.79 432.01 C798.18 325.73, 890.58 219.44, 993.8 100.69 M705.79 432.01 C803.87 319.18, 901.95 206.35, 993.8 100.69 M711.44 431.62 C784.63 347.42, 857.82 263.22, 997.48 102.56 M711.44 431.62 C777.21 355.96, 842.98 280.3, 997.48 102.56 M717.74 430.47 C783.26 355.09, 848.79 279.7, 1000.5 105.19 M717.74 430.47 C806.65 328.19, 895.56 225.9, 1000.5 105.19 M724.03 429.32 C789.8 353.66, 855.57 278, 1004.17 107.06 M724.03 429.32 C819.76 319.2, 915.48 209.08, 1004.17 107.06 M730.33 428.17 C834.51 308.33, 938.68 188.5, 1007.19 109.68 M730.33 428.17 C802.6 345.04, 874.86 261.91, 1007.19 109.68 M735.98 427.77 C794.89 360, 853.8 292.23, 1010.87 111.55 M735.98 427.77 C832.59 316.63, 929.2 205.49, 1010.87 111.55 M742.28 426.62 C844.3 309.26, 946.33 191.89, 1013.88 114.17 M742.28 426.62 C810.19 348.5, 878.1 270.38, 1013.88 114.17 M748.58 425.47 C823.03 339.82, 897.49 254.17, 1016.9 116.8 M748.58 425.47 C823.64 339.12, 898.7 252.78, 1016.9 116.8 M754.87 424.33 C847.75 317.49, 940.62 210.65, 1020.58 118.67 M754.87 424.33 C828.68 339.42, 902.49 254.51, 1020.58 118.67 M761.17 423.18 C854.52 315.79, 947.87 208.4, 1023.6 121.29 M761.17 423.18 C846.1 325.48, 931.03 227.78, 1023.6 121.29 M767.47 422.03 C823.48 357.6, 879.49 293.17, 1026.62 123.92 M767.47 422.03 C862.62 312.57, 957.77 203.12, 1026.62 123.92 M773.77 420.88 C857.92 324.08, 942.06 227.28, 1029.63 126.54 M773.77 420.88 C865.06 315.86, 956.35 210.84, 1029.63 126.54 M780.07 419.73 C879.08 305.84, 978.08 191.94, 1032.65 129.16 M780.07 419.73 C847.66 341.97, 915.25 264.22, 1032.65 129.16 M786.37 418.58 C867.45 325.31, 948.53 232.03, 1035.67 131.79 M786.37 418.58 C843.57 352.78, 900.77 286.97, 1035.67 131.79 M792.67 417.43 C864.53 334.76, 936.39 252.1, 1038.69 134.41 M792.67 417.43 C880.03 316.93, 967.39 216.43, 1038.69 134.41 M798.97 416.28 C852.74 354.42, 906.52 292.56, 1041.71 137.04 M798.97 416.28 C864.11 341.34, 929.26 266.4, 1041.71 137.04 M805.92 414.38 C860.68 351.38, 915.44 288.39, 1044.07 140.42 M805.92 414.38 C885.04 323.36, 964.16 232.34, 1044.07 140.42 M812.22 413.23 C892.77 320.57, 973.32 227.9, 1047.09 143.04 M812.22 413.23 C900.75 311.39, 989.27 209.55, 1047.09 143.04 M819.18 411.32 C892.27 327.24, 965.36 243.16, 1049.45 146.42 M819.18 411.32 C894.73 324.41, 970.28 237.5, 1049.45 146.42 M825.48 410.17 C907.9 315.36, 990.32 220.54, 1052.47 149.04 M825.48 410.17 C901.52 322.7, 977.55 235.23, 1052.47 149.04 M832.43 408.27 C913.57 314.94, 994.7 221.6, 1054.84 152.42 M832.43 408.27 C921.04 306.34, 1009.65 204.41, 1054.84 152.42 M839.39 406.37 C883.82 355.25, 928.26 304.13, 1057.2 155.8 M839.39 406.37 C904.52 331.44, 969.65 256.51, 1057.2 155.8 M846.34 404.46 C927.81 310.74, 1009.28 217.03, 1060.22 158.43 M846.34 404.46 C894.55 349, 942.76 293.54, 1060.22 158.43 M853.3 402.56 C923.65 321.62, 994.01 240.68, 1062.58 161.8 M853.3 402.56 C916.53 329.82, 979.76 257.08, 1062.58 161.8 M860.91 399.9 C916.6 335.84, 972.28 271.78, 1064.94 165.18 M860.91 399.9 C905.37 348.75, 949.83 297.6, 1064.94 165.18 M867.86 397.99 C923.23 334.3, 978.6 270.61, 1066.65 169.32 M867.86 397.99 C938.2 317.08, 1008.54 236.17, 1066.65 169.32 M875.48 395.34 C942.54 318.19, 1009.59 241.05, 1069.01 172.7 M875.48 395.34 C916.37 348.29, 957.26 301.25, 1069.01 172.7 M883.09 392.68 C939.08 328.27, 995.06 263.86, 1070.72 176.83 M883.09 392.68 C946.94 319.22, 1010.79 245.77, 1070.72 176.83 M890.7 390.02 C928.21 346.86, 965.73 303.71, 1073.08 180.21 M890.7 390.02 C957.72 312.91, 1024.75 235.81, 1073.08 180.21 M897.65 388.11 C952.85 324.62, 1008.04 261.12, 1074.79 184.34 M897.65 388.11 C955.1 322.03, 1012.54 255.95, 1074.79 184.34 M905.26 385.46 C948.59 335.62, 991.91 285.78, 1076.5 188.48 M905.26 385.46 C952.36 331.28, 999.45 277.11, 1076.5 188.48 M913.53 382.04 C976.25 309.9, 1038.96 237.76, 1077.55 193.36 M913.53 382.04 C953.73 335.81, 993.92 289.57, 1077.55 193.36 M921.14 379.38 C982.72 308.55, 1044.29 237.71, 1079.25 197.5 M921.14 379.38 C960.5 334.11, 999.86 288.83, 1079.25 197.5 M929.41 375.97 C963.11 337.2, 996.82 298.43, 1080.3 202.39 M929.41 375.97 C962.37 338.05, 995.33 300.13, 1080.3 202.39 M938.99 371.05 C983.54 319.8, 1028.08 268.56, 1080.7 208.03 M938.99 371.05 C971.7 333.42, 1004.41 295.79, 1080.7 208.03 M947.91 366.88 C987.49 321.35, 1027.06 275.83, 1081.75 212.92 M947.91 366.88 C979.61 330.41, 1011.32 293.94, 1081.75 212.92 M956.84 362.71 C985.1 330.19, 1013.37 297.68, 1082.14 218.56 M956.84 362.71 C993.04 321.06, 1029.25 279.41, 1082.14 218.56 M966.42 357.79 C1002.09 316.75, 1037.76 275.72, 1081.88 224.96 M966.42 357.79 C997.51 322.02, 1028.6 286.25, 1081.88 224.96 M976.65 352.11 C1010.18 313.55, 1043.7 274.98, 1081.62 231.36 M976.65 352.11 C1010.03 313.71, 1043.41 275.31, 1081.62 231.36 M986.89 346.43 C1016.79 312.03, 1046.7 277.63, 1080.05 239.26 M986.89 346.43 C1020.54 307.72, 1054.19 269, 1080.05 239.26 M996.47 341.51 C1020.28 314.11, 1044.1 286.71, 1078.47 247.17 M996.47 341.51 C1024.29 309.5, 1052.12 277.49, 1078.47 247.17 M1009.98 332.06 C1025.78 313.89, 1041.58 295.71, 1076.24 255.83 M1009.98 332.06 C1032.17 306.54, 1054.35 281.01, 1076.24 255.83 M1026.78 318.83 C1036.36 307.81, 1045.95 296.78, 1068.11 271.29 M1026.78 318.83 C1035.08 309.29, 1043.37 299.74, 1068.11 271.29" stroke="#b2f2bb" stroke-width="0.5" fill="none"></path><path d="M1081.9 221.16 C1081.9 224.67, 1081.7 228.18, 1081.29 231.69 C1080.88 235.19, 1080.27 238.69, 1079.46 242.18 C1078.64 245.68, 1077.62 249.16, 1076.4 252.64 C1075.18 256.11, 1073.75 259.57, 1072.13 263.02 C1070.51 266.46, 1068.68 269.89, 1066.66 273.3 C1064.63 276.71, 1062.41 280.1, 1059.99 283.47 C1057.58 286.84, 1054.96 290.18, 1052.15 293.5 C1049.35 296.81, 1046.34 300.1, 1043.16 303.36 C1039.97 306.62, 1036.58 309.85, 1033.02 313.04 C1029.46 316.23, 1025.7 319.39, 1021.77 322.5 C1017.84 325.62, 1013.72 328.71, 1009.43 331.74 C1005.14 334.78, 1000.67 337.78, 996.03 340.73 C991.39 343.68, 986.58 346.59, 981.6 349.45 C976.62 352.31, 971.47 355.12, 966.17 357.88 C960.87 360.63, 955.4 363.34, 949.78 365.99 C944.16 368.64, 938.38 371.24, 932.46 373.78 C926.54 376.32, 920.46 378.8, 914.25 381.22 C908.04 383.64, 901.69 386.01, 895.2 388.3 C888.72 390.6, 882.09 392.84, 875.35 395.01 C868.6 397.18, 861.72 399.28, 854.74 401.32 C847.75 403.35, 840.63 405.32, 833.41 407.22 C826.2 409.11, 818.86 410.94, 811.43 412.69 C804 414.45, 796.46 416.13, 788.83 417.74 C781.21 419.35, 773.48 420.88, 765.67 422.34 C757.87 423.8, 749.97 425.18, 742 426.48 C734.04 427.79, 725.99 429.01, 717.88 430.16 C709.77 431.31, 701.59 432.38, 693.36 433.37 C685.12 434.35, 676.82 435.26, 668.49 436.09 C660.15 436.92, 651.75 437.66, 643.33 438.33 C634.9 438.99, 626.43 439.57, 617.94 440.07 C609.45 440.57, 600.91 440.99, 592.37 441.32 C583.83 441.66, 575.26 441.91, 566.69 442.07 C558.12 442.24, 549.53 442.32, 540.95 442.32 C532.37 442.32, 523.78 442.24, 515.21 442.07 C506.64 441.91, 498.07 441.66, 489.53 441.32 C480.99 440.99, 472.46 440.57, 463.97 440.07 C455.47 439.57, 447 438.99, 438.58 438.33 C430.15 437.66, 421.76 436.92, 413.42 436.09 C405.08 435.26, 396.78 434.35, 388.55 433.37 C380.32 432.38, 372.13 431.31, 364.02 430.16 C355.92 429.01, 347.87 427.79, 339.9 426.48 C331.94 425.18, 324.04 423.8, 316.23 422.34 C308.43 420.88, 300.7 419.35, 293.07 417.74 C285.45 416.13, 277.91 414.45, 270.48 412.69 C263.05 410.94, 255.71 409.11, 248.49 407.22 C241.27 405.32, 234.16 403.35, 227.17 401.32 C220.18 399.28, 213.3 397.18, 206.56 395.01 C199.81 392.84, 193.19 390.6, 186.7 388.3 C180.22 386.01, 173.86 383.64, 167.65 381.22 C161.44 378.8, 155.37 376.32, 149.45 373.78 C143.53 371.24, 137.75 368.64, 132.13 365.99 C126.51 363.34, 121.04 360.63, 115.74 357.88 C110.43 355.12, 105.28 352.31, 100.31 349.45 C95.33 346.59, 90.51 343.68, 85.87 340.73 C81.24 337.78, 76.76 334.78, 72.47 331.74 C68.18 328.71, 64.07 325.62, 60.13 322.5 C56.2 319.39, 52.45 316.23, 48.88 313.04 C45.32 309.85, 41.94 306.62, 38.75 303.36 C35.56 300.1, 32.56 296.81, 29.75 293.5 C26.95 290.18, 24.33 286.84, 21.91 283.47 C19.5 280.1, 17.27 276.71, 15.25 273.3 C13.23 269.89, 11.4 266.46, 9.78 263.02 C8.15 259.57, 6.73 256.11, 5.51 252.64 C4.29 249.16, 3.27 245.68, 2.45 242.18 C1.63 238.69, 1.02 235.19, 0.61 231.69 C0.2 228.18, 0 224.67, 0 221.16 C0 217.65, 0.2 214.14, 0.61 210.64 C1.02 207.13, 1.63 203.63, 2.45 200.14 C3.27 196.65, 4.29 193.16, 5.51 189.69 C6.73 186.22, 8.15 182.75, 9.78 179.31 C11.4 175.86, 13.23 172.43, 15.25 169.02 C17.27 165.61, 19.5 162.22, 21.91 158.85 C24.33 155.49, 26.95 152.14, 29.75 148.83 C32.56 145.51, 35.56 142.22, 38.75 138.96 C41.94 135.71, 45.32 132.48, 48.88 129.29 C52.45 126.1, 56.2 122.94, 60.13 119.82 C64.07 116.7, 68.18 113.62, 72.47 110.58 C76.76 107.54, 81.24 104.54, 85.87 101.59 C90.51 98.64, 95.33 95.73, 100.31 92.88 C105.28 90.02, 110.43 87.21, 115.74 84.45 C121.04 81.69, 126.51 78.98, 132.13 76.33 C137.75 73.68, 143.53 71.08, 149.45 68.54 C155.37 66, 161.44 63.52, 167.65 61.1 C173.86 58.68, 180.22 56.32, 186.7 54.02 C193.19 51.72, 199.81 49.49, 206.56 47.32 C213.3 45.15, 220.18 43.04, 227.17 41.01 C234.16 38.97, 241.27 37.01, 248.49 35.11 C255.71 33.21, 263.05 31.38, 270.48 29.63 C277.91 27.88, 285.45 26.19, 293.07 24.59 C300.7 22.98, 308.43 21.44, 316.23 19.99 C324.04 18.53, 331.94 17.15, 339.9 15.84 C347.87 14.54, 355.92 13.31, 364.02 12.16 C372.13 11.02, 380.32 9.95, 388.55 8.96 C396.78 7.97, 405.08 7.06, 413.42 6.23 C421.76 5.41, 430.15 4.66, 438.58 4 C447 3.33, 455.47 2.75, 463.97 2.25 C472.46 1.75, 480.99 1.33, 489.53 1 C498.07 0.67, 506.64 0.42, 515.21 0.25 C523.78 0.08, 532.37 0, 540.95 0 C549.53 0, 558.12 0.08, 566.69 0.25 C575.26 0.42, 583.83 0.67, 592.37 1 C600.91 1.33, 609.45 1.75, 617.94 2.25 C626.43 2.75, 634.9 3.33, 643.33 4 C651.75 4.66, 660.15 5.41, 668.49 6.23 C676.82 7.06, 685.12 7.97, 693.36 8.96 C701.59 9.95, 709.77 11.02, 717.88 12.16 C725.99 13.31, 734.04 14.54, 742 15.84 C749.97 17.15, 757.87 18.53, 765.67 19.99 C773.48 21.44, 781.21 22.98, 788.83 24.59 C796.46 26.19, 804 27.88, 811.43 29.63 C818.86 31.38, 826.2 33.21, 833.41 35.11 C840.63 37.01, 847.75 38.97, 854.74 41.01 C861.72 43.04, 868.6 45.15, 875.35 47.32 C882.09 49.49, 888.72 51.72, 895.2 54.02 C901.69 56.32, 908.04 58.68, 914.25 61.1 C920.46 63.52, 926.54 66, 932.46 68.54 C938.38 71.08, 944.16 73.68, 949.78 76.33 C955.4 78.98, 960.87 81.69, 966.17 84.45 C971.47 87.21, 976.62 90.02, 981.6 92.88 C986.58 95.73, 991.39 98.64, 996.03 101.59 C1000.67 104.54, 1005.14 107.54, 1009.43 110.58 C1013.72 113.62, 1017.84 116.7, 1021.77 119.82 C1025.7 122.94, 1029.46 126.1, 1033.02 129.29 C1036.58 132.48, 1039.97 135.71, 1043.16 138.96 C1046.34 142.22, 1049.35 145.51, 1052.15 148.83 C1054.96 152.14, 1057.58 155.49, 1059.99 158.85 C1062.41 162.22, 1064.63 165.61, 1066.66 169.02 C1068.68 172.43, 1070.51 175.86, 1072.13 179.31 C1073.75 182.75, 1075.18 186.22, 1076.4 189.69 C1077.62 193.16, 1078.64 196.65, 1079.46 200.14 C1080.27 203.63, 1080.88 207.13, 1081.29 210.64 C1081.7 214.14, 1081.9 217.65, 1081.9 221.16" stroke="#1e1e1e" stroke-width="1" fill="none"></path></g><g transform="translate(585.4029523577003 320.2381615048366) rotate(0 418.359375 84)"><text x="0" y="27.0375" font-family="Cascadia, Segoe UI Emoji" font-size="28px" fill="#1e1e1e" text-anchor="start" style="white-space: pre;" direction="ltr" dominant-baseline="alphabetic"></text><text x="0" y="60.6375" font-family="Cascadia, Segoe UI Emoji" font-size="28px" fill="#1e1e1e" text-anchor="start" style="white-space: pre;" direction="ltr" dominant-baseline="alphabetic">BinaryOps (Value Binding): Add/Sub/Mul/..</text><text x="0" y="94.23750000000001" font-family="Cascadia, Segoe UI Emoji" font-size="28px" fill="#1e1e1e" text-anchor="start" style="white-space: pre;" direction="ltr" dominant-baseline="alphabetic">MemoryOps (Value Binding): Alloca/Load/Store/Offset</text><text x="0" y="127.8375" font-family="Cascadia, Segoe UI Emoji" font-size="28px" fill="#1e1e1e" text-anchor="start" style="white-space: pre;" direction="ltr" dominant-baseline="alphabetic">OtherOps (Value Binding): Call</text><text x="0" y="161.4375" font-family="Cascadia, Segoe UI Emoji" font-size="28px" fill="#1e1e1e" text-anchor="start" style="white-space: pre;" direction="ltr" dominant-baseline="alphabetic">TerminatorOps (Terminator): Jmp/Ret/Br</text></g><g transform="translate(860.4986816406253 231.3714198521207) rotate(0 116.01562500000006 21.599999999999994)"><text x="116.015625" y="34.762499999999996" font-family="Cascadia, Segoe UI Emoji" font-size="36px" fill="#1e1e1e" text-anchor="middle" style="white-space: pre;" direction="ltr" dominant-baseline="alphabetic">Instruction</text></g><g stroke-linecap="round" transform="translate(30.723699079240873 279.06669921874993) rotate(0 202.85718645368297 105.23812430245539)"><path d="M405.71 105.24 C405.71 107.86, 405.52 110.49, 405.15 113.1 C404.77 115.72, 404.2 118.33, 403.45 120.92 C402.7 123.52, 401.75 126.1, 400.63 128.66 C399.5 131.21, 398.19 133.75, 396.7 136.26 C395.21 138.76, 393.54 141.25, 391.69 143.69 C389.85 146.13, 387.82 148.54, 385.63 150.9 C383.43 153.26, 381.06 155.59, 378.54 157.86 C376.01 160.13, 373.31 162.35, 370.47 164.52 C367.62 166.69, 364.61 168.8, 361.46 170.85 C358.31 172.9, 355 174.9, 351.56 176.82 C348.12 178.74, 344.54 180.6, 340.84 182.38 C337.13 184.17, 333.29 185.88, 329.34 187.52 C325.39 189.15, 321.31 190.71, 317.13 192.19 C312.96 193.67, 308.66 195.07, 304.29 196.38 C299.91 197.69, 295.43 198.92, 290.87 200.05 C286.32 201.19, 281.67 202.24, 276.97 203.2 C272.27 204.16, 267.48 205.03, 262.65 205.8 C257.82 206.57, 252.92 207.25, 248 207.84 C243.07 208.42, 238.09 208.91, 233.09 209.3 C228.09 209.69, 223.06 209.99, 218.02 210.18 C212.98 210.38, 207.91 210.48, 202.86 210.48 C197.8 210.48, 192.74 210.38, 187.7 210.18 C182.66 209.99, 177.62 209.69, 172.62 209.3 C167.63 208.91, 162.64 208.42, 157.72 207.84 C152.79 207.25, 147.89 206.57, 143.06 205.8 C138.24 205.03, 133.45 204.16, 128.75 203.2 C124.04 202.24, 119.39 201.19, 114.84 200.05 C110.29 198.92, 105.8 197.69, 101.43 196.38 C97.05 195.07, 92.76 193.67, 88.58 192.19 C84.41 190.71, 80.33 189.15, 76.38 187.52 C72.43 185.88, 68.58 184.17, 64.88 182.38 C61.18 180.6, 57.59 178.74, 54.15 176.82 C50.72 174.9, 47.41 172.9, 44.26 170.85 C41.11 168.8, 38.1 166.69, 35.25 164.52 C32.4 162.35, 29.7 160.13, 27.18 157.86 C24.65 155.59, 22.28 153.26, 20.09 150.9 C17.9 148.54, 15.87 146.13, 14.02 143.69 C12.18 141.25, 10.5 138.76, 9.01 136.26 C7.52 133.75, 6.21 131.21, 5.09 128.66 C3.96 126.1, 3.02 123.52, 2.27 120.92 C1.51 118.33, 0.94 115.72, 0.57 113.1 C0.19 110.49, 0 107.86, 0 105.24 C0 102.62, 0.19 99.99, 0.57 97.37 C0.94 94.76, 1.51 92.15, 2.27 89.55 C3.02 86.96, 3.96 84.38, 5.09 81.82 C6.21 79.26, 7.52 76.72, 9.01 74.22 C10.5 71.71, 12.18 69.23, 14.02 66.79 C15.87 64.35, 17.9 61.94, 20.09 59.58 C22.28 57.22, 24.65 54.89, 27.18 52.62 C29.7 50.35, 32.4 48.12, 35.25 45.96 C38.1 43.79, 41.11 41.67, 44.26 39.62 C47.41 37.57, 50.72 35.58, 54.15 33.66 C57.59 31.74, 61.18 29.88, 64.88 28.09 C68.58 26.31, 72.43 24.59, 76.38 22.96 C80.33 21.33, 84.41 19.76, 88.58 18.29 C92.76 16.81, 97.05 15.41, 101.43 14.1 C105.8 12.79, 110.29 11.56, 114.84 10.42 C119.39 9.28, 124.04 8.23, 128.75 7.27 C133.45 6.32, 138.24 5.45, 143.06 4.68 C147.89 3.9, 152.79 3.22, 157.72 2.64 C162.64 2.06, 167.63 1.57, 172.62 1.18 C177.62 0.78, 182.66 0.49, 187.7 0.29 C192.74 0.1, 197.8 0, 202.86 0 C207.91 0, 212.98 0.1, 218.02 0.29 C223.06 0.49, 228.09 0.78, 233.09 1.18 C238.09 1.57, 243.07 2.06, 248 2.64 C252.92 3.22, 257.82 3.9, 262.65 4.68 C267.48 5.45, 272.27 6.32, 276.97 7.27 C281.67 8.23, 286.32 9.28, 290.87 10.42 C295.43 11.56, 299.91 12.79, 304.29 14.1 C308.66 15.41, 312.96 16.81, 317.13 18.29 C321.31 19.76, 325.39 21.33, 329.34 22.96 C333.29 24.59, 337.13 26.31, 340.84 28.09 C344.54 29.88, 348.12 31.74, 351.56 33.66 C355 35.58, 358.31 37.57, 361.46 39.62 C364.61 41.67, 367.62 43.79, 370.47 45.96 C373.31 48.12, 376.01 50.35, 378.54 52.62 C381.06 54.89, 383.43 57.22, 385.63 59.58 C387.82 61.94, 389.85 64.35, 391.69 66.79 C393.54 69.23, 395.21 71.71, 396.7 74.22 C398.19 76.72, 399.5 79.26, 400.63 81.82 C401.75 84.38, 402.7 86.96, 403.45 89.55 C404.2 92.15, 404.77 94.76, 405.15 97.37 C405.52 99.99, 405.71 102.62, 405.71 105.24" stroke="none" stroke-width="0" fill="#a5d8ff"></path><path d="M405.71 105.24 C405.71 107.86, 405.52 110.49, 405.15 113.1 C404.77 115.72, 404.2 118.33, 403.45 120.92 C402.7 123.52, 401.75 126.1, 400.63 128.66 C399.5 131.21, 398.19 133.75, 396.7 136.26 C395.21 138.76, 393.54 141.25, 391.69 143.69 C389.85 146.13, 387.82 148.54, 385.63 150.9 C383.43 153.26, 381.06 155.59, 378.54 157.86 C376.01 160.13, 373.31 162.35, 370.47 164.52 C367.62 166.69, 364.61 168.8, 361.46 170.85 C358.31 172.9, 355 174.9, 351.56 176.82 C348.12 178.74, 344.54 180.6, 340.84 182.38 C337.13 184.17, 333.29 185.88, 329.34 187.52 C325.39 189.15, 321.31 190.71, 317.13 192.19 C312.96 193.67, 308.66 195.07, 304.29 196.38 C299.91 197.69, 295.43 198.92, 290.87 200.05 C286.32 201.19, 281.67 202.24, 276.97 203.2 C272.27 204.16, 267.48 205.03, 262.65 205.8 C257.82 206.57, 252.92 207.25, 248 207.84 C243.07 208.42, 238.09 208.91, 233.09 209.3 C228.09 209.69, 223.06 209.99, 218.02 210.18 C212.98 210.38, 207.91 210.48, 202.86 210.48 C197.8 210.48, 192.74 210.38, 187.7 210.18 C182.66 209.99, 177.62 209.69, 172.62 209.3 C167.63 208.91, 162.64 208.42, 157.72 207.84 C152.79 207.25, 147.89 206.57, 143.06 205.8 C138.24 205.03, 133.45 204.16, 128.75 203.2 C124.04 202.24, 119.39 201.19, 114.84 200.05 C110.29 198.92, 105.8 197.69, 101.43 196.38 C97.05 195.07, 92.76 193.67, 88.58 192.19 C84.41 190.71, 80.33 189.15, 76.38 187.52 C72.43 185.88, 68.58 184.17, 64.88 182.38 C61.18 180.6, 57.59 178.74, 54.15 176.82 C50.72 174.9, 47.41 172.9, 44.26 170.85 C41.11 168.8, 38.1 166.69, 35.25 164.52 C32.4 162.35, 29.7 160.13, 27.18 157.86 C24.65 155.59, 22.28 153.26, 20.09 150.9 C17.9 148.54, 15.87 146.13, 14.02 143.69 C12.18 141.25, 10.5 138.76, 9.01 136.26 C7.52 133.75, 6.21 131.21, 5.09 128.66 C3.96 126.1, 3.02 123.52, 2.27 120.92 C1.51 118.33, 0.94 115.72, 0.57 113.1 C0.19 110.49, 0 107.86, 0 105.24 C0 102.62, 0.19 99.99, 0.57 97.37 C0.94 94.76, 1.51 92.15, 2.27 89.55 C3.02 86.96, 3.96 84.38, 5.09 81.82 C6.21 79.26, 7.52 76.72, 9.01 74.22 C10.5 71.71, 12.18 69.23, 14.02 66.79 C15.87 64.35, 17.9 61.94, 20.09 59.58 C22.28 57.22, 24.65 54.89, 27.18 52.62 C29.7 50.35, 32.4 48.12, 35.25 45.96 C38.1 43.79, 41.11 41.67, 44.26 39.62 C47.41 37.57, 50.72 35.58, 54.15 33.66 C57.59 31.74, 61.18 29.88, 64.88 28.09 C68.58 26.31, 72.43 24.59, 76.38 22.96 C80.33 21.33, 84.41 19.76, 88.58 18.29 C92.76 16.81, 97.05 15.41, 101.43 14.1 C105.8 12.79, 110.29 11.56, 114.84 10.42 C119.39 9.28, 124.04 8.23, 128.75 7.27 C133.45 6.32, 138.24 5.45, 143.06 4.68 C147.89 3.9, 152.79 3.22, 157.72 2.64 C162.64 2.06, 167.63 1.57, 172.62 1.18 C177.62 0.78, 182.66 0.49, 187.7 0.29 C192.74 0.1, 197.8 0, 202.86 0 C207.91 0, 212.98 0.1, 218.02 0.29 C223.06 0.49, 228.09 0.78, 233.09 1.18 C238.09 1.57, 243.07 2.06, 248 2.64 C252.92 3.22, 257.82 3.9, 262.65 4.68 C267.48 5.45, 272.27 6.32, 276.97 7.27 C281.67 8.23, 286.32 9.28, 290.87 10.42 C295.43 11.56, 299.91 12.79, 304.29 14.1 C308.66 15.41, 312.96 16.81, 317.13 18.29 C321.31 19.76, 325.39 21.33, 329.34 22.96 C333.29 24.59, 337.13 26.31, 340.84 28.09 C344.54 29.88, 348.12 31.74, 351.56 33.66 C355 35.58, 358.31 37.57, 361.46 39.62 C364.61 41.67, 367.62 43.79, 370.47 45.96 C373.31 48.12, 376.01 50.35, 378.54 52.62 C381.06 54.89, 383.43 57.22, 385.63 59.58 C387.82 61.94, 389.85 64.35, 391.69 66.79 C393.54 69.23, 395.21 71.71, 396.7 74.22 C398.19 76.72, 399.5 79.26, 400.63 81.82 C401.75 84.38, 402.7 86.96, 403.45 89.55 C404.2 92.15, 404.77 94.76, 405.15 97.37 C405.52 99.99, 405.71 102.62, 405.71 105.24" stroke="#1e1e1e" stroke-width="1" fill="none"></path></g><g transform="translate(134.8440534319194 297.0858014787947) rotate(0 84.375 43.19999999999999)"><text x="84.375" y="34.762499999999996" font-family="Cascadia, Segoe UI Emoji" font-size="36px" fill="#1e1e1e" text-anchor="middle" style="white-space: pre;" direction="ltr" dominant-baseline="alphabetic">Constant</text><text x="84.375" y="77.96249999999999" font-family="Cascadia, Segoe UI Emoji" font-size="36px" fill="#1e1e1e" text-anchor="middle" style="white-space: pre;" direction="ltr" dominant-baseline="alphabetic"></text></g><g transform="translate(708.3132289341515 77.65723470052097) rotate(0 52.734375 21.599999999999994)"><text x="52.734375" y="34.762499999999996" font-family="Cascadia, Segoe UI Emoji" font-size="36px" fill="#1e1e1e" text-anchor="middle" style="white-space: pre;" direction="ltr" dominant-baseline="alphabetic">Value</text></g><g transform="translate(129.2285644531247 378.0666695731027) rotate(0 98.4375 33.60000000000002)"><text x="0" y="27.0375" font-family="Cascadia, Segoe UI Emoji" font-size="28px" fill="#1e1e1e" text-anchor="start" style="white-space: pre;" direction="ltr" dominant-baseline="alphabetic">ConstantInt</text><text x="0" y="60.6375" font-family="Cascadia, Segoe UI Emoji" font-size="28px" fill="#1e1e1e" text-anchor="start" style="white-space: pre;" direction="ltr" dominant-baseline="alphabetic">ConstantUnit</text></g></svg>