<svg version="1.1" xmlns="http://www.w3.org/2000/svg" viewBox="0 0 1593.9048549107142 556.1905343191963" width="1593.9048549107142" height="556.1905343191963">
  <!-- svg-source:excalidraw -->
  
  <defs>
    <style class="style-fonts">
      @font-face {
        font-family: "Virgil";
        src: url("https://excalidraw.com/Virgil.woff2");
      }
      @font-face {
        font-family: "Cascadia";
        src: url("https://excalidraw.com/Cascadia.woff2");
      }
      @font-face {
        font-family: "Assistant";
        src: url("https://excalidraw.com/Assistant-Regular.woff2");
      }
    </style>
    
  </defs>
  <rect x="0" y="0" width="1593.9048549107142" height="556.1905343191963" fill="#ffffff"></rect><g stroke-linecap="round" transform="translate(10 25.80955287388386) rotate(0 528.5714285714284 253.33334786551342)"><path d="M38.06 158.96 C38.06 158.96, 38.06 158.96, 38.06 158.96 M38.06 158.96 C38.06 158.96, 38.06 158.96, 38.06 158.96 M19.42 186.49 C39.83 163.01, 60.24 139.53, 71.25 126.86 M19.42 186.49 C36.12 167.28, 52.81 148.08, 71.25 126.86 M12.6 200.43 C28.88 181.71, 45.15 162.99, 87.39 114.39 M12.6 200.43 C34.89 174.79, 57.17 149.16, 87.39 114.39 M7.09 212.87 C28.5 188.25, 49.9 163.62, 100.91 104.94 M7.09 212.87 C34.74 181.06, 62.39 149.25, 100.91 104.94 M4.86 221.53 C27.4 195.6, 49.94 169.68, 113.11 97 M4.86 221.53 C42.36 178.39, 79.86 135.25, 113.11 97 M3.29 229.44 C48.54 177.38, 93.79 125.33, 124 90.57 M3.29 229.44 C30.98 197.58, 58.68 165.72, 124 90.57 M1.72 237.34 C28.39 206.66, 55.06 175.98, 134.24 84.89 M1.72 237.34 C40.21 193.06, 78.71 148.77, 134.24 84.89 M0.8 244.5 C49.24 188.77, 97.68 133.04, 143.82 79.97 M0.8 244.5 C54.42 182.82, 108.03 121.14, 143.82 79.97 M0.54 250.89 C36.81 209.16, 73.09 167.43, 152.74 75.8 M0.54 250.89 C39.29 206.32, 78.04 161.74, 152.74 75.8 M0.93 256.54 C45 205.84, 89.07 155.14, 162.32 70.88 M0.93 256.54 C58.44 190.38, 115.95 124.23, 162.32 70.88 M1.33 262.18 C62.17 192.19, 123.01 122.19, 170.59 67.46 M1.33 262.18 C67.29 186.29, 133.26 110.4, 170.59 67.46 M1.06 268.58 C50.78 211.39, 100.5 154.19, 178.86 64.05 M1.06 268.58 C50.05 212.23, 99.03 155.88, 178.86 64.05 M2.11 273.47 C58.19 208.96, 114.26 144.46, 187.12 60.64 M2.11 273.47 C71.22 193.98, 140.32 114.48, 187.12 60.64 M3.17 278.35 C62.48 210.12, 121.8 141.88, 195.39 57.22 M3.17 278.35 C43.69 231.74, 84.21 185.12, 195.39 57.22 M4.22 283.24 C45.32 235.96, 86.41 188.69, 203.66 53.81 M4.22 283.24 C66.04 212.12, 127.87 141, 203.66 53.81 M5.27 288.13 C58.52 226.87, 111.78 165.61, 211.27 51.15 M5.27 288.13 C70.59 212.98, 135.92 137.83, 211.27 51.15 M6.32 293.02 C71.09 218.51, 135.86 144, 219.54 47.74 M6.32 293.02 C55.34 236.63, 104.36 180.24, 219.54 47.74 M8.02 297.15 C68.25 227.88, 128.47 158.6, 225.84 46.59 M8.02 297.15 C79.01 215.5, 149.99 133.84, 225.84 46.59 M9.73 301.29 C61.17 242.11, 112.62 182.93, 233.45 43.93 M9.73 301.29 C97.09 200.79, 184.45 100.29, 233.45 43.93 M11.44 305.42 C70.67 237.28, 129.91 169.13, 241.06 41.27 M11.44 305.42 C67.74 240.66, 124.04 175.89, 241.06 41.27 M13.14 309.55 C87.76 223.72, 162.37 137.89, 248.67 38.61 M13.14 309.55 C101.6 207.8, 190.06 106.04, 248.67 38.61 M15.51 312.93 C98.8 217.11, 182.1 121.29, 255.62 36.71 M15.51 312.93 C77.84 241.23, 140.17 169.53, 255.62 36.71 M17.21 317.07 C89.59 233.81, 161.96 150.56, 262.58 34.81 M17.21 317.07 C114.26 205.43, 211.31 93.79, 262.58 34.81 M19.58 320.45 C78.47 252.69, 137.37 184.94, 269.54 32.9 M19.58 320.45 C77.13 254.24, 134.68 188.04, 269.54 32.9 M21.28 324.58 C121.71 209.05, 222.14 93.52, 276.49 31 M21.28 324.58 C120.11 210.89, 218.95 97.2, 276.49 31 M23.65 327.96 C92.48 248.77, 161.32 169.59, 283.45 29.09 M23.65 327.96 C126.24 209.94, 228.82 91.93, 283.45 29.09 M26.01 331.34 C89.3 258.53, 152.59 185.73, 289.74 27.94 M26.01 331.34 C108.9 235.98, 191.8 140.62, 289.74 27.94 M28.37 334.72 C115.34 234.67, 202.3 134.63, 296.7 26.04 M28.37 334.72 C100.23 252.06, 172.08 169.4, 296.7 26.04 M30.73 338.1 C128.83 225.25, 226.92 112.41, 303 24.89 M30.73 338.1 C103.35 254.56, 175.97 171.02, 303 24.89 M33.1 341.47 C129.98 230.03, 226.85 118.58, 309.3 23.74 M33.1 341.47 C126.95 233.51, 220.8 125.54, 309.3 23.74 M35.46 344.85 C113.76 254.78, 192.06 164.7, 316.25 21.84 M35.46 344.85 C136.86 228.2, 238.26 111.56, 316.25 21.84 M38.48 347.48 C104.1 271.99, 169.72 196.5, 322.55 20.69 M38.48 347.48 C145.95 223.84, 253.43 100.21, 322.55 20.69 M40.84 350.86 C103.77 278.46, 166.7 206.07, 328.85 19.54 M40.84 350.86 C110.17 271.11, 179.5 191.35, 328.85 19.54 M43.86 353.48 C131.27 252.92, 218.69 152.37, 335.81 17.63 M43.86 353.48 C139.43 243.54, 235 133.61, 335.81 17.63 M46.22 356.86 C105.54 288.62, 164.86 220.38, 342.11 16.49 M46.22 356.86 C157.25 229.14, 268.27 101.42, 342.11 16.49 M49.24 359.48 C120.73 277.25, 192.22 195.01, 348.41 15.34 M49.24 359.48 C111.28 288.11, 173.32 216.74, 348.41 15.34 M51.6 362.86 C156.02 242.74, 260.44 122.62, 354.7 14.19 M51.6 362.86 C161.02 236.99, 270.44 111.12, 354.7 14.19 M54.62 365.49 C171.12 231.47, 287.62 97.45, 360.35 13.79 M54.62 365.49 C120.52 289.69, 186.41 213.89, 360.35 13.79 M57.64 368.11 C171.58 237.05, 285.51 105.98, 366.65 12.64 M57.64 368.11 C125.89 289.6, 194.15 211.08, 366.65 12.64 M60.66 370.74 C124.86 296.88, 189.06 223.03, 372.95 11.49 M60.66 370.74 C131.07 289.74, 201.47 208.75, 372.95 11.49 M63.68 373.36 C155.09 268.2, 246.5 163.05, 379.24 10.34 M63.68 373.36 C159.71 262.89, 255.75 152.41, 379.24 10.34 M66.7 375.98 C143.32 287.84, 219.94 199.7, 384.89 9.95 M66.7 375.98 C158.13 270.8, 249.57 165.62, 384.89 9.95 M69.72 378.61 C173.15 259.62, 276.58 140.63, 390.53 9.56 M69.72 378.61 C193.98 235.66, 318.24 92.72, 390.53 9.56 M72.74 381.23 C190.54 245.72, 308.34 110.21, 396.83 8.41 M72.74 381.23 C179.05 258.93, 285.37 136.63, 396.83 8.41 M75.76 383.86 C200.03 240.9, 324.3 97.93, 402.47 8.01 M75.76 383.86 C197.44 243.87, 319.13 103.88, 402.47 8.01 M78.77 386.48 C177.37 273.07, 275.96 159.65, 408.77 6.86 M78.77 386.48 C161.55 291.26, 244.33 196.03, 408.77 6.86 M81.79 389.1 C206.68 245.44, 331.56 101.78, 414.42 6.47 M81.79 389.1 C211.13 240.32, 340.47 91.53, 414.42 6.47 M85.47 390.97 C192.63 267.7, 299.79 144.43, 420.06 6.07 M85.47 390.97 C164.32 300.27, 243.17 209.56, 420.06 6.07 M88.49 393.6 C195.92 270.01, 303.35 146.42, 426.36 4.92 M88.49 393.6 C187.2 280.04, 285.91 166.49, 426.36 4.92 M91.51 396.22 C210.7 259.11, 329.89 121.99, 432 4.53 M91.51 396.22 C172.88 302.62, 254.25 209.01, 432 4.53 M95.18 398.09 C169.39 312.72, 243.6 227.35, 437.64 4.13 M95.18 398.09 C220.07 254.43, 344.95 110.76, 437.64 4.13 M98.2 400.72 C187.44 298.06, 276.67 195.41, 443.29 3.74 M98.2 400.72 C199.59 284.08, 300.99 167.43, 443.29 3.74 M101.87 402.59 C233.35 251.34, 364.83 100.1, 448.93 3.34 M101.87 402.59 C176.56 316.68, 251.24 230.76, 448.93 3.34 M104.89 405.21 C232.46 258.47, 360.02 111.72, 454.57 2.95 M104.89 405.21 C178.25 320.82, 251.61 236.43, 454.57 2.95 M108.57 407.08 C217.58 281.67, 326.6 156.26, 460.22 2.56 M108.57 407.08 C206.71 294.19, 304.84 181.29, 460.22 2.56 M112.24 408.95 C231.07 272.25, 349.9 135.55, 465.86 2.16 M112.24 408.95 C208.79 297.88, 305.34 186.82, 465.86 2.16 M115.26 411.57 C191.61 323.74, 267.97 235.91, 471.5 1.77 M115.26 411.57 C228.65 281.14, 342.04 150.7, 471.5 1.77 M118.94 413.44 C222.14 294.72, 325.34 176, 477.15 1.37 M118.94 413.44 C242.97 270.75, 367.01 128.07, 477.15 1.37 M122.61 415.31 C228.6 293.38, 334.6 171.45, 482.79 0.98 M122.61 415.31 C238.34 282.18, 354.07 149.05, 482.79 0.98 M125.63 417.94 C228.93 299.11, 332.23 180.27, 487.78 1.34 M125.63 417.94 C259.19 264.3, 392.74 110.66, 487.78 1.34 M129.31 419.81 C220.63 314.75, 311.96 209.69, 493.42 0.94 M129.31 419.81 C203.3 334.68, 277.3 249.56, 493.42 0.94 M132.98 421.68 C220.88 320.56, 308.78 219.44, 499.06 0.55 M132.98 421.68 C226.86 313.68, 320.73 205.69, 499.06 0.55 M136.66 423.55 C277.49 261.53, 418.33 99.51, 504.05 0.91 M136.66 423.55 C248.95 294.37, 361.24 165.19, 504.05 0.91 M140.33 425.42 C219.3 334.57, 298.28 243.72, 509.69 0.51 M140.33 425.42 C214.8 339.75, 289.27 254.08, 509.69 0.51 M144.01 427.28 C251.38 303.76, 358.76 180.24, 514.68 0.87 M144.01 427.28 C254.01 300.74, 364.01 174.2, 514.68 0.87 M147.68 429.15 C265.4 293.73, 383.12 158.31, 520.32 0.48 M147.68 429.15 C286.79 269.13, 425.89 109.11, 520.32 0.48 M151.35 431.02 C288.26 273.54, 425.16 116.05, 525.31 0.84 M151.35 431.02 C252.82 314.3, 354.28 197.58, 525.31 0.84 M155.03 432.89 C231.86 344.51, 308.68 256.14, 530.95 0.44 M155.03 432.89 C236.61 339.05, 318.19 245.2, 530.95 0.44 M158.7 434.76 C274.82 301.19, 390.94 167.61, 536.59 0.05 M158.7 434.76 C253.42 325.8, 348.14 216.84, 536.59 0.05 M162.38 436.63 C308.61 268.41, 454.84 100.2, 541.58 0.41 M162.38 436.63 C296.94 281.84, 431.5 127.04, 541.58 0.41 M166.71 437.75 C245.24 347.41, 323.77 257.07, 547.22 0.02 M166.71 437.75 C274.25 314.04, 381.79 190.33, 547.22 0.02 M170.39 439.62 C290.48 301.46, 410.58 163.31, 552.21 0.38 M170.39 439.62 C279.39 314.22, 388.39 188.83, 552.21 0.38 M174.06 441.49 C271.75 329.11, 369.44 216.73, 557.2 0.74 M174.06 441.49 C304.96 290.9, 435.86 140.32, 557.2 0.74 M177.74 443.36 C290.91 313.16, 404.08 182.97, 562.19 1.1 M177.74 443.36 C286.96 317.7, 396.19 192.05, 562.19 1.1 M182.07 444.47 C275.68 336.79, 369.28 229.1, 567.17 1.46 M182.07 444.47 C270.17 343.12, 358.26 241.78, 567.17 1.46 M185.74 446.34 C331.39 278.8, 477.03 111.25, 572.16 1.82 M185.74 446.34 C302.65 311.86, 419.55 177.37, 572.16 1.82 M189.42 448.21 C290.06 332.43, 390.71 216.65, 577.8 1.42 M189.42 448.21 C294.87 326.9, 400.33 205.59, 577.8 1.42 M193.75 449.32 C295.79 331.94, 397.83 214.56, 582.79 1.78 M193.75 449.32 C298.44 328.89, 403.12 208.46, 582.79 1.78 M197.42 451.19 C349.68 276.04, 501.93 100.89, 587.78 2.14 M197.42 451.19 C284.88 350.59, 372.33 249.98, 587.78 2.14 M201.75 452.31 C357.81 272.78, 513.88 93.25, 592.76 2.5 M201.75 452.31 C353.73 277.47, 505.71 102.64, 592.76 2.5 M205.43 454.18 C292.18 354.38, 378.94 254.58, 597.75 2.86 M205.43 454.18 C349.42 288.54, 493.4 122.9, 597.75 2.86 M209.76 455.29 C321.73 326.48, 433.71 197.67, 603.39 2.47 M209.76 455.29 C305.33 345.35, 400.9 235.41, 603.39 2.47 M213.43 457.16 C345.98 304.69, 478.53 152.21, 607.73 3.58 M213.43 457.16 C295.33 362.96, 377.22 268.75, 607.73 3.58 M217.76 458.28 C361.44 292.99, 505.12 127.71, 612.71 3.94 M217.76 458.28 C332.08 326.78, 446.39 195.27, 612.71 3.94 M221.44 460.15 C307.56 361.08, 393.68 262, 617.7 4.3 M221.44 460.15 C371.98 286.97, 522.51 113.8, 617.7 4.3 M225.77 461.26 C357.16 310.11, 488.56 158.96, 622.69 4.66 M225.77 461.26 C369.94 295.42, 514.11 129.57, 622.69 4.66 M230.1 462.38 C367.38 304.46, 504.66 146.54, 627.67 5.02 M230.1 462.38 C366.86 305.05, 503.62 147.73, 627.67 5.02 M233.78 464.25 C324.94 359.38, 416.1 254.51, 632.66 5.38 M233.78 464.25 C383.48 292.04, 533.18 119.83, 632.66 5.38 M238.11 465.36 C357.61 327.89, 477.12 190.41, 637.65 5.74 M238.11 465.36 C352.74 333.49, 467.37 201.62, 637.65 5.74 M242.44 466.48 C381.35 306.68, 520.26 146.88, 642.63 6.1 M242.44 466.48 C327.84 368.24, 413.23 270, 642.63 6.1 M246.77 467.59 C349.34 349.6, 451.91 231.61, 646.97 7.22 M246.77 467.59 C335.68 365.31, 424.6 263.02, 646.97 7.22 M250.44 469.46 C381.32 318.9, 512.2 168.34, 651.95 7.58 M250.44 469.46 C347.52 357.79, 444.59 246.12, 651.95 7.58 M254.77 470.57 C372.53 335.11, 490.29 199.64, 656.94 7.94 M254.77 470.57 C371.34 336.49, 487.9 202.4, 656.94 7.94 M259.11 471.69 C360.94 354.54, 462.77 237.4, 661.93 8.3 M259.11 471.69 C340.19 378.41, 421.28 285.13, 661.93 8.3 M263.44 472.8 C377.45 341.64, 491.47 210.48, 666.26 9.41 M263.44 472.8 C366.77 353.94, 470.1 235.07, 666.26 9.41 M267.77 473.92 C414.52 305.11, 561.26 136.29, 671.24 9.77 M267.77 473.92 C392.59 330.32, 517.42 186.73, 671.24 9.77 M272.1 475.03 C433.68 289.15, 595.27 103.27, 676.23 10.13 M272.1 475.03 C359.15 374.89, 446.21 274.74, 676.23 10.13 M276.43 476.15 C415.14 316.58, 553.86 157.01, 680.56 11.25 M276.43 476.15 C421.9 308.8, 567.38 141.45, 680.56 11.25 M280.76 477.26 C367.55 377.42, 454.35 277.58, 685.55 11.61 M280.76 477.26 C396.64 343.96, 512.52 210.65, 685.55 11.61 M285.09 478.38 C375.91 373.9, 466.74 269.42, 689.88 12.72 M285.09 478.38 C375.61 374.25, 466.12 270.13, 689.88 12.72 M289.42 479.49 C450.19 294.56, 610.95 109.62, 694.87 13.08 M289.42 479.49 C417.3 332.38, 545.18 185.27, 694.87 13.08 M293.75 480.61 C410.74 346.04, 527.72 211.46, 699.2 14.2 M293.75 480.61 C434.6 318.58, 575.45 156.55, 699.2 14.2 M298.08 481.72 C385.1 381.63, 472.11 281.53, 704.19 14.56 M298.08 481.72 C450.66 306.21, 603.23 130.7, 704.19 14.56 M302.42 482.84 C450.87 312.06, 599.33 141.27, 708.52 15.67 M302.42 482.84 C405.96 363.72, 509.51 244.6, 708.52 15.67 M306.75 483.95 C402.02 374.35, 497.3 264.75, 713.5 16.03 M306.75 483.95 C415.18 359.22, 523.61 234.48, 713.5 16.03 M311.73 484.31 C447.29 328.38, 582.84 172.44, 717.83 17.15 M311.73 484.31 C411.87 369.11, 512.02 253.91, 717.83 17.15 M316.06 485.43 C406 381.97, 495.93 278.52, 722.16 18.26 M316.06 485.43 C402.99 385.43, 489.92 285.43, 722.16 18.26 M320.4 486.54 C409.85 383.63, 499.31 280.72, 727.15 18.62 M320.4 486.54 C442.02 346.63, 563.64 206.72, 727.15 18.62 M324.73 487.66 C422.09 375.66, 519.45 263.65, 731.48 19.74 M324.73 487.66 C475.5 314.21, 626.28 140.76, 731.48 19.74 M329.71 488.02 C451.2 348.26, 572.68 208.51, 735.81 20.85 M329.71 488.02 C478.17 317.24, 626.63 146.46, 735.81 20.85 M334.04 489.13 C476.12 325.69, 618.2 162.25, 740.14 21.97 M334.04 489.13 C462.2 341.7, 590.36 194.27, 740.14 21.97 M338.38 490.25 C499.07 305.39, 659.77 120.53, 745.13 22.33 M338.38 490.25 C450.71 361.02, 563.05 231.78, 745.13 22.33 M343.36 490.61 C470.58 344.26, 597.79 197.92, 749.46 23.44 M343.36 490.61 C487.31 325.01, 631.26 159.42, 749.46 23.44 M347.69 491.72 C501.9 314.33, 656.1 136.94, 753.79 24.56 M347.69 491.72 C444.07 380.85, 540.45 269.98, 753.79 24.56 M352.02 492.84 C469.12 358.13, 586.22 223.43, 758.12 25.67 M352.02 492.84 C441.19 390.26, 530.36 287.69, 758.12 25.67 M357.01 493.2 C467.94 365.59, 578.86 237.99, 762.46 26.79 M357.01 493.2 C491.63 338.34, 626.25 183.48, 762.46 26.79 M362 493.56 C496.73 338.57, 631.46 183.58, 767.44 27.15 M362 493.56 C511.89 321.13, 661.78 148.69, 767.44 27.15 M366.33 494.67 C506.23 333.74, 646.13 172.8, 771.12 29.02 M366.33 494.67 C455.33 392.29, 544.34 289.9, 771.12 29.02 M371.32 495.03 C492.87 355.2, 614.43 215.37, 775.45 30.13 M371.32 495.03 C488.61 360.1, 605.91 225.16, 775.45 30.13 M375.65 496.15 C461.78 397.06, 547.91 297.98, 779.78 31.25 M375.65 496.15 C471.44 385.95, 567.24 275.75, 779.78 31.25 M379.98 497.26 C520.56 335.54, 661.13 173.83, 784.11 32.36 M379.98 497.26 C538.86 314.49, 697.74 131.72, 784.11 32.36 M384.97 497.62 C522.93 338.91, 660.9 180.2, 788.44 33.48 M384.97 497.62 C504.49 360.13, 624.01 222.64, 788.44 33.48 M389.95 497.98 C481.15 393.07, 572.35 288.16, 793.43 33.84 M389.95 497.98 C517.81 350.9, 645.66 203.82, 793.43 33.84 M394.28 499.1 C533.77 338.63, 673.27 178.16, 797.1 35.7 M394.28 499.1 C550.07 319.89, 705.85 140.68, 797.1 35.7 M399.27 499.46 C554.62 320.75, 709.96 142.05, 801.43 36.82 M399.27 499.46 C490.38 394.65, 581.48 289.84, 801.43 36.82 M404.26 499.82 C520.23 366.41, 636.2 233, 805.77 37.93 M404.26 499.82 C514.43 373.08, 624.59 246.35, 805.77 37.93 M409.24 500.18 C520.67 372, 632.09 243.82, 810.1 39.05 M409.24 500.18 C535.01 355.5, 660.77 210.83, 810.1 39.05 M414.23 500.54 C566.58 325.28, 718.93 150.02, 814.43 40.16 M414.23 500.54 C494.91 407.72, 575.6 314.91, 814.43 40.16 M418.56 501.65 C518.19 387.05, 617.81 272.44, 818.76 41.28 M418.56 501.65 C537.29 365.08, 656.01 228.5, 818.76 41.28 M423.55 502.01 C535.8 372.88, 648.05 243.76, 822.43 43.15 M423.55 502.01 C578.06 324.27, 732.57 146.52, 822.43 43.15 M428.54 502.37 C526.28 389.93, 624.03 277.48, 826.76 44.26 M428.54 502.37 C556 355.75, 683.46 209.12, 826.76 44.26 M433.52 502.73 C592.14 320.27, 750.75 137.8, 831.09 45.38 M433.52 502.73 C563.6 353.09, 693.68 203.46, 831.09 45.38 M438.51 503.09 C562.23 360.77, 685.94 218.45, 834.77 47.25 M438.51 503.09 C539.66 386.73, 640.81 270.37, 834.77 47.25 M443.5 503.45 C597.69 326.07, 751.89 148.69, 839.1 48.36 M443.5 503.45 C559.47 370.04, 675.45 236.62, 839.1 48.36 M448.48 503.81 C563.76 371.21, 679.03 238.6, 842.78 50.23 M448.48 503.81 C527.39 413.04, 606.3 322.26, 842.78 50.23 M453.47 504.17 C555.31 387.02, 657.14 269.88, 847.11 51.35 M453.47 504.17 C545.57 398.23, 637.66 292.29, 847.11 51.35 M458.46 504.53 C586.93 356.74, 715.4 208.96, 850.78 53.22 M458.46 504.53 C607.19 333.44, 755.92 162.34, 850.78 53.22 M463.45 504.89 C564.91 388.18, 666.37 271.46, 855.11 54.33 M463.45 504.89 C571.07 381.08, 678.7 257.27, 855.11 54.33 M468.43 505.25 C608 344.7, 747.57 184.14, 858.79 56.2 M468.43 505.25 C563.36 396.05, 658.29 286.85, 858.79 56.2 M473.42 505.61 C626.39 329.64, 779.37 153.66, 863.12 57.32 M473.42 505.61 C558.16 408.13, 642.9 310.65, 863.12 57.32 M478.41 505.97 C564.26 407.21, 650.11 308.45, 866.79 59.19 M478.41 505.97 C622.08 340.69, 765.76 175.41, 866.79 59.19 M484.05 505.58 C603.79 367.83, 723.54 230.08, 871.12 60.3 M484.05 505.58 C577.05 398.59, 670.05 291.61, 871.12 60.3 M489.04 505.94 C625.94 348.45, 762.84 190.97, 874.8 62.17 M489.04 505.94 C629.25 344.64, 769.47 183.34, 874.8 62.17 M494.02 506.3 C574.03 414.27, 654.03 322.24, 878.47 64.04 M494.02 506.3 C647.09 330.21, 800.16 154.13, 878.47 64.04 M499.01 506.66 C611.98 376.7, 724.95 246.74, 882.8 65.15 M499.01 506.66 C635.07 350.14, 771.13 193.62, 882.8 65.15 M504 507.02 C632.44 359.27, 760.88 211.51, 886.48 67.02 M504 507.02 C627.38 365.08, 750.76 223.15, 886.48 67.02 M509.64 506.62 C651.66 343.25, 793.69 179.87, 890.15 68.89 M509.64 506.62 C623.9 375.18, 738.16 243.74, 890.15 68.89 M514.63 506.98 C623.83 381.36, 733.03 255.74, 893.83 70.76 M514.63 506.98 C636.57 366.7, 758.52 226.42, 893.83 70.76 M519.61 507.34 C604.16 410.08, 688.71 312.82, 897.5 72.63 M519.61 507.34 C627.16 383.62, 734.71 259.9, 897.5 72.63 M525.26 506.95 C641.24 373.53, 757.22 240.11, 901.18 74.5 M525.26 506.95 C630.42 385.97, 735.59 264.99, 901.18 74.5 M530.24 507.31 C634 387.95, 737.75 268.6, 905.51 75.62 M530.24 507.31 C612 413.27, 693.75 319.22, 905.51 75.62 M535.89 506.92 C681.4 339.52, 826.91 172.13, 909.19 77.49 M535.89 506.92 C669.62 353.07, 803.35 199.23, 909.19 77.49 M540.87 507.28 C637.8 395.78, 734.72 284.28, 912.86 79.36 M540.87 507.28 C666.22 363.08, 791.56 218.89, 912.86 79.36 M546.52 506.88 C684.39 348.27, 822.27 189.67, 916.54 81.22 M546.52 506.88 C655.59 381.4, 764.67 255.92, 916.54 81.22 M552.16 506.49 C663.86 377.99, 775.55 249.5, 920.21 83.09 M552.16 506.49 C664.58 377.17, 776.99 247.85, 920.21 83.09 M557.15 506.85 C647.44 402.98, 737.73 299.12, 923.88 84.96 M557.15 506.85 C668.51 378.74, 779.87 250.63, 923.88 84.96 M562.79 506.45 C646.97 409.61, 731.16 312.77, 926.9 87.59 M562.79 506.45 C676.88 375.2, 790.98 243.95, 926.9 87.59 M567.78 506.81 C657.83 403.22, 747.88 299.63, 930.58 89.46 M567.78 506.81 C704.08 350.01, 840.38 193.22, 930.58 89.46 M573.42 506.42 C670.16 395.13, 766.9 283.85, 934.25 91.33 M573.42 506.42 C709.57 349.8, 845.71 193.18, 934.25 91.33 M579.06 506.02 C709.97 355.44, 840.87 204.85, 937.93 93.2 M579.06 506.02 C714.83 349.85, 850.59 193.67, 937.93 93.2 M584.71 505.63 C704.99 367.26, 825.27 228.9, 941.6 95.07 M584.71 505.63 C670.54 406.88, 756.38 308.14, 941.6 95.07 M590.35 505.23 C671.98 411.33, 753.61 317.42, 944.62 97.69 M590.35 505.23 C716.29 360.36, 842.22 215.49, 944.62 97.69 M595.99 504.84 C722.54 359.26, 849.09 213.68, 948.3 99.56 M595.99 504.84 C692.07 394.32, 788.15 283.79, 948.3 99.56 M601.64 504.44 C681.56 412.5, 761.49 320.56, 951.97 101.43 M601.64 504.44 C681.42 412.67, 761.2 320.89, 951.97 101.43 M607.28 504.05 C730.5 362.3, 853.72 220.55, 954.99 104.05 M607.28 504.05 C736.01 355.96, 864.74 207.88, 954.99 104.05 M612.92 503.66 C747.54 348.8, 882.16 193.94, 958.67 105.92 M612.92 503.66 C713.93 387.46, 814.94 271.26, 958.67 105.92 M618.57 503.26 C735.45 368.79, 852.34 234.33, 961.68 108.55 M618.57 503.26 C706.37 402.25, 794.18 301.24, 961.68 108.55 M624.21 502.87 C724.48 387.51, 824.75 272.16, 965.36 110.42 M624.21 502.87 C734.2 376.34, 844.19 249.81, 965.36 110.42 M630.51 501.72 C709.79 410.51, 789.07 319.31, 968.38 113.04 M630.51 501.72 C758.64 354.32, 886.76 206.93, 968.38 113.04 M636.15 501.32 C760.24 358.57, 884.33 215.82, 971.4 115.67 M636.15 501.32 C726.24 397.69, 816.32 294.06, 971.4 115.67 M641.79 500.93 C758.89 366.22, 875.99 231.52, 975.07 117.53 M641.79 500.93 C713.84 418.05, 785.88 335.18, 975.07 117.53 M647.44 500.53 C777.96 350.38, 908.49 200.23, 978.09 120.16 M647.44 500.53 C765.76 364.41, 884.09 228.29, 978.09 120.16 M653.74 499.38 C753.33 384.82, 852.92 270.25, 981.11 122.78 M653.74 499.38 C774.63 360.31, 895.52 221.24, 981.11 122.78 M659.38 498.99 C786.97 352.21, 914.57 205.43, 984.13 125.41 M659.38 498.99 C787.07 352.1, 914.75 205.22, 984.13 125.41 M665.68 497.84 C763.77 385, 861.85 272.17, 987.15 128.03 M665.68 497.84 C751.74 398.83, 837.81 299.83, 987.15 128.03 M671.32 497.45 C779.16 373.39, 887 249.34, 990.17 130.66 M671.32 497.45 C752.5 404.06, 833.67 310.68, 990.17 130.66 M677.62 496.3 C761.06 400.31, 844.5 304.32, 993.19 133.28 M677.62 496.3 C761.93 399.31, 846.23 302.33, 993.19 133.28 M683.92 495.15 C762.85 404.35, 841.77 313.56, 996.2 135.9 M683.92 495.15 C808.38 351.97, 932.85 208.79, 996.2 135.9 M689.56 494.75 C779.63 391.14, 869.69 287.54, 999.22 138.53 M689.56 494.75 C797.9 370.13, 906.23 245.5, 999.22 138.53 M695.86 493.6 C789.91 385.42, 883.95 277.23, 1002.24 141.15 M695.86 493.6 C805.58 367.38, 915.3 241.17, 1002.24 141.15 M701.51 493.21 C820.47 356.36, 939.43 219.51, 1005.26 143.78 M701.51 493.21 C769.73 414.72, 837.96 336.24, 1005.26 143.78 M707.8 492.06 C803.89 381.53, 899.97 270.99, 1008.28 146.4 M707.8 492.06 C780.78 408.11, 853.75 324.17, 1008.28 146.4 M714.1 490.91 C824.54 363.87, 934.97 236.83, 1010.64 149.78 M714.1 490.91 C781.36 413.54, 848.62 336.17, 1010.64 149.78 M720.4 489.76 C796.23 402.53, 872.06 315.3, 1013.66 152.4 M720.4 489.76 C790.47 409.15, 860.54 328.55, 1013.66 152.4 M726.7 488.61 C824.27 376.37, 921.84 264.13, 1016.02 155.78 M726.7 488.61 C789.88 415.93, 853.07 343.24, 1016.02 155.78 M733.66 486.71 C830.44 375.37, 927.22 264.03, 1019.04 158.41 M733.66 486.71 C821.86 385.24, 910.07 283.77, 1019.04 158.41 M739.96 485.56 C849.34 359.73, 958.72 233.89, 1021.41 161.79 M739.96 485.56 C820.97 392.36, 901.98 299.17, 1021.41 161.79 M746.26 484.41 C836.64 380.43, 927.02 276.46, 1023.77 165.17 M746.26 484.41 C827.44 391.01, 908.63 297.62, 1023.77 165.17 M751.9 484.01 C841.73 380.67, 931.57 277.33, 1026.13 168.54 M751.9 484.01 C820.52 405.07, 889.15 326.12, 1026.13 168.54 M758.85 482.11 C821.27 410.31, 883.69 338.5, 1029.15 171.17 M758.85 482.11 C814.33 418.3, 869.8 354.48, 1029.15 171.17 M765.81 480.21 C859.49 372.44, 953.17 264.67, 1030.86 175.3 M765.81 480.21 C857.84 374.34, 949.87 268.47, 1030.86 175.3 M772.76 478.3 C829 413.6, 885.25 348.91, 1033.22 178.68 M772.76 478.3 C861.19 376.58, 949.61 274.86, 1033.22 178.68 M779.72 476.4 C872.87 369.24, 966.02 262.09, 1035.58 182.06 M779.72 476.4 C868.49 374.28, 957.27 272.15, 1035.58 182.06 M786.67 474.49 C859.61 390.59, 932.55 306.69, 1037.94 185.44 M786.67 474.49 C878.22 369.19, 969.76 263.88, 1037.94 185.44 M792.97 473.34 C856.21 400.6, 919.45 327.85, 1040.31 188.82 M792.97 473.34 C853.37 403.86, 913.77 334.38, 1040.31 188.82 M800.58 470.69 C851.75 411.83, 902.91 352.98, 1042.01 192.95 M800.58 470.69 C854.97 408.13, 909.35 345.57, 1042.01 192.95 M807.54 468.78 C860.21 408.19, 912.88 347.6, 1043.72 197.09 M807.54 468.78 C892.63 370.9, 977.72 273.01, 1043.72 197.09 M814.49 466.88 C903.93 363.99, 993.37 261.11, 1045.43 201.22 M814.49 466.88 C870.93 401.96, 927.36 337.04, 1045.43 201.22 M822.11 464.22 C880.6 396.93, 939.1 329.63, 1047.79 204.6 M822.11 464.22 C876.96 401.12, 931.8 338.02, 1047.79 204.6 M829.72 461.56 C911.31 367.7, 992.9 273.84, 1049.5 208.73 M829.72 461.56 C878.14 405.85, 926.56 350.15, 1049.5 208.73 M837.33 458.9 C891.87 396.16, 946.42 333.41, 1050.55 213.62 M837.33 458.9 C915.57 368.9, 993.81 278.89, 1050.55 213.62 M844.94 456.24 C921.04 368.7, 997.14 281.15, 1052.25 217.75 M844.94 456.24 C913.01 377.93, 981.09 299.62, 1052.25 217.75 M852.55 453.58 C913.35 383.64, 974.16 313.69, 1053.31 222.64 M852.55 453.58 C899.32 399.78, 946.1 345.97, 1053.31 222.64 M860.16 450.92 C923.57 377.98, 986.99 305.03, 1054.36 227.53 M860.16 450.92 C902.93 401.72, 945.7 352.52, 1054.36 227.53 M867.77 448.27 C940.73 364.34, 1013.69 280.41, 1055.41 232.42 M867.77 448.27 C918.2 390.26, 968.62 332.26, 1055.41 232.42 M876.7 444.1 C921.6 392.45, 966.5 340.79, 1056.46 237.31 M876.7 444.1 C935 377.03, 993.3 309.96, 1056.46 237.31 M885.62 439.93 C937.09 380.72, 988.56 321.51, 1056.85 242.95 M885.62 439.93 C941.84 375.26, 998.05 310.59, 1056.85 242.95 M893.89 436.52 C940.51 382.88, 987.14 329.24, 1057.25 248.59 M893.89 436.52 C950.33 371.59, 1006.77 306.66, 1057.25 248.59 M902.81 432.35 C952.89 374.74, 1002.97 317.13, 1057.64 254.24 M902.81 432.35 C963.57 362.46, 1024.32 292.57, 1057.64 254.24 M911.73 428.18 C945.31 389.56, 978.88 350.94, 1057.38 260.63 M911.73 428.18 C964.93 366.98, 1018.13 305.78, 1057.38 260.63 M921.31 423.26 C967.42 370.21, 1013.53 317.17, 1056.46 267.79 M921.31 423.26 C957.57 381.55, 993.82 339.84, 1056.46 267.79 M930.89 418.33 C959.63 385.28, 988.36 352.22, 1055.54 274.94 M930.89 418.33 C973.48 369.35, 1016.06 320.36, 1055.54 274.94 M941.78 411.9 C979.7 368.29, 1017.61 324.67, 1054.63 282.09 M941.78 411.9 C974.48 374.3, 1007.17 336.69, 1054.63 282.09 M953.33 404.72 C980.64 373.3, 1007.95 341.88, 1051.09 292.26 M953.33 404.72 C973.78 381.19, 994.23 357.67, 1051.09 292.26 M966.19 396.02 C989.85 368.8, 1013.52 341.58, 1048.2 301.68 M966.19 396.02 C984 375.54, 1001.8 355.06, 1048.2 301.68 M981.68 384.3 C1000.33 362.85, 1018.98 341.39, 1040.07 317.13 M981.68 384.3 C1003.81 358.84, 1025.95 333.38, 1040.07 317.13 M1007.66 360.51 C1013.49 353.8, 1019.32 347.09, 1028.65 336.36 M1007.66 360.51 C1014.74 352.36, 1021.82 344.22, 1028.65 336.36" stroke="#ffc9c9" stroke-width="0.5" fill="none"></path><path d="M1057.14 253.33 C1057.14 257.35, 1056.94 261.37, 1056.54 265.39 C1056.15 269.4, 1055.55 273.41, 1054.75 277.41 C1053.95 281.41, 1052.96 285.41, 1051.76 289.39 C1050.57 293.36, 1049.18 297.33, 1047.59 301.28 C1046 305.22, 1044.22 309.15, 1042.24 313.06 C1040.27 316.96, 1038.09 320.85, 1035.73 324.71 C1033.37 328.56, 1030.81 332.39, 1028.07 336.19 C1025.33 339.99, 1022.4 343.76, 1019.28 347.49 C1016.16 351.22, 1012.86 354.92, 1009.38 358.57 C1005.89 362.23, 1002.23 365.85, 998.38 369.42 C994.54 372.99, 990.52 376.52, 986.33 380 C982.14 383.48, 977.77 386.92, 973.23 390.3 C968.7 393.68, 964 397.01, 959.13 400.28 C954.27 403.55, 949.24 406.78, 944.06 409.93 C938.87 413.09, 933.53 416.19, 928.04 419.23 C922.55 422.27, 916.9 425.25, 911.12 428.15 C905.33 431.06, 899.39 433.91, 893.33 436.68 C887.26 439.45, 881.05 442.16, 874.71 444.79 C868.38 447.42, 861.9 449.98, 855.31 452.47 C848.72 454.95, 842 457.36, 835.17 459.69 C828.34 462.02, 821.39 464.28, 814.34 466.45 C807.29 468.62, 800.12 470.72, 792.86 472.73 C785.6 474.74, 778.23 476.66, 770.78 478.51 C763.33 480.35, 755.77 482.1, 748.15 483.77 C740.52 485.44, 732.8 487.03, 725.02 488.52 C717.24 490.01, 709.37 491.42, 701.45 492.73 C693.53 494.05, 685.53 495.27, 677.49 496.4 C669.44 497.54, 661.33 498.58, 653.19 499.53 C645.04 500.47, 636.84 501.33, 628.6 502.09 C620.37 502.85, 612.09 503.52, 603.79 504.09 C595.5 504.66, 587.16 505.14, 578.82 505.52 C570.47 505.9, 562.1 506.19, 553.72 506.38 C545.35 506.57, 536.95 506.67, 528.57 506.67 C520.19 506.67, 511.79 506.57, 503.42 506.38 C495.05 506.19, 486.67 505.9, 478.33 505.52 C469.98 505.14, 461.65 504.66, 453.35 504.09 C445.05 503.52, 436.77 502.85, 428.54 502.09 C420.31 501.33, 412.1 500.47, 403.96 499.53 C395.81 498.58, 387.7 497.54, 379.66 496.4 C371.61 495.27, 363.62 494.05, 355.69 492.73 C347.77 491.42, 339.9 490.01, 332.12 488.52 C324.34 487.03, 316.62 485.44, 308.99 483.77 C301.37 482.1, 293.82 480.35, 286.37 478.51 C278.91 476.66, 271.55 474.74, 264.29 472.73 C257.03 470.72, 249.86 468.62, 242.8 466.45 C235.75 464.28, 228.8 462.02, 221.97 459.69 C215.14 457.36, 208.42 454.95, 201.83 452.47 C195.24 449.98, 188.77 447.42, 182.43 444.79 C176.09 442.16, 169.88 439.45, 163.82 436.68 C157.75 433.91, 151.81 431.06, 146.03 428.15 C140.24 425.25, 134.59 422.27, 129.1 419.23 C123.61 416.19, 118.27 413.09, 113.09 409.93 C107.9 406.78, 102.87 403.55, 98.01 400.28 C93.15 397.01, 88.44 393.68, 83.91 390.3 C79.38 386.92, 75.01 383.48, 70.82 380 C66.62 376.52, 62.6 372.99, 58.76 369.42 C54.92 365.85, 51.25 362.23, 47.77 358.57 C44.28 354.92, 40.98 351.22, 37.86 347.49 C34.75 343.76, 31.81 339.99, 29.07 336.19 C26.33 332.39, 23.77 328.56, 21.41 324.71 C19.05 320.85, 16.88 316.96, 14.9 313.06 C12.92 309.15, 11.14 305.22, 9.55 301.28 C7.97 297.33, 6.57 293.36, 5.38 289.39 C4.19 285.41, 3.19 281.41, 2.39 277.41 C1.6 273.41, 1 269.4, 0.6 265.39 C0.2 261.37, 0 257.35, 0 253.33 C0 249.32, 0.2 245.29, 0.6 241.28 C1 237.27, 1.6 233.25, 2.39 229.25 C3.19 225.25, 4.19 221.26, 5.38 217.28 C6.57 213.3, 7.97 209.34, 9.55 205.39 C11.14 201.44, 12.92 197.51, 14.9 193.61 C16.88 189.7, 19.05 185.82, 21.41 181.96 C23.77 178.11, 26.33 174.27, 29.07 170.48 C31.81 166.68, 34.75 162.91, 37.86 159.18 C40.98 155.45, 44.28 151.75, 47.77 148.09 C51.25 144.44, 54.92 140.82, 58.76 137.25 C62.6 133.68, 66.62 130.15, 70.82 126.67 C75.01 123.19, 79.38 119.75, 83.91 116.37 C88.44 112.99, 93.15 109.66, 98.01 106.39 C102.87 103.11, 107.9 99.89, 113.09 96.73 C118.27 93.57, 123.61 90.47, 129.1 87.44 C134.59 84.4, 140.24 81.42, 146.03 78.51 C151.81 75.61, 157.75 72.76, 163.82 69.99 C169.88 67.21, 176.09 64.51, 182.43 61.88 C188.77 59.25, 195.24 56.68, 201.83 54.2 C208.42 51.72, 215.14 49.3, 221.97 46.97 C228.8 44.64, 235.75 42.39, 242.8 40.22 C249.86 38.04, 257.03 35.95, 264.29 33.94 C271.55 31.93, 278.91 30, 286.37 28.16 C293.82 26.32, 301.37 24.56, 308.99 22.89 C316.62 21.22, 324.34 19.64, 332.12 18.15 C339.9 16.65, 347.77 15.25, 355.69 13.93 C363.62 12.62, 371.61 11.39, 379.66 10.26 C387.7 9.13, 395.81 8.09, 403.96 7.14 C412.1 6.19, 420.31 5.34, 428.54 4.58 C436.77 3.82, 445.05 3.15, 453.35 2.58 C461.65 2.01, 469.98 1.53, 478.33 1.15 C486.67 0.77, 495.05 0.48, 503.42 0.29 C511.79 0.1, 520.19 0, 528.57 0 C536.95 0, 545.35 0.1, 553.72 0.29 C562.1 0.48, 570.47 0.77, 578.82 1.15 C587.16 1.53, 595.5 2.01, 603.79 2.58 C612.09 3.15, 620.37 3.82, 628.6 4.58 C636.84 5.34, 645.04 6.19, 653.19 7.14 C661.33 8.09, 669.44 9.13, 677.49 10.26 C685.53 11.39, 693.53 12.62, 701.45 13.93 C709.37 15.25, 717.24 16.65, 725.02 18.15 C732.8 19.64, 740.52 21.22, 748.15 22.89 C755.77 24.56, 763.33 26.32, 770.78 28.16 C778.23 30, 785.6 31.93, 792.86 33.94 C800.12 35.95, 807.29 38.04, 814.34 40.22 C821.39 42.39, 828.34 44.64, 835.17 46.97 C842 49.3, 848.72 51.72, 855.31 54.2 C861.9 56.68, 868.38 59.25, 874.71 61.88 C881.05 64.51, 887.26 67.21, 893.33 69.99 C899.39 72.76, 905.33 75.61, 911.12 78.51 C916.9 81.42, 922.55 84.4, 928.04 87.44 C933.53 90.47, 938.87 93.57, 944.06 96.73 C949.24 99.89, 954.27 103.11, 959.13 106.39 C964 109.66, 968.7 112.99, 973.23 116.37 C977.77 119.75, 982.14 123.19, 986.33 126.67 C990.52 130.15, 994.54 133.68, 998.38 137.25 C1002.23 140.82, 1005.89 144.44, 1009.38 148.09 C1012.86 151.75, 1016.16 155.45, 1019.28 159.18 C1022.4 162.91, 1025.33 166.68, 1028.07 170.48 C1030.81 174.27, 1033.37 178.11, 1035.73 181.96 C1038.09 185.82, 1040.27 189.7, 1042.24 193.61 C1044.22 197.51, 1046 201.44, 1047.59 205.39 C1049.18 209.34, 1050.57 213.3, 1051.76 217.28 C1052.96 221.26, 1053.95 225.25, 1054.75 229.25 C1055.55 233.25, 1056.15 237.27, 1056.54 241.28 C1056.94 245.29, 1057.14 249.32, 1057.14 253.33" stroke="#1e1e1e" stroke-width="1" fill="none"></path></g><g stroke-linecap="round" transform="translate(502.000034877232 10) rotate(0 540.952410016741 268.09526715959817)"><path d="M49.02 156.57 C49.02 156.57, 49.02 156.57, 49.02 156.57 M49.02 156.57 C49.02 156.57, 49.02 156.57, 49.02 156.57 M22.52 193.15 C37.77 175.6, 53.03 158.06, 76.97 130.51 M22.52 193.15 C33.93 180.03, 45.34 166.9, 76.97 130.51 M14.38 208.61 C33.7 186.39, 53.01 164.17, 93.11 118.04 M14.38 208.61 C36.63 183.01, 58.88 157.42, 93.11 118.04 M9.53 220.29 C39.28 186.06, 69.04 151.83, 106.63 108.59 M9.53 220.29 C33.81 192.35, 58.1 164.42, 106.63 108.59 M5.99 230.46 C37.85 193.8, 69.72 157.15, 118.83 100.65 M5.99 230.46 C37.79 193.87, 69.59 157.29, 118.83 100.65 M3.76 239.12 C45.65 190.93, 87.55 142.73, 129.72 94.22 M3.76 239.12 C39.48 198.02, 75.21 156.93, 129.72 94.22 M2.19 247.03 C54.39 186.97, 106.6 126.92, 139.96 88.54 M2.19 247.03 C47.03 195.45, 91.87 143.86, 139.96 88.54 M1.27 254.18 C35 215.38, 68.73 176.57, 149.54 83.62 M1.27 254.18 C56.08 191.13, 110.89 128.08, 149.54 83.62 M1.01 260.58 C62.77 189.53, 124.53 118.49, 159.12 78.69 M1.01 260.58 C48.26 206.21, 95.52 151.85, 159.12 78.69 M0.75 266.98 C35.63 226.84, 70.52 186.71, 168.04 74.52 M0.75 266.98 C41.63 219.94, 82.52 172.91, 168.04 74.52 M1.14 272.62 C48.88 217.7, 96.62 162.78, 176.96 70.36 M1.14 272.62 C38.77 229.33, 76.41 186.03, 176.96 70.36 M0.88 279.02 C63.84 206.59, 126.8 134.17, 185.23 66.94 M0.88 279.02 C41.53 232.25, 82.19 185.48, 185.23 66.94 M1.93 283.9 C73.61 201.45, 145.29 118.99, 193.5 63.53 M1.93 283.9 C61.2 215.72, 120.48 147.53, 193.5 63.53 M2.32 289.55 C50.32 234.34, 98.31 179.13, 201.77 60.12 M2.32 289.55 C59.63 223.62, 116.94 157.7, 201.77 60.12 M2.72 295.19 C75.4 211.58, 148.09 127.96, 210.69 55.95 M2.72 295.19 C75.52 211.44, 148.33 127.68, 210.69 55.95 M3.77 300.08 C82.84 209.12, 161.91 118.15, 218.3 53.29 M3.77 300.08 C48.97 248.08, 94.17 196.09, 218.3 53.29 M5.48 304.21 C60.06 241.42, 114.65 178.62, 226.57 49.88 M5.48 304.21 C77.92 220.88, 150.36 137.54, 226.57 49.88 M6.53 309.1 C82.9 221.24, 159.28 133.38, 233.52 47.97 M6.53 309.1 C59.41 248.26, 112.3 187.42, 233.52 47.97 M8.23 313.24 C57.98 256.01, 107.73 198.78, 240.48 46.07 M8.23 313.24 C91.92 216.96, 175.61 120.69, 240.48 46.07 M9.94 317.37 C58.62 261.37, 107.29 205.38, 248.75 42.65 M9.94 317.37 C99.06 214.85, 188.17 112.33, 248.75 42.65 M10.99 322.26 C108.31 210.31, 205.63 98.36, 255.7 40.75 M10.99 322.26 C107.13 211.66, 203.27 101.06, 255.7 40.75 M12.7 326.39 C107.59 217.22, 202.49 108.06, 263.31 38.09 M12.7 326.39 C94.6 232.17, 176.51 137.95, 263.31 38.09 M15.06 329.77 C76.83 258.71, 138.6 187.66, 270.27 36.19 M15.06 329.77 C90.75 242.7, 166.44 155.63, 270.27 36.19 M16.77 333.9 C99.43 238.81, 182.09 143.72, 277.22 34.28 M16.77 333.9 C112.09 224.25, 207.42 114.59, 277.22 34.28 M19.13 337.28 C122.6 218.25, 226.07 99.22, 284.18 32.38 M19.13 337.28 C117.02 224.68, 214.91 112.07, 284.18 32.38 M20.84 341.42 C81.61 271.51, 142.38 201.6, 291.13 30.48 M20.84 341.42 C85.53 266.99, 150.23 192.56, 291.13 30.48 M23.2 344.79 C128.6 223.55, 233.99 102.31, 297.43 29.33 M23.2 344.79 C87.79 270.49, 152.39 196.18, 297.43 29.33 M25.56 348.17 C124.12 234.79, 222.69 121.41, 303.73 28.18 M25.56 348.17 C101.26 261.09, 176.96 174.01, 303.73 28.18 M27.27 352.31 C130.4 233.67, 233.53 115.04, 310.69 26.27 M27.27 352.31 C125.4 239.41, 223.54 126.52, 310.69 26.27 M29.63 355.69 C118.42 253.54, 207.21 151.4, 318.3 23.61 M29.63 355.69 C106.45 267.32, 183.26 178.95, 318.3 23.61 M31.99 359.07 C139.52 235.37, 247.04 111.68, 324.6 22.46 M31.99 359.07 C113.63 265.15, 195.28 171.23, 324.6 22.46 M35.01 361.69 C134.08 247.73, 233.14 133.77, 330.9 21.32 M35.01 361.69 C153.25 225.67, 271.49 89.65, 330.9 21.32 M37.38 365.07 C106.94 285.05, 176.5 205.02, 337.19 20.17 M37.38 365.07 C108.72 283, 180.06 200.93, 337.19 20.17 M39.74 368.45 C110.99 286.48, 182.24 204.52, 343.49 19.02 M39.74 368.45 C139.24 253.98, 238.74 139.52, 343.49 19.02 M42.1 371.83 C132.2 268.18, 222.3 164.53, 349.79 17.87 M42.1 371.83 C150.94 246.62, 259.78 121.41, 349.79 17.87 M45.12 374.45 C124.09 283.61, 203.05 192.77, 356.09 16.72 M45.12 374.45 C132.64 273.77, 220.16 173.09, 356.09 16.72 M47.48 377.83 C136.81 275.07, 226.15 172.3, 362.39 15.57 M47.48 377.83 C168.29 238.85, 289.1 99.88, 362.39 15.57 M50.5 380.45 C174.08 238.29, 297.66 96.14, 368.69 14.42 M50.5 380.45 C168 245.29, 285.49 110.13, 368.69 14.42 M52.86 383.83 C129.13 296.1, 205.4 208.36, 374.99 13.27 M52.86 383.83 C120.98 305.47, 189.1 227.11, 374.99 13.27 M55.88 386.46 C147.59 280.96, 239.3 175.46, 381.29 12.12 M55.88 386.46 C145.57 283.28, 235.27 180.1, 381.29 12.12 M58.9 389.08 C184.7 244.37, 310.49 99.66, 387.59 10.97 M58.9 389.08 C173.15 257.65, 287.4 126.23, 387.59 10.97 M61.26 392.46 C169.69 267.73, 278.12 142.99, 393.23 10.58 M61.26 392.46 C181.33 254.34, 301.4 116.21, 393.23 10.58 M64.28 395.08 C148.31 298.43, 232.33 201.77, 399.53 9.43 M64.28 395.08 C141.04 306.79, 217.8 218.49, 399.53 9.43 M67.3 397.71 C190.15 256.39, 313 115.07, 405.17 9.03 M67.3 397.71 C190.69 255.77, 314.07 113.84, 405.17 9.03 M70.32 400.33 C195.87 255.9, 321.42 111.48, 411.47 7.88 M70.32 400.33 C179.17 275.12, 288.02 149.9, 411.47 7.88 M73.34 402.96 C204.64 251.91, 335.95 100.86, 417.12 7.49 M73.34 402.96 C176.6 284.17, 279.85 165.39, 417.12 7.49 M76.36 405.58 C201.35 261.8, 326.34 118.02, 422.76 7.09 M76.36 405.58 C148.4 322.71, 220.45 239.83, 422.76 7.09 M79.38 408.21 C155.94 320.13, 232.5 232.06, 428.4 6.7 M79.38 408.21 C204.36 264.43, 329.35 120.65, 428.4 6.7 M82.4 410.83 C171.68 308.12, 260.97 205.4, 434.7 5.55 M82.4 410.83 C192.43 284.25, 302.46 157.68, 434.7 5.55 M86.07 412.7 C178.87 305.94, 271.67 199.19, 440.34 5.16 M86.07 412.7 C158.97 328.83, 231.88 244.97, 440.34 5.16 M89.09 415.32 C220.67 263.95, 352.26 112.58, 445.99 4.76 M89.09 415.32 C223.03 261.25, 356.96 107.17, 445.99 4.76 M92.11 417.95 C215.87 275.57, 339.64 133.2, 451.63 4.37 M92.11 417.95 C195.43 299.09, 298.76 180.23, 451.63 4.37 M95.78 419.82 C178.15 325.07, 260.51 230.32, 457.27 3.97 M95.78 419.82 C228.31 267.36, 360.83 114.91, 457.27 3.97 M98.8 422.44 C189.72 317.85, 280.64 213.27, 463.57 2.82 M98.8 422.44 C216.79 286.71, 334.78 150.98, 463.57 2.82 M101.82 425.07 C193.73 319.34, 285.63 213.62, 468.56 3.18 M101.82 425.07 C242.14 263.64, 382.47 102.22, 468.56 3.18 M105.5 426.94 C182.32 338.56, 259.14 250.18, 474.2 2.79 M105.5 426.94 C183.32 337.41, 261.15 247.88, 474.2 2.79 M108.52 429.56 C203.24 320.59, 297.97 211.61, 479.85 2.39 M108.52 429.56 C237.07 281.68, 365.62 133.79, 479.85 2.39 M112.19 431.43 C187.39 344.92, 262.6 258.41, 485.49 2 M112.19 431.43 C233.1 292.34, 354.01 153.25, 485.49 2 M115.21 434.05 C249.76 279.27, 384.32 124.48, 491.13 1.6 M115.21 434.05 C230.53 301.39, 345.85 168.73, 491.13 1.6 M118.88 435.92 C215.94 324.28, 312.99 212.63, 496.77 1.21 M118.88 435.92 C199.05 343.7, 279.22 251.47, 496.77 1.21 M122.56 437.79 C226.67 318.02, 330.79 198.25, 502.42 0.82 M122.56 437.79 C251.84 289.08, 381.12 140.36, 502.42 0.82 M125.58 440.42 C259.68 286.15, 393.77 131.89, 507.4 1.18 M125.58 440.42 C241.12 307.5, 356.67 174.58, 507.4 1.18 M129.25 442.29 C212.55 346.46, 295.85 250.64, 513.05 0.78 M129.25 442.29 C225 332.15, 320.74 222.01, 513.05 0.78 M132.93 444.16 C252.42 306.7, 371.91 169.24, 518.69 0.39 M132.93 444.16 C286.7 267.26, 440.48 90.36, 518.69 0.39 M136.6 446.03 C290.91 268.51, 445.23 90.99, 523.68 0.75 M136.6 446.03 C238.51 328.79, 340.42 211.56, 523.68 0.75 M140.28 447.89 C259.36 310.9, 378.45 173.91, 529.32 0.35 M140.28 447.89 C288.16 277.78, 436.03 107.67, 529.32 0.35 M143.3 450.52 C272.05 302.4, 400.81 154.28, 534.31 0.71 M143.3 450.52 C275.25 298.72, 407.21 146.92, 534.31 0.71 M146.97 452.39 C289.34 288.62, 431.7 124.85, 539.95 0.32 M146.97 452.39 C266.25 315.18, 385.52 177.96, 539.95 0.32 M150.65 454.26 C275.91 310.16, 401.17 166.06, 544.94 0.68 M150.65 454.26 C250.91 338.91, 351.18 223.57, 544.94 0.68 M154.32 456.13 C252.89 342.73, 351.47 229.34, 550.58 0.28 M154.32 456.13 C273.95 318.51, 393.58 180.9, 550.58 0.28 M158 458 C305.52 288.29, 453.04 118.58, 555.57 0.64 M158 458 C286.24 310.47, 414.48 162.95, 555.57 0.64 M161.67 459.87 C315.29 283.15, 468.9 106.44, 561.21 0.25 M161.67 459.87 C275.47 328.96, 389.27 198.05, 561.21 0.25 M166 460.98 C284.08 325.15, 402.15 189.32, 566.2 0.61 M166 460.98 C277.11 333.17, 388.22 205.35, 566.2 0.61 M169.68 462.85 C304.91 307.29, 440.14 151.72, 571.19 0.97 M169.68 462.85 C265.43 352.7, 361.17 242.56, 571.19 0.97 M173.35 464.72 C331.95 282.28, 490.55 99.83, 576.17 1.33 M173.35 464.72 C327.02 287.95, 480.68 111.18, 576.17 1.33 M177.03 466.59 C306.96 317.12, 436.9 167.64, 581.16 1.69 M177.03 466.59 C308.59 315.24, 440.16 163.89, 581.16 1.69 M180.7 468.46 C330.79 295.8, 480.88 123.14, 586.8 1.29 M180.7 468.46 C311.69 317.77, 442.69 167.08, 586.8 1.29 M185.03 469.57 C308.22 327.86, 431.41 186.15, 591.79 1.65 M185.03 469.57 C341.78 289.26, 498.53 108.94, 591.79 1.65 M188.71 471.44 C279.96 366.47, 371.21 261.5, 596.78 2.01 M188.71 471.44 C317.65 323.12, 446.58 174.79, 596.78 2.01 M192.38 473.31 C312.53 335.1, 432.67 196.89, 601.76 2.37 M192.38 473.31 C288.06 363.25, 383.74 253.18, 601.76 2.37 M196.06 475.18 C341.93 307.37, 487.81 139.56, 606.75 2.73 M196.06 475.18 C279.56 379.12, 363.07 283.06, 606.75 2.73 M200.39 476.3 C305.08 355.86, 409.78 235.42, 611.74 3.09 M200.39 476.3 C349.73 304.5, 499.07 132.7, 611.74 3.09 M204.06 478.17 C312.24 353.73, 420.41 229.29, 616.72 3.45 M204.06 478.17 C349.66 310.68, 495.25 143.19, 616.72 3.45 M208.39 479.28 C372.12 290.94, 535.85 102.59, 622.37 3.06 M208.39 479.28 C308.71 363.88, 409.03 248.48, 622.37 3.06 M212.07 481.15 C311.88 366.33, 411.69 251.52, 626.7 4.18 M212.07 481.15 C361 309.83, 509.93 138.5, 626.7 4.18 M216.4 482.27 C330.36 351.17, 444.32 220.07, 631.69 4.54 M216.4 482.27 C306.55 378.57, 396.69 274.86, 631.69 4.54 M220.07 484.14 C339.07 347.25, 458.07 210.36, 636.67 4.9 M220.07 484.14 C363.29 319.39, 506.5 154.64, 636.67 4.9 M224.41 485.25 C348.62 342.36, 472.83 199.47, 641.66 5.26 M224.41 485.25 C311.77 384.75, 399.13 284.25, 641.66 5.26 M228.08 487.12 C391.34 299.32, 554.59 111.51, 646.65 5.62 M228.08 487.12 C334.57 364.62, 441.06 242.12, 646.65 5.62 M232.41 488.24 C324.71 382.05, 417.02 275.87, 651.63 5.98 M232.41 488.24 C323.77 383.14, 415.12 278.05, 651.63 5.98 M236.74 489.35 C339.82 370.77, 442.9 252.2, 656.62 6.34 M236.74 489.35 C390.24 312.77, 543.74 136.19, 656.62 6.34 M240.42 491.22 C343.68 372.43, 446.94 253.64, 661.61 6.7 M240.42 491.22 C332.19 385.65, 423.96 280.07, 661.61 6.7 M244.75 492.33 C389.03 326.36, 533.31 160.39, 666.59 7.06 M244.75 492.33 C404.31 308.78, 563.88 125.22, 666.59 7.06 M248.42 494.2 C385.48 336.54, 522.54 178.87, 670.93 8.17 M248.42 494.2 C358.74 367.3, 469.05 240.4, 670.93 8.17 M252.75 495.32 C366.19 364.83, 479.62 234.34, 675.91 8.53 M252.75 495.32 C388.17 339.54, 523.58 183.77, 675.91 8.53 M257.09 496.43 C366.28 370.82, 475.47 245.21, 680.24 9.65 M257.09 496.43 C416.14 313.47, 575.19 130.5, 680.24 9.65 M261.42 497.55 C350.64 394.91, 439.86 292.27, 685.23 10.01 M261.42 497.55 C365.23 378.12, 469.05 258.69, 685.23 10.01 M265.75 498.66 C433.29 305.93, 600.83 113.19, 690.22 10.37 M265.75 498.66 C379.13 368.23, 492.51 237.8, 690.22 10.37 M269.42 500.53 C377.71 375.96, 486 251.39, 694.55 11.48 M269.42 500.53 C411.33 337.28, 553.25 174.03, 694.55 11.48 M273.75 501.65 C414.88 339.3, 556 176.96, 699.54 11.84 M273.75 501.65 C365.86 395.7, 457.96 289.74, 699.54 11.84 M278.08 502.76 C399.19 363.45, 520.29 224.14, 703.87 12.96 M278.08 502.76 C445.76 309.88, 613.43 116.99, 703.87 12.96 M282.41 503.88 C373.56 399.03, 464.7 294.18, 708.85 13.32 M282.41 503.88 C445.1 316.73, 607.78 129.59, 708.85 13.32 M286.75 504.99 C406.93 366.74, 527.11 228.48, 713.18 14.43 M286.75 504.99 C439.73 329, 592.72 153.01, 713.18 14.43 M291.08 506.11 C391.65 390.41, 492.22 274.71, 718.17 14.79 M291.08 506.11 C418.03 360.07, 544.98 214.03, 718.17 14.79 M295.41 507.22 C392.61 395.41, 489.81 283.59, 722.5 15.91 M295.41 507.22 C461.56 316.08, 627.71 124.95, 722.5 15.91 M299.74 508.34 C444.77 341.49, 589.81 174.65, 727.49 16.27 M299.74 508.34 C460.03 323.95, 620.31 139.56, 727.49 16.27 M304.07 509.45 C389.95 410.66, 475.82 311.87, 731.82 17.38 M304.07 509.45 C463.01 326.61, 621.96 143.76, 731.82 17.38 M308.4 510.57 C443.26 355.43, 578.12 200.29, 736.15 18.5 M308.4 510.57 C394.66 411.34, 480.92 312.11, 736.15 18.5 M312.73 511.68 C432.2 374.24, 551.68 236.81, 741.14 18.86 M312.73 511.68 C406.94 403.31, 501.15 294.93, 741.14 18.86 M317.72 512.04 C447.47 362.77, 577.23 213.51, 745.47 19.97 M317.72 512.04 C421.37 392.8, 525.03 273.56, 745.47 19.97 M322.05 513.16 C423.8 396.1, 525.55 279.05, 749.8 21.09 M322.05 513.16 C482.06 329.09, 642.06 145.02, 749.8 21.09 M326.38 514.27 C450.83 371.11, 575.28 227.94, 754.13 22.2 M326.38 514.27 C470.78 348.16, 615.17 182.06, 754.13 22.2 M330.71 515.39 C438.74 391.11, 546.77 266.84, 759.12 22.56 M330.71 515.39 C459.53 367.2, 588.34 219.02, 759.12 22.56 M335.7 515.75 C427.31 410.35, 518.93 304.96, 763.45 23.67 M335.7 515.75 C423.3 414.97, 510.9 314.2, 763.45 23.67 M340.03 516.86 C508.8 322.71, 677.57 128.57, 767.78 24.79 M340.03 516.86 C508.12 323.5, 676.2 130.14, 767.78 24.79 M344.36 517.98 C454.55 391.22, 564.74 264.46, 772.11 25.9 M344.36 517.98 C488.93 351.66, 633.5 185.35, 772.11 25.9 M349.35 518.34 C492.98 353.1, 636.62 187.87, 776.44 27.02 M349.35 518.34 C464.93 385.37, 580.51 252.41, 776.44 27.02 M353.68 519.45 C504.95 345.43, 656.22 171.42, 780.77 28.13 M353.68 519.45 C485.08 368.29, 616.47 217.14, 780.77 28.13 M358.01 520.56 C463.56 399.14, 569.11 277.72, 785.1 29.25 M358.01 520.56 C477.6 382.99, 597.19 245.42, 785.1 29.25 M363 520.92 C484.69 380.94, 606.37 240.95, 789.43 30.36 M363 520.92 C474.26 392.93, 585.52 264.94, 789.43 30.36 M367.33 522.04 C493.21 377.23, 619.08 232.43, 793.77 31.48 M367.33 522.04 C535.34 328.77, 703.35 135.49, 793.77 31.48 M371.66 523.15 C534.12 336.26, 696.59 149.36, 798.1 32.59 M371.66 523.15 C466.07 414.54, 560.49 305.93, 798.1 32.59 M376.65 523.51 C524.4 353.54, 672.16 183.57, 802.43 33.71 M376.65 523.51 C509.48 370.7, 642.32 217.89, 802.43 33.71 M380.98 524.63 C474.37 417.19, 567.76 309.75, 806.76 34.82 M380.98 524.63 C546.76 333.92, 712.54 143.21, 806.76 34.82 M385.96 524.99 C499.75 394.09, 613.54 263.19, 811.09 35.94 M385.96 524.99 C539.02 348.92, 692.07 172.85, 811.09 35.94 M390.29 526.1 C529.39 366.09, 668.49 206.08, 815.42 37.05 M390.29 526.1 C492.98 407.98, 595.67 289.85, 815.42 37.05 M395.28 526.46 C488.76 418.93, 582.23 311.4, 819.1 38.92 M395.28 526.46 C560.84 336.01, 726.4 145.55, 819.1 38.92 M399.61 527.58 C518.14 391.23, 636.67 254.87, 823.43 40.04 M399.61 527.58 C497.65 414.8, 595.69 302.02, 823.43 40.04 M404.6 527.94 C560.15 349, 715.7 170.05, 827.76 41.15 M404.6 527.94 C524.35 390.18, 644.1 252.42, 827.76 41.15 M409.59 528.3 C494.26 430.89, 578.94 333.48, 832.09 42.27 M409.59 528.3 C531.52 388.03, 653.45 247.76, 832.09 42.27 M413.92 529.41 C569.63 350.29, 725.34 171.17, 835.76 44.14 M413.92 529.41 C516.32 411.62, 618.72 293.82, 835.76 44.14 M418.9 529.77 C529.03 403.09, 639.15 276.41, 840.09 45.25 M418.9 529.77 C553.61 374.81, 688.32 219.84, 840.09 45.25 M423.89 530.13 C543.27 392.81, 662.65 255.48, 844.43 46.37 M423.89 530.13 C550.96 383.96, 678.03 237.79, 844.43 46.37 M428.88 530.49 C589.56 345.65, 750.24 160.8, 848.1 48.24 M428.88 530.49 C558.02 381.93, 687.17 233.36, 848.1 48.24 M433.21 531.61 C546.01 401.85, 658.81 272.09, 852.43 49.35 M433.21 531.61 C525.46 425.49, 617.7 319.38, 852.43 49.35 M438.85 531.21 C578.78 370.25, 718.7 209.28, 856.76 50.46 M438.85 531.21 C527.82 428.87, 616.78 326.53, 856.76 50.46 M443.84 531.58 C560.81 397.01, 677.78 262.45, 861.09 51.58 M443.84 531.58 C603.14 348.33, 762.43 165.08, 861.09 51.58 M448.83 531.94 C545.92 420.25, 643 308.56, 864.77 53.45 M448.83 531.94 C561.32 402.53, 673.81 273.12, 864.77 53.45 M453.81 532.3 C608.2 354.69, 762.6 177.08, 869.1 54.56 M453.81 532.3 C578.1 389.31, 702.4 246.33, 869.1 54.56 M458.14 533.41 C559.68 416.61, 661.21 299.81, 872.77 56.43 M458.14 533.41 C579.83 393.43, 701.52 253.44, 872.77 56.43 M463.13 533.77 C626.75 345.54, 790.38 157.32, 876.45 58.3 M463.13 533.77 C591.71 385.85, 720.3 237.94, 876.45 58.3 M468.12 534.13 C585.08 399.58, 702.04 265.04, 880.78 59.42 M468.12 534.13 C621.32 357.89, 774.53 181.64, 880.78 59.42 M473.11 534.49 C597.99 390.82, 722.88 247.16, 884.45 61.29 M473.11 534.49 C589.21 400.93, 705.32 267.36, 884.45 61.29 M478.09 534.85 C605.92 387.8, 733.74 240.76, 888.13 63.16 M478.09 534.85 C629.66 360.49, 781.22 186.14, 888.13 63.16 M483.08 535.21 C583.11 420.14, 683.14 305.07, 892.46 64.27 M483.08 535.21 C607.69 391.86, 732.3 248.51, 892.46 64.27 M488.07 535.57 C586.38 422.47, 684.7 309.37, 896.14 66.14 M488.07 535.57 C582.34 427.13, 676.61 318.68, 896.14 66.14 M493.71 535.18 C601.7 410.95, 709.69 286.71, 899.81 68.01 M493.71 535.18 C654.4 350.32, 815.09 165.47, 899.81 68.01 M498.7 535.54 C592.17 428.01, 685.63 320.49, 904.14 69.13 M498.7 535.54 C609.93 407.57, 721.17 279.61, 904.14 69.13 M503.68 535.9 C590.42 436.12, 677.15 336.35, 907.82 71 M503.68 535.9 C584.87 442.5, 666.07 349.1, 907.82 71 M509.33 535.5 C665.58 355.75, 821.84 175.99, 911.49 72.86 M509.33 535.5 C628.05 398.93, 746.77 262.35, 911.49 72.86 M514.31 535.86 C608.56 427.45, 702.8 319.03, 915.17 74.73 M514.31 535.86 C631.1 401.51, 747.89 267.16, 915.17 74.73 M519.3 536.22 C627.72 411.5, 736.15 286.77, 918.84 76.6 M519.3 536.22 C625.44 414.12, 731.58 292.02, 918.84 76.6 M524.94 535.83 C632.51 412.09, 740.07 288.35, 922.52 78.47 M524.94 535.83 C630.26 414.67, 735.58 293.52, 922.52 78.47 M529.93 536.19 C682.05 361.2, 834.16 186.21, 926.19 80.34 M529.93 536.19 C622.8 429.36, 715.67 322.52, 926.19 80.34 M534.92 536.55 C678.09 371.84, 821.27 207.14, 929.87 82.21 M534.92 536.55 C632.07 424.78, 729.23 313.02, 929.87 82.21 M540.56 536.15 C650.35 409.86, 760.13 283.56, 933.54 84.08 M540.56 536.15 C629.59 433.74, 718.61 331.33, 933.54 84.08 M545.55 536.51 C683.03 378.36, 820.51 220.2, 937.21 85.95 M545.55 536.51 C696.59 362.76, 847.63 189.01, 937.21 85.95 M550.53 536.87 C651.86 420.31, 753.18 303.76, 940.89 87.82 M550.53 536.87 C684.81 382.41, 819.08 227.95, 940.89 87.82 M556.18 536.48 C701.63 369.15, 847.09 201.82, 944.56 89.69 M556.18 536.48 C696.54 375.02, 836.89 213.55, 944.56 89.69 M561.82 536.08 C667.95 414, 774.08 291.91, 948.24 91.56 M561.82 536.08 C664.22 418.28, 766.63 300.48, 948.24 91.56 M566.81 536.44 C709.26 372.58, 851.7 208.71, 951.91 93.43 M566.81 536.44 C673.63 413.56, 780.44 290.69, 951.91 93.43 M572.45 536.05 C657.83 437.84, 743.2 339.62, 954.93 96.05 M572.45 536.05 C704.24 384.45, 836.02 232.85, 954.93 96.05 M578.09 535.65 C719.83 372.61, 861.56 209.57, 958.61 97.92 M578.09 535.65 C716.71 376.2, 855.32 216.74, 958.61 97.92 M583.74 535.26 C679.25 425.38, 774.76 315.51, 962.28 99.79 M583.74 535.26 C702.63 398.49, 821.52 261.72, 962.28 99.79 M588.72 535.62 C670.08 442.03, 751.43 348.45, 965.3 102.42 M588.72 535.62 C693.93 414.6, 799.13 293.58, 965.3 102.42 M594.37 535.23 C690.81 424.28, 787.25 313.34, 968.98 104.29 M594.37 535.23 C737.32 370.78, 880.27 206.33, 968.98 104.29 M600.01 534.83 C686.75 435.05, 773.49 335.27, 972.65 106.16 M600.01 534.83 C676.93 446.34, 753.86 357.85, 972.65 106.16 M605.65 534.44 C747.19 371.62, 888.72 208.81, 975.67 108.78 M605.65 534.44 C728.4 393.23, 851.15 252.02, 975.67 108.78 M611.3 534.04 C741.33 384.45, 871.37 234.86, 979.35 110.65 M611.3 534.04 C742.27 383.37, 873.25 232.7, 979.35 110.65 M616.94 533.65 C733.83 399.19, 850.71 264.72, 982.36 113.27 M616.94 533.65 C699.4 438.79, 781.85 343.94, 982.36 113.27 M622.58 533.25 C697.59 446.97, 772.6 360.68, 985.38 115.9 M622.58 533.25 C718.58 422.82, 814.58 312.39, 985.38 115.9 M628.23 532.86 C704.12 445.56, 780.01 358.26, 989.06 117.77 M628.23 532.86 C736.85 407.9, 845.47 282.95, 989.06 117.77 M633.87 532.46 C712.89 441.56, 791.9 350.67, 992.08 120.39 M633.87 532.46 C739.95 410.43, 846.03 288.4, 992.08 120.39 M639.51 532.07 C761.51 391.72, 883.51 251.38, 995.1 123.02 M639.51 532.07 C736.29 420.74, 833.07 309.4, 995.1 123.02 M645.15 531.67 C758.59 401.18, 872.03 270.69, 998.77 124.89 M645.15 531.67 C765.58 393.15, 886 254.62, 998.77 124.89 M650.8 531.28 C740.61 427.96, 830.42 324.64, 1001.79 127.51 M650.8 531.28 C731.5 438.44, 812.21 345.6, 1001.79 127.51 M657.1 530.13 C737.68 437.43, 818.26 344.74, 1004.81 130.13 M657.1 530.13 C766.43 404.36, 875.77 278.58, 1004.81 130.13 M662.74 529.74 C743.76 436.54, 824.77 343.34, 1007.83 132.76 M662.74 529.74 C780.66 394.09, 898.58 258.44, 1007.83 132.76 M669.04 528.59 C797.65 380.64, 926.26 232.69, 1010.85 135.38 M669.04 528.59 C758.26 425.95, 847.48 323.32, 1010.85 135.38 M674.68 528.19 C747.37 444.57, 820.06 360.95, 1013.86 138.01 M674.68 528.19 C793.89 391.06, 913.1 253.92, 1013.86 138.01 M680.98 527.04 C807.16 381.89, 933.33 236.75, 1016.88 140.63 M680.98 527.04 C764.97 430.43, 848.95 333.81, 1016.88 140.63 M686.62 526.65 C779.1 420.26, 871.59 313.88, 1019.9 143.26 M686.62 526.65 C779.86 419.4, 873.09 312.15, 1019.9 143.26 M692.92 525.5 C808.27 392.81, 923.62 260.12, 1022.92 145.88 M692.92 525.5 C784.59 420.05, 876.26 314.59, 1022.92 145.88 M698.57 525.1 C814.79 391.41, 931.01 257.71, 1025.28 149.26 M698.57 525.1 C804.3 403.47, 910.04 281.83, 1025.28 149.26 M704.87 523.95 C774.77 443.54, 844.67 363.13, 1028.3 151.88 M704.87 523.95 C823.62 387.34, 942.37 250.73, 1028.3 151.88 M711.17 522.81 C816.45 401.68, 921.74 280.56, 1031.32 154.51 M711.17 522.81 C825.4 391.4, 939.63 259.99, 1031.32 154.51 M716.81 522.41 C841.01 379.53, 965.22 236.64, 1033.68 157.89 M716.81 522.41 C801.6 424.86, 886.4 327.32, 1033.68 157.89 M723.11 521.26 C825.1 403.93, 927.09 286.61, 1036.7 160.51 M723.11 521.26 C795.06 438.49, 867.01 355.72, 1036.7 160.51 M729.41 520.11 C819.86 416.06, 910.3 312.01, 1039.07 163.89 M729.41 520.11 C839.37 393.62, 949.33 267.12, 1039.07 163.89 M735.71 518.96 C803.58 440.88, 871.45 362.8, 1042.09 166.51 M735.71 518.96 C817.93 424.38, 900.15 329.79, 1042.09 166.51 M742.66 517.06 C812.05 437.23, 881.44 357.41, 1044.45 169.89 M742.66 517.06 C842.92 401.72, 943.18 286.39, 1044.45 169.89 M748.96 515.91 C851.11 398.4, 953.26 280.89, 1046.81 173.27 M748.96 515.91 C861.22 386.77, 973.49 257.62, 1046.81 173.27 M755.26 514.76 C848.55 407.45, 941.83 300.13, 1049.17 176.65 M755.26 514.76 C851.69 403.83, 948.12 292.9, 1049.17 176.65 M762.21 512.86 C867.27 392.01, 972.32 271.16, 1051.54 180.03 M762.21 512.86 C859.13 401.37, 956.05 289.88, 1051.54 180.03 M767.86 512.46 C872.21 392.42, 976.55 272.38, 1053.9 183.41 M767.86 512.46 C881.82 381.36, 995.78 250.27, 1053.9 183.41 M774.81 510.56 C832.23 444.5, 889.65 378.45, 1056.26 186.79 M774.81 510.56 C858.98 413.74, 943.14 316.92, 1056.26 186.79 M781.77 508.65 C887.22 387.34, 992.68 266.02, 1058.62 190.17 M781.77 508.65 C844.17 436.86, 906.58 365.07, 1058.62 190.17 M788.72 506.75 C880.25 401.46, 971.78 296.16, 1060.99 193.55 M788.72 506.75 C870.98 412.12, 953.24 317.5, 1060.99 193.55 M795.68 504.85 C868.55 421.01, 941.43 337.18, 1062.69 197.68 M795.68 504.85 C853.87 437.91, 912.05 370.97, 1062.69 197.68 M802.63 502.94 C875.72 418.86, 948.82 334.78, 1065.06 201.06 M802.63 502.94 C895.49 396.13, 988.34 289.31, 1065.06 201.06 M809.59 501.04 C898.7 398.53, 987.81 296.02, 1066.76 205.19 M809.59 501.04 C863.93 438.52, 918.27 376.01, 1066.76 205.19 M817.2 498.38 C892.18 412.13, 967.16 325.87, 1068.47 209.32 M817.2 498.38 C902.71 400.01, 988.22 301.64, 1068.47 209.32 M824.15 496.47 C874.76 438.26, 925.36 380.05, 1070.18 213.46 M824.15 496.47 C914.57 392.47, 1004.98 288.46, 1070.18 213.46 M831.11 494.57 C906.14 408.26, 981.16 321.96, 1071.88 217.59 M831.11 494.57 C909.19 404.75, 987.27 314.92, 1071.88 217.59 M838.07 492.67 C897.82 423.92, 957.58 355.18, 1074.25 220.97 M838.07 492.67 C903.02 417.94, 967.98 343.22, 1074.25 220.97 M845.02 490.76 C933.07 389.47, 1021.12 288.18, 1075.3 225.86 M845.02 490.76 C901.45 425.85, 957.88 360.93, 1075.3 225.86 M852.63 488.1 C940.01 387.58, 1027.39 287.06, 1077 229.99 M852.63 488.1 C908.48 423.85, 964.34 359.6, 1077 229.99 M860.9 484.69 C909.4 428.89, 957.91 373.09, 1078.05 234.88 M860.9 484.69 C908.34 430.12, 955.77 375.55, 1078.05 234.88 M868.51 482.03 C934.71 405.88, 1000.91 329.72, 1079.11 239.77 M868.51 482.03 C917.12 426.11, 965.74 370.18, 1079.11 239.77 M876.12 479.37 C936.45 409.97, 996.79 340.56, 1080.16 244.66 M876.12 479.37 C924.45 423.78, 972.78 368.18, 1080.16 244.66 M884.39 475.96 C928.79 424.89, 973.18 373.81, 1081.21 249.55 M884.39 475.96 C941.26 410.54, 998.13 345.12, 1081.21 249.55 M892.66 472.55 C951.03 405.4, 1009.4 338.25, 1081.6 255.19 M892.66 472.55 C943.54 414.01, 994.42 355.48, 1081.6 255.19 M902.24 467.62 C959.64 401.58, 1017.05 335.54, 1082 260.83 M902.24 467.62 C959.4 401.86, 1016.56 336.1, 1082 260.83 M910.5 464.21 C965.47 400.98, 1020.44 337.74, 1081.73 267.23 M910.5 464.21 C972.36 393.05, 1034.22 321.89, 1081.73 267.23 M919.43 460.04 C966.68 405.68, 1013.93 351.32, 1082.13 272.87 M919.43 460.04 C974.63 396.53, 1029.84 333.02, 1082.13 272.87 M928.35 455.87 C964.95 413.77, 1001.55 371.67, 1081.87 279.27 M928.35 455.87 C979.75 396.74, 1031.15 337.61, 1081.87 279.27 M937.93 450.95 C971.1 412.79, 1004.27 374.64, 1080.95 286.42 M937.93 450.95 C966.64 417.92, 995.36 384.89, 1080.95 286.42 M948.16 445.27 C989.83 397.35, 1031.49 349.42, 1080.03 293.58 M948.16 445.27 C986.23 401.48, 1024.3 357.68, 1080.03 293.58 M958.4 439.6 C998.45 393.53, 1038.49 347.46, 1077.8 302.24 M958.4 439.6 C991.45 401.57, 1024.5 363.55, 1077.8 302.24 M969.95 432.41 C996.92 401.38, 1023.89 370.36, 1074.92 311.66 M969.95 432.41 C1001.24 396.41, 1032.53 360.42, 1074.92 311.66 M982.15 424.47 C1017.03 384.35, 1051.9 344.23, 1071.38 321.83 M982.15 424.47 C1015.02 386.65, 1047.89 348.84, 1071.38 321.83 M1000.26 409.73 C1020.39 386.58, 1040.52 363.42, 1064.55 335.77 M1000.26 409.73 C1020.5 386.45, 1040.73 363.18, 1064.55 335.77 M1021.65 391.23 C1030.49 381.05, 1039.34 370.88, 1052.48 355.75 M1021.65 391.23 C1027.91 384.02, 1034.18 376.81, 1052.48 355.75" stroke="#b2f2bb" stroke-width="0.5" fill="none"></path><path d="M1081.9 268.1 C1081.9 272.35, 1081.7 276.6, 1081.29 280.85 C1080.88 285.1, 1080.27 289.35, 1079.46 293.58 C1078.64 297.81, 1077.62 302.04, 1076.4 306.25 C1075.18 310.46, 1073.75 314.66, 1072.13 318.83 C1070.51 323.01, 1068.68 327.17, 1066.66 331.3 C1064.63 335.43, 1062.41 339.55, 1059.99 343.63 C1057.58 347.71, 1054.96 351.76, 1052.15 355.78 C1049.35 359.8, 1046.34 363.79, 1043.16 367.74 C1039.97 371.68, 1036.58 375.6, 1033.02 379.47 C1029.46 383.33, 1025.7 387.16, 1021.77 390.94 C1017.84 394.72, 1013.72 398.46, 1009.43 402.14 C1005.14 405.83, 1000.67 409.46, 996.03 413.04 C991.39 416.62, 986.58 420.14, 981.6 423.61 C976.62 427.07, 971.47 430.48, 966.17 433.82 C960.87 437.16, 955.4 440.45, 949.78 443.66 C944.16 446.87, 938.38 450.02, 932.46 453.1 C926.54 456.18, 920.46 459.19, 914.25 462.12 C908.04 465.06, 901.69 467.92, 895.2 470.71 C888.72 473.49, 882.09 476.2, 875.35 478.83 C868.6 481.46, 861.72 484.01, 854.74 486.48 C847.75 488.95, 840.63 491.33, 833.41 493.63 C826.2 495.93, 818.86 498.15, 811.43 500.27 C804 502.4, 796.46 504.44, 788.83 506.39 C781.21 508.34, 773.48 510.2, 765.67 511.96 C757.87 513.73, 749.97 515.41, 742 516.99 C734.04 518.57, 725.99 520.05, 717.88 521.45 C709.77 522.84, 701.59 524.13, 693.36 525.33 C685.12 526.53, 676.82 527.63, 668.49 528.63 C660.15 529.64, 651.75 530.54, 643.33 531.35 C634.9 532.15, 626.43 532.86, 617.94 533.46 C609.45 534.07, 600.91 534.57, 592.37 534.98 C583.83 535.38, 575.26 535.68, 566.69 535.89 C558.12 536.09, 549.53 536.19, 540.95 536.19 C532.37 536.19, 523.78 536.09, 515.21 535.89 C506.64 535.68, 498.07 535.38, 489.53 534.98 C480.99 534.57, 472.46 534.07, 463.97 533.46 C455.47 532.86, 447 532.15, 438.58 531.35 C430.15 530.54, 421.76 529.64, 413.42 528.63 C405.08 527.63, 396.78 526.53, 388.55 525.33 C380.32 524.13, 372.13 522.84, 364.02 521.45 C355.92 520.05, 347.87 518.57, 339.9 516.99 C331.94 515.41, 324.04 513.73, 316.23 511.96 C308.43 510.2, 300.7 508.34, 293.07 506.39 C285.45 504.44, 277.91 502.4, 270.48 500.27 C263.05 498.15, 255.71 495.93, 248.49 493.63 C241.27 491.33, 234.16 488.95, 227.17 486.48 C220.18 484.01, 213.3 481.46, 206.56 478.83 C199.81 476.2, 193.19 473.49, 186.7 470.71 C180.22 467.92, 173.86 465.06, 167.65 462.12 C161.44 459.19, 155.37 456.18, 149.45 453.1 C143.53 450.02, 137.75 446.87, 132.13 443.66 C126.51 440.45, 121.04 437.16, 115.74 433.82 C110.43 430.48, 105.28 427.07, 100.31 423.61 C95.33 420.14, 90.51 416.62, 85.87 413.04 C81.24 409.46, 76.76 405.83, 72.47 402.14 C68.18 398.46, 64.07 394.72, 60.13 390.94 C56.2 387.16, 52.45 383.33, 48.88 379.47 C45.32 375.6, 41.94 371.68, 38.75 367.74 C35.56 363.79, 32.56 359.8, 29.75 355.78 C26.95 351.76, 24.33 347.71, 21.91 343.63 C19.5 339.55, 17.27 335.43, 15.25 331.3 C13.23 327.17, 11.4 323.01, 9.78 318.83 C8.15 314.66, 6.73 310.46, 5.51 306.25 C4.29 302.04, 3.27 297.81, 2.45 293.58 C1.63 289.35, 1.02 285.1, 0.61 280.85 C0.2 276.6, 0 272.35, 0 268.1 C0 263.84, 0.2 259.59, 0.61 255.34 C1.02 251.09, 1.63 246.84, 2.45 242.61 C3.27 238.38, 4.29 234.15, 5.51 229.94 C6.73 225.73, 8.15 221.53, 9.78 217.36 C11.4 213.18, 13.23 209.02, 15.25 204.89 C17.27 200.76, 19.5 196.64, 21.91 192.56 C24.33 188.48, 26.95 184.43, 29.75 180.41 C32.56 176.39, 35.56 172.4, 38.75 168.45 C41.94 164.51, 45.32 160.59, 48.88 156.72 C52.45 152.86, 56.2 149.03, 60.13 145.25 C64.07 141.47, 68.18 137.73, 72.47 134.05 C76.76 130.37, 81.24 126.73, 85.87 123.15 C90.51 119.57, 95.33 116.05, 100.31 112.58 C105.28 109.12, 110.43 105.71, 115.74 102.37 C121.04 99.03, 126.51 95.74, 132.13 92.53 C137.75 89.32, 143.53 86.17, 149.45 83.09 C155.37 80.01, 161.44 77, 167.65 74.07 C173.86 71.13, 180.22 68.27, 186.7 65.48 C193.19 62.7, 199.81 59.99, 206.56 57.36 C213.3 54.73, 220.18 52.18, 227.17 49.71 C234.16 47.24, 241.27 44.86, 248.49 42.56 C255.71 40.26, 263.05 38.04, 270.48 35.92 C277.91 33.79, 285.45 31.75, 293.07 29.8 C300.7 27.85, 308.43 25.99, 316.23 24.23 C324.04 22.46, 331.94 20.78, 339.9 19.2 C347.87 17.62, 355.92 16.14, 364.02 14.75 C372.13 13.35, 380.32 12.06, 388.55 10.86 C396.78 9.66, 405.08 8.56, 413.42 7.56 C421.76 6.55, 430.15 5.65, 438.58 4.84 C447 4.04, 455.47 3.33, 463.97 2.73 C472.46 2.12, 480.99 1.62, 489.53 1.21 C498.07 0.81, 506.64 0.51, 515.21 0.3 C523.78 0.1, 532.37 0, 540.95 0 C549.53 0, 558.12 0.1, 566.69 0.3 C575.26 0.51, 583.83 0.81, 592.37 1.21 C600.91 1.62, 609.45 2.12, 617.94 2.73 C626.43 3.33, 634.9 4.04, 643.33 4.84 C651.75 5.65, 660.15 6.55, 668.49 7.56 C676.82 8.56, 685.12 9.66, 693.36 10.86 C701.59 12.06, 709.77 13.35, 717.88 14.75 C725.99 16.14, 734.04 17.62, 742 19.2 C749.97 20.78, 757.87 22.46, 765.67 24.23 C773.48 25.99, 781.21 27.85, 788.83 29.8 C796.46 31.75, 804 33.79, 811.43 35.92 C818.86 38.04, 826.2 40.26, 833.41 42.56 C840.63 44.86, 847.75 47.24, 854.74 49.71 C861.72 52.18, 868.6 54.73, 875.35 57.36 C882.09 59.99, 888.72 62.7, 895.2 65.48 C901.69 68.27, 908.04 71.13, 914.25 74.07 C920.46 77, 926.54 80.01, 932.46 83.09 C938.38 86.17, 944.16 89.32, 949.78 92.53 C955.4 95.74, 960.87 99.03, 966.17 102.37 C971.47 105.71, 976.62 109.12, 981.6 112.58 C986.58 116.05, 991.39 119.57, 996.03 123.15 C1000.67 126.73, 1005.14 130.37, 1009.43 134.05 C1013.72 137.73, 1017.84 141.47, 1021.77 145.25 C1025.7 149.03, 1029.46 152.86, 1033.02 156.72 C1036.58 160.59, 1039.97 164.51, 1043.16 168.45 C1046.34 172.4, 1049.35 176.39, 1052.15 180.41 C1054.96 184.43, 1057.58 188.48, 1059.99 192.56 C1062.41 196.64, 1064.63 200.76, 1066.66 204.89 C1068.68 209.02, 1070.51 213.18, 1072.13 217.36 C1073.75 221.53, 1075.18 225.73, 1076.4 229.94 C1077.62 234.15, 1078.64 238.38, 1079.46 242.61 C1080.27 246.84, 1080.88 251.09, 1081.29 255.34 C1081.7 259.59, 1081.9 263.84, 1081.9 268.1" stroke="#1e1e1e" stroke-width="1" fill="none"></path></g><g stroke-linecap="round" transform="translate(573.4285627092632 182.5000050862629) rotate(0 224.66668701171875 117.33334350585938)"><path d="M449.33 117.33 C449.33 120.12, 449.14 122.92, 448.76 125.7 C448.38 128.49, 447.81 131.27, 447.05 134.03 C446.29 136.79, 445.33 139.55, 444.2 142.27 C443.06 145, 441.74 147.71, 440.23 150.39 C438.73 153.07, 437.04 155.72, 435.17 158.34 C433.3 160.95, 431.25 163.54, 429.03 166.08 C426.81 168.61, 424.41 171.12, 421.85 173.57 C419.29 176.01, 416.56 178.42, 413.67 180.77 C410.78 183.12, 407.72 185.41, 404.52 187.65 C401.32 189.88, 397.96 192.06, 394.46 194.17 C390.96 196.28, 387.31 198.33, 383.53 200.3 C379.75 202.27, 375.83 204.18, 371.79 206.01 C367.75 207.84, 363.58 209.59, 359.3 211.26 C355.03 212.94, 350.63 214.53, 346.13 216.04 C341.64 217.55, 337.03 218.98, 332.34 220.31 C327.65 221.65, 322.86 222.9, 318 224.06 C313.14 225.22, 308.19 226.29, 303.18 227.27 C298.17 228.24, 293.09 229.13, 287.96 229.91 C282.84 230.7, 277.64 231.39, 272.42 231.99 C267.2 232.58, 261.93 233.08, 256.64 233.47 C251.35 233.87, 246.02 234.17, 240.69 234.37 C235.37 234.57, 230.01 234.67, 224.67 234.67 C219.32 234.67, 213.97 234.57, 208.64 234.37 C203.31 234.17, 197.98 233.87, 192.69 233.47 C187.41 233.08, 182.13 232.58, 176.91 231.99 C171.69 231.39, 166.5 230.7, 161.37 229.91 C156.24 229.13, 151.16 228.24, 146.15 227.27 C141.15 226.29, 136.2 225.22, 131.34 224.06 C126.48 222.9, 121.68 221.65, 117 220.31 C112.31 218.98, 107.7 217.55, 103.2 216.04 C98.71 214.53, 94.31 212.94, 90.03 211.26 C85.75 209.59, 81.58 207.84, 77.54 206.01 C73.5 204.18, 69.58 202.27, 65.8 200.3 C62.03 198.33, 58.37 196.28, 54.87 194.17 C51.38 192.06, 48.01 189.88, 44.81 187.65 C41.61 185.41, 38.55 183.12, 35.67 180.77 C32.78 178.42, 30.04 176.01, 27.48 173.57 C24.92 171.12, 22.52 168.61, 20.3 166.08 C18.08 163.54, 16.03 160.95, 14.17 158.34 C12.3 155.72, 10.61 153.07, 9.1 150.39 C7.6 147.71, 6.27 145, 5.13 142.27 C4 139.55, 3.05 136.79, 2.29 134.03 C1.53 131.27, 0.95 128.49, 0.57 125.7 C0.19 122.92, 0 120.12, 0 117.33 C0 114.54, 0.19 111.75, 0.57 108.96 C0.95 106.18, 1.53 103.4, 2.29 100.64 C3.05 97.87, 4 95.12, 5.13 92.39 C6.27 89.67, 7.6 86.95, 9.1 84.28 C10.61 81.6, 12.3 78.94, 14.17 76.33 C16.03 73.72, 18.08 71.13, 20.3 68.59 C22.52 66.05, 24.92 63.55, 27.48 61.1 C30.04 58.65, 32.78 56.25, 35.67 53.9 C38.55 51.55, 41.61 49.25, 44.81 47.02 C48.01 44.78, 51.38 42.61, 54.87 40.5 C58.37 38.39, 62.03 36.34, 65.8 34.37 C69.58 32.39, 73.5 30.49, 77.54 28.66 C81.58 26.83, 85.75 25.08, 90.03 23.4 C94.31 21.73, 98.71 20.13, 103.2 18.63 C107.7 17.12, 112.31 15.69, 117 14.35 C121.68 13.02, 126.48 11.76, 131.34 10.6 C136.2 9.44, 141.15 8.37, 146.15 7.4 C151.16 6.42, 156.24 5.54, 161.37 4.75 C166.5 3.97, 171.69 3.27, 176.91 2.68 C182.13 2.09, 187.41 1.59, 192.69 1.19 C197.98 0.8, 203.31 0.5, 208.64 0.3 C213.97 0.1, 219.32 0, 224.67 0 C230.01 0, 235.37 0.1, 240.69 0.3 C246.02 0.5, 251.35 0.8, 256.64 1.19 C261.93 1.59, 267.2 2.09, 272.42 2.68 C277.64 3.27, 282.84 3.97, 287.96 4.75 C293.09 5.54, 298.17 6.42, 303.18 7.4 C308.19 8.37, 313.14 9.44, 318 10.6 C322.86 11.76, 327.65 13.02, 332.34 14.35 C337.03 15.69, 341.64 17.12, 346.13 18.63 C350.63 20.13, 355.03 21.73, 359.3 23.4 C363.58 25.08, 367.75 26.83, 371.79 28.66 C375.83 30.49, 379.75 32.39, 383.53 34.37 C387.31 36.34, 390.96 38.39, 394.46 40.5 C397.96 42.61, 401.32 44.78, 404.52 47.02 C407.72 49.25, 410.78 51.55, 413.67 53.9 C416.56 56.25, 419.29 58.65, 421.85 61.1 C424.41 63.55, 426.81 66.05, 429.03 68.59 C431.25 71.13, 433.3 73.72, 435.17 76.33 C437.04 78.94, 438.73 81.6, 440.23 84.28 C441.74 86.95, 443.06 89.67, 444.2 92.39 C445.33 95.12, 446.29 97.87, 447.05 100.64 C447.81 103.4, 448.38 106.18, 448.76 108.96 C449.14 111.75, 449.33 114.54, 449.33 117.33" stroke="none" stroke-width="0" fill="#a5d8ff"></path><path d="M449.33 117.33 C449.33 120.12, 449.14 122.92, 448.76 125.7 C448.38 128.49, 447.81 131.27, 447.05 134.03 C446.29 136.79, 445.33 139.55, 444.2 142.27 C443.06 145, 441.74 147.71, 440.23 150.39 C438.73 153.07, 437.04 155.72, 435.17 158.34 C433.3 160.95, 431.25 163.54, 429.03 166.08 C426.81 168.61, 424.41 171.12, 421.85 173.57 C419.29 176.01, 416.56 178.42, 413.67 180.77 C410.78 183.12, 407.72 185.41, 404.52 187.65 C401.32 189.88, 397.96 192.06, 394.46 194.17 C390.96 196.28, 387.31 198.33, 383.53 200.3 C379.75 202.27, 375.83 204.18, 371.79 206.01 C367.75 207.84, 363.58 209.59, 359.3 211.26 C355.03 212.94, 350.63 214.53, 346.13 216.04 C341.64 217.55, 337.03 218.98, 332.34 220.31 C327.65 221.65, 322.86 222.9, 318 224.06 C313.14 225.22, 308.19 226.29, 303.18 227.27 C298.17 228.24, 293.09 229.13, 287.96 229.91 C282.84 230.7, 277.64 231.39, 272.42 231.99 C267.2 232.58, 261.93 233.08, 256.64 233.47 C251.35 233.87, 246.02 234.17, 240.69 234.37 C235.37 234.57, 230.01 234.67, 224.67 234.67 C219.32 234.67, 213.97 234.57, 208.64 234.37 C203.31 234.17, 197.98 233.87, 192.69 233.47 C187.41 233.08, 182.13 232.58, 176.91 231.99 C171.69 231.39, 166.5 230.7, 161.37 229.91 C156.24 229.13, 151.16 228.24, 146.15 227.27 C141.15 226.29, 136.2 225.22, 131.34 224.06 C126.48 222.9, 121.68 221.65, 117 220.31 C112.31 218.98, 107.7 217.55, 103.2 216.04 C98.71 214.53, 94.31 212.94, 90.03 211.26 C85.75 209.59, 81.58 207.84, 77.54 206.01 C73.5 204.18, 69.58 202.27, 65.8 200.3 C62.03 198.33, 58.37 196.28, 54.87 194.17 C51.38 192.06, 48.01 189.88, 44.81 187.65 C41.61 185.41, 38.55 183.12, 35.67 180.77 C32.78 178.42, 30.04 176.01, 27.48 173.57 C24.92 171.12, 22.52 168.61, 20.3 166.08 C18.08 163.54, 16.03 160.95, 14.17 158.34 C12.3 155.72, 10.61 153.07, 9.1 150.39 C7.6 147.71, 6.27 145, 5.13 142.27 C4 139.55, 3.05 136.79, 2.29 134.03 C1.53 131.27, 0.95 128.49, 0.57 125.7 C0.19 122.92, 0 120.12, 0 117.33 C0 114.54, 0.19 111.75, 0.57 108.96 C0.95 106.18, 1.53 103.4, 2.29 100.64 C3.05 97.87, 4 95.12, 5.13 92.39 C6.27 89.67, 7.6 86.95, 9.1 84.28 C10.61 81.6, 12.3 78.94, 14.17 76.33 C16.03 73.72, 18.08 71.13, 20.3 68.59 C22.52 66.05, 24.92 63.55, 27.48 61.1 C30.04 58.65, 32.78 56.25, 35.67 53.9 C38.55 51.55, 41.61 49.25, 44.81 47.02 C48.01 44.78, 51.38 42.61, 54.87 40.5 C58.37 38.39, 62.03 36.34, 65.8 34.37 C69.58 32.39, 73.5 30.49, 77.54 28.66 C81.58 26.83, 85.75 25.08, 90.03 23.4 C94.31 21.73, 98.71 20.13, 103.2 18.63 C107.7 17.12, 112.31 15.69, 117 14.35 C121.68 13.02, 126.48 11.76, 131.34 10.6 C136.2 9.44, 141.15 8.37, 146.15 7.4 C151.16 6.42, 156.24 5.54, 161.37 4.75 C166.5 3.97, 171.69 3.27, 176.91 2.68 C182.13 2.09, 187.41 1.59, 192.69 1.19 C197.98 0.8, 203.31 0.5, 208.64 0.3 C213.97 0.1, 219.32 0, 224.67 0 C230.01 0, 235.37 0.1, 240.69 0.3 C246.02 0.5, 251.35 0.8, 256.64 1.19 C261.93 1.59, 267.2 2.09, 272.42 2.68 C277.64 3.27, 282.84 3.97, 287.96 4.75 C293.09 5.54, 298.17 6.42, 303.18 7.4 C308.19 8.37, 313.14 9.44, 318 10.6 C322.86 11.76, 327.65 13.02, 332.34 14.35 C337.03 15.69, 341.64 17.12, 346.13 18.63 C350.63 20.13, 355.03 21.73, 359.3 23.4 C363.58 25.08, 367.75 26.83, 371.79 28.66 C375.83 30.49, 379.75 32.39, 383.53 34.37 C387.31 36.34, 390.96 38.39, 394.46 40.5 C397.96 42.61, 401.32 44.78, 404.52 47.02 C407.72 49.25, 410.78 51.55, 413.67 53.9 C416.56 56.25, 419.29 58.65, 421.85 61.1 C424.41 63.55, 426.81 66.05, 429.03 68.59 C431.25 71.13, 433.3 73.72, 435.17 76.33 C437.04 78.94, 438.73 81.6, 440.23 84.28 C441.74 86.95, 443.06 89.67, 444.2 92.39 C445.33 95.12, 446.29 97.87, 447.05 100.64 C447.81 103.4, 448.38 106.18, 448.76 108.96 C449.14 111.75, 449.33 114.54, 449.33 117.33" stroke="#1e1e1e" stroke-width="1" fill="none"></path></g><g transform="translate(629.9494367327007 242.33341471354157) rotate(0 172.265625 50.400000000000006)"><text x="172.265625" y="27.0375" font-family="Cascadia, Segoe UI Emoji" font-size="28px" fill="#1e1e1e" text-anchor="middle" style="white-space: pre;" direction="ltr" dominant-baseline="alphabetic">Value Binding</text><text x="172.265625" y="60.6375" font-family="Cascadia, Segoe UI Emoji" font-size="28px" fill="#1e1e1e" text-anchor="middle" style="white-space: pre;" direction="ltr" dominant-baseline="alphabetic"></text><text x="172.265625" y="94.23750000000001" font-family="Cascadia, Segoe UI Emoji" font-size="28px" fill="#1e1e1e" text-anchor="middle" style="white-space: pre;" direction="ltr" dominant-baseline="alphabetic">let %var = Op .., ...</text></g><g stroke-linecap="round" transform="translate(1108.2855922154013 167.80950637090774) rotate(0 200.66668701171875 121.33334350585938)"><path d="M401.33 121.33 C401.33 124.36, 401.15 127.39, 400.77 130.4 C400.4 133.41, 399.84 136.43, 399.09 139.42 C398.35 142.41, 397.41 145.39, 396.3 148.33 C395.19 151.28, 393.89 154.21, 392.42 157.1 C390.94 159.99, 389.29 162.85, 387.46 165.66 C385.64 168.47, 383.63 171.25, 381.46 173.98 C379.29 176.7, 376.95 179.38, 374.45 182 C371.95 184.62, 369.28 187.19, 366.47 189.68 C363.65 192.18, 360.67 194.62, 357.55 196.98 C354.44 199.35, 351.17 201.65, 347.77 203.86 C344.37 206.08, 340.82 208.22, 337.15 210.28 C333.49 212.33, 329.69 214.31, 325.78 216.2 C321.87 218.08, 317.84 219.88, 313.71 221.58 C309.58 223.29, 305.33 224.9, 301 226.41 C296.67 227.92, 292.24 229.34, 287.73 230.65 C283.23 231.96, 278.63 233.18, 273.98 234.28 C269.33 235.38, 264.59 236.39, 259.81 237.28 C255.04 238.17, 250.19 238.95, 245.32 239.62 C240.45 240.3, 235.52 240.86, 230.57 241.31 C225.63 241.76, 220.65 242.1, 215.66 242.33 C210.68 242.55, 205.67 242.67, 200.67 242.67 C195.67 242.67, 190.66 242.55, 185.67 242.33 C180.69 242.1, 175.7 241.76, 170.76 241.31 C165.82 240.86, 160.89 240.3, 156.01 239.62 C151.14 238.95, 146.3 238.17, 141.52 237.28 C136.74 236.39, 132.01 235.38, 127.35 234.28 C122.7 233.18, 118.1 231.96, 113.6 230.65 C109.1 229.34, 104.66 227.92, 100.33 226.41 C96 224.9, 91.76 223.29, 87.63 221.58 C83.5 219.88, 79.46 218.08, 75.55 216.2 C71.64 214.31, 67.84 212.33, 64.18 210.28 C60.51 208.22, 56.97 206.08, 53.57 203.86 C50.17 201.65, 46.9 199.35, 43.78 196.98 C40.66 194.62, 37.68 192.18, 34.87 189.68 C32.05 187.19, 29.38 184.62, 26.88 182 C24.38 179.38, 22.04 176.7, 19.87 173.98 C17.7 171.25, 15.7 168.47, 13.87 165.66 C12.05 162.85, 10.39 159.99, 8.92 157.1 C7.44 154.21, 6.14 151.28, 5.03 148.33 C3.92 145.39, 2.99 142.41, 2.24 139.42 C1.5 136.43, 0.93 133.41, 0.56 130.4 C0.19 127.39, 0 124.36, 0 121.33 C0 118.31, 0.19 115.28, 0.56 112.27 C0.93 109.25, 1.5 106.24, 2.24 103.25 C2.99 100.26, 3.92 97.28, 5.03 94.33 C6.14 91.39, 7.44 88.46, 8.92 85.57 C10.39 82.68, 12.05 79.82, 13.87 77.01 C15.7 74.19, 17.7 71.41, 19.87 68.69 C22.04 65.97, 24.38 63.28, 26.88 60.67 C29.38 58.05, 32.05 55.48, 34.87 52.98 C37.68 50.49, 40.66 48.05, 43.78 45.68 C46.9 43.32, 50.17 41.02, 53.57 38.81 C56.97 36.59, 60.51 34.45, 64.18 32.39 C67.84 30.33, 71.64 28.36, 75.55 26.47 C79.46 24.59, 83.5 22.79, 87.63 21.08 C91.76 19.38, 96 17.77, 100.33 16.26 C104.66 14.74, 109.1 13.33, 113.6 12.02 C118.1 10.7, 122.7 9.49, 127.35 8.39 C132.01 7.28, 136.74 6.28, 141.52 5.39 C146.3 4.5, 151.14 3.71, 156.01 3.04 C160.89 2.37, 165.82 1.81, 170.76 1.36 C175.7 0.9, 180.69 0.57, 185.67 0.34 C190.66 0.11, 195.67 0, 200.67 0 C205.67 0, 210.68 0.11, 215.66 0.34 C220.65 0.57, 225.63 0.9, 230.57 1.36 C235.52 1.81, 240.45 2.37, 245.32 3.04 C250.19 3.71, 255.04 4.5, 259.81 5.39 C264.59 6.28, 269.33 7.28, 273.98 8.39 C278.63 9.49, 283.23 10.7, 287.73 12.02 C292.24 13.33, 296.67 14.74, 301 16.26 C305.33 17.77, 309.58 19.38, 313.71 21.08 C317.84 22.79, 321.87 24.59, 325.78 26.47 C329.69 28.36, 333.49 30.33, 337.15 32.39 C340.82 34.45, 344.37 36.59, 347.77 38.81 C351.17 41.02, 354.44 43.32, 357.55 45.68 C360.67 48.05, 363.65 50.49, 366.47 52.98 C369.28 55.48, 371.95 58.05, 374.45 60.67 C376.95 63.28, 379.29 65.97, 381.46 68.69 C383.63 71.41, 385.64 74.19, 387.46 77.01 C389.29 79.82, 390.94 82.68, 392.42 85.57 C393.89 88.46, 395.19 91.39, 396.3 94.33 C397.41 97.28, 398.35 100.26, 399.09 103.25 C399.84 106.24, 400.4 109.25, 400.77 112.27 C401.15 115.28, 401.33 118.31, 401.33 121.33" stroke="none" stroke-width="0" fill="#ffec99"></path><path d="M401.33 121.33 C401.33 124.36, 401.15 127.39, 400.77 130.4 C400.4 133.41, 399.84 136.43, 399.09 139.42 C398.35 142.41, 397.41 145.39, 396.3 148.33 C395.19 151.28, 393.89 154.21, 392.42 157.1 C390.94 159.99, 389.29 162.85, 387.46 165.66 C385.64 168.47, 383.63 171.25, 381.46 173.98 C379.29 176.7, 376.95 179.38, 374.45 182 C371.95 184.62, 369.28 187.19, 366.47 189.68 C363.65 192.18, 360.67 194.62, 357.55 196.98 C354.44 199.35, 351.17 201.65, 347.77 203.86 C344.37 206.08, 340.82 208.22, 337.15 210.28 C333.49 212.33, 329.69 214.31, 325.78 216.2 C321.87 218.08, 317.84 219.88, 313.71 221.58 C309.58 223.29, 305.33 224.9, 301 226.41 C296.67 227.92, 292.24 229.34, 287.73 230.65 C283.23 231.96, 278.63 233.18, 273.98 234.28 C269.33 235.38, 264.59 236.39, 259.81 237.28 C255.04 238.17, 250.19 238.95, 245.32 239.62 C240.45 240.3, 235.52 240.86, 230.57 241.31 C225.63 241.76, 220.65 242.1, 215.66 242.33 C210.68 242.55, 205.67 242.67, 200.67 242.67 C195.67 242.67, 190.66 242.55, 185.67 242.33 C180.69 242.1, 175.7 241.76, 170.76 241.31 C165.82 240.86, 160.89 240.3, 156.01 239.62 C151.14 238.95, 146.3 238.17, 141.52 237.28 C136.74 236.39, 132.01 235.38, 127.35 234.28 C122.7 233.18, 118.1 231.96, 113.6 230.65 C109.1 229.34, 104.66 227.92, 100.33 226.41 C96 224.9, 91.76 223.29, 87.63 221.58 C83.5 219.88, 79.46 218.08, 75.55 216.2 C71.64 214.31, 67.84 212.33, 64.18 210.28 C60.51 208.22, 56.97 206.08, 53.57 203.86 C50.17 201.65, 46.9 199.35, 43.78 196.98 C40.66 194.62, 37.68 192.18, 34.87 189.68 C32.05 187.19, 29.38 184.62, 26.88 182 C24.38 179.38, 22.04 176.7, 19.87 173.98 C17.7 171.25, 15.7 168.47, 13.87 165.66 C12.05 162.85, 10.39 159.99, 8.92 157.1 C7.44 154.21, 6.14 151.28, 5.03 148.33 C3.92 145.39, 2.99 142.41, 2.24 139.42 C1.5 136.43, 0.93 133.41, 0.56 130.4 C0.19 127.39, 0 124.36, 0 121.33 C0 118.31, 0.19 115.28, 0.56 112.27 C0.93 109.25, 1.5 106.24, 2.24 103.25 C2.99 100.26, 3.92 97.28, 5.03 94.33 C6.14 91.39, 7.44 88.46, 8.92 85.57 C10.39 82.68, 12.05 79.82, 13.87 77.01 C15.7 74.19, 17.7 71.41, 19.87 68.69 C22.04 65.97, 24.38 63.28, 26.88 60.67 C29.38 58.05, 32.05 55.48, 34.87 52.98 C37.68 50.49, 40.66 48.05, 43.78 45.68 C46.9 43.32, 50.17 41.02, 53.57 38.81 C56.97 36.59, 60.51 34.45, 64.18 32.39 C67.84 30.33, 71.64 28.36, 75.55 26.47 C79.46 24.59, 83.5 22.79, 87.63 21.08 C91.76 19.38, 96 17.77, 100.33 16.26 C104.66 14.74, 109.1 13.33, 113.6 12.02 C118.1 10.7, 122.7 9.49, 127.35 8.39 C132.01 7.28, 136.74 6.28, 141.52 5.39 C146.3 4.5, 151.14 3.71, 156.01 3.04 C160.89 2.37, 165.82 1.81, 170.76 1.36 C175.7 0.9, 180.69 0.57, 185.67 0.34 C190.66 0.11, 195.67 0, 200.67 0 C205.67 0, 210.68 0.11, 215.66 0.34 C220.65 0.57, 225.63 0.9, 230.57 1.36 C235.52 1.81, 240.45 2.37, 245.32 3.04 C250.19 3.71, 255.04 4.5, 259.81 5.39 C264.59 6.28, 269.33 7.28, 273.98 8.39 C278.63 9.49, 283.23 10.7, 287.73 12.02 C292.24 13.33, 296.67 14.74, 301 16.26 C305.33 17.77, 309.58 19.38, 313.71 21.08 C317.84 22.79, 321.87 24.59, 325.78 26.47 C329.69 28.36, 333.49 30.33, 337.15 32.39 C340.82 34.45, 344.37 36.59, 347.77 38.81 C351.17 41.02, 354.44 43.32, 357.55 45.68 C360.67 48.05, 363.65 50.49, 366.47 52.98 C369.28 55.48, 371.95 58.05, 374.45 60.67 C376.95 63.28, 379.29 65.97, 381.46 68.69 C383.63 71.41, 385.64 74.19, 387.46 77.01 C389.29 79.82, 390.94 82.68, 392.42 85.57 C393.89 88.46, 395.19 91.39, 396.3 94.33 C397.41 97.28, 398.35 100.26, 399.09 103.25 C399.84 106.24, 400.4 109.25, 400.77 112.27 C401.15 115.28, 401.33 118.31, 401.33 121.33" stroke="#1e1e1e" stroke-width="1" fill="none"></path></g><g transform="translate(1200.4418422154013 231.409567406064) rotate(0 114.84375 50.400000000000006)"><text x="114.84375" y="27.0375" font-family="Cascadia, Segoe UI Emoji" font-size="28px" fill="#1e1e1e" text-anchor="middle" style="white-space: pre;" direction="ltr" dominant-baseline="alphabetic">Terminator</text><text x="114.84375" y="60.6375" font-family="Cascadia, Segoe UI Emoji" font-size="28px" fill="#1e1e1e" text-anchor="middle" style="white-space: pre;" direction="ltr" dominant-baseline="alphabetic"></text><text x="114.84375" y="94.23750000000001" font-family="Cascadia, Segoe UI Emoji" font-size="28px" fill="#1e1e1e" text-anchor="middle" style="white-space: pre;" direction="ltr" dominant-baseline="alphabetic">jmp / br / ret</text></g><g transform="translate(1052.6511230468755 75.29520612444196) rotate(0 116.015625 21.599999999999994)"><text x="116.015625" y="34.762499999999996" font-family="Cascadia, Segoe UI Emoji" font-size="36px" fill="#1e1e1e" text-anchor="middle" style="white-space: pre;" direction="ltr" dominant-baseline="alphabetic">Instruction</text></g><g stroke-linecap="round" transform="translate(84.66655622209817 193.2380894252231) rotate(0 202.85718645368297 105.23812430245533)"><path d="M405.71 105.24 C405.71 107.86, 405.52 110.49, 405.15 113.1 C404.77 115.72, 404.2 118.33, 403.45 120.92 C402.7 123.52, 401.75 126.1, 400.63 128.66 C399.5 131.21, 398.19 133.75, 396.7 136.26 C395.21 138.76, 393.54 141.25, 391.69 143.69 C389.85 146.13, 387.82 148.54, 385.63 150.9 C383.43 153.26, 381.06 155.59, 378.54 157.86 C376.01 160.13, 373.31 162.35, 370.47 164.52 C367.62 166.69, 364.61 168.8, 361.46 170.85 C358.31 172.9, 355 174.9, 351.56 176.82 C348.12 178.74, 344.54 180.6, 340.84 182.38 C337.13 184.17, 333.29 185.88, 329.34 187.52 C325.39 189.15, 321.31 190.71, 317.13 192.19 C312.96 193.67, 308.66 195.07, 304.29 196.38 C299.91 197.69, 295.43 198.92, 290.87 200.05 C286.32 201.19, 281.67 202.24, 276.97 203.2 C272.27 204.16, 267.48 205.03, 262.65 205.8 C257.82 206.57, 252.92 207.25, 248 207.84 C243.07 208.42, 238.09 208.91, 233.09 209.3 C228.09 209.69, 223.06 209.99, 218.02 210.18 C212.98 210.38, 207.91 210.48, 202.86 210.48 C197.8 210.48, 192.74 210.38, 187.7 210.18 C182.66 209.99, 177.62 209.69, 172.62 209.3 C167.63 208.91, 162.64 208.42, 157.72 207.84 C152.79 207.25, 147.89 206.57, 143.06 205.8 C138.24 205.03, 133.45 204.16, 128.75 203.2 C124.04 202.24, 119.39 201.19, 114.84 200.05 C110.29 198.92, 105.8 197.69, 101.43 196.38 C97.05 195.07, 92.76 193.67, 88.58 192.19 C84.41 190.71, 80.33 189.15, 76.38 187.52 C72.43 185.88, 68.58 184.17, 64.88 182.38 C61.18 180.6, 57.59 178.74, 54.15 176.82 C50.72 174.9, 47.41 172.9, 44.26 170.85 C41.11 168.8, 38.1 166.69, 35.25 164.52 C32.4 162.35, 29.7 160.13, 27.18 157.86 C24.65 155.59, 22.28 153.26, 20.09 150.9 C17.9 148.54, 15.87 146.13, 14.02 143.69 C12.18 141.25, 10.5 138.76, 9.01 136.26 C7.52 133.75, 6.21 131.21, 5.09 128.66 C3.96 126.1, 3.02 123.52, 2.27 120.92 C1.51 118.33, 0.94 115.72, 0.57 113.1 C0.19 110.49, 0 107.86, 0 105.24 C0 102.62, 0.19 99.99, 0.57 97.37 C0.94 94.76, 1.51 92.15, 2.27 89.55 C3.02 86.96, 3.96 84.38, 5.09 81.82 C6.21 79.26, 7.52 76.72, 9.01 74.22 C10.5 71.71, 12.18 69.23, 14.02 66.79 C15.87 64.35, 17.9 61.94, 20.09 59.58 C22.28 57.22, 24.65 54.89, 27.18 52.62 C29.7 50.35, 32.4 48.12, 35.25 45.96 C38.1 43.79, 41.11 41.67, 44.26 39.62 C47.41 37.57, 50.72 35.58, 54.15 33.66 C57.59 31.74, 61.18 29.88, 64.88 28.09 C68.58 26.31, 72.43 24.59, 76.38 22.96 C80.33 21.33, 84.41 19.76, 88.58 18.29 C92.76 16.81, 97.05 15.41, 101.43 14.1 C105.8 12.79, 110.29 11.56, 114.84 10.42 C119.39 9.28, 124.04 8.23, 128.75 7.27 C133.45 6.32, 138.24 5.45, 143.06 4.68 C147.89 3.9, 152.79 3.22, 157.72 2.64 C162.64 2.06, 167.63 1.57, 172.62 1.18 C177.62 0.78, 182.66 0.49, 187.7 0.29 C192.74 0.1, 197.8 0, 202.86 0 C207.91 0, 212.98 0.1, 218.02 0.29 C223.06 0.49, 228.09 0.78, 233.09 1.18 C238.09 1.57, 243.07 2.06, 248 2.64 C252.92 3.22, 257.82 3.9, 262.65 4.68 C267.48 5.45, 272.27 6.32, 276.97 7.27 C281.67 8.23, 286.32 9.28, 290.87 10.42 C295.43 11.56, 299.91 12.79, 304.29 14.1 C308.66 15.41, 312.96 16.81, 317.13 18.29 C321.31 19.76, 325.39 21.33, 329.34 22.96 C333.29 24.59, 337.13 26.31, 340.84 28.09 C344.54 29.88, 348.12 31.74, 351.56 33.66 C355 35.58, 358.31 37.57, 361.46 39.62 C364.61 41.67, 367.62 43.79, 370.47 45.96 C373.31 48.12, 376.01 50.35, 378.54 52.62 C381.06 54.89, 383.43 57.22, 385.63 59.58 C387.82 61.94, 389.85 64.35, 391.69 66.79 C393.54 69.23, 395.21 71.71, 396.7 74.22 C398.19 76.72, 399.5 79.26, 400.63 81.82 C401.75 84.38, 402.7 86.96, 403.45 89.55 C404.2 92.15, 404.77 94.76, 405.15 97.37 C405.52 99.99, 405.71 102.62, 405.71 105.24" stroke="none" stroke-width="0" fill="#a5d8ff"></path><path d="M405.71 105.24 C405.71 107.86, 405.52 110.49, 405.15 113.1 C404.77 115.72, 404.2 118.33, 403.45 120.92 C402.7 123.52, 401.75 126.1, 400.63 128.66 C399.5 131.21, 398.19 133.75, 396.7 136.26 C395.21 138.76, 393.54 141.25, 391.69 143.69 C389.85 146.13, 387.82 148.54, 385.63 150.9 C383.43 153.26, 381.06 155.59, 378.54 157.86 C376.01 160.13, 373.31 162.35, 370.47 164.52 C367.62 166.69, 364.61 168.8, 361.46 170.85 C358.31 172.9, 355 174.9, 351.56 176.82 C348.12 178.74, 344.54 180.6, 340.84 182.38 C337.13 184.17, 333.29 185.88, 329.34 187.52 C325.39 189.15, 321.31 190.71, 317.13 192.19 C312.96 193.67, 308.66 195.07, 304.29 196.38 C299.91 197.69, 295.43 198.92, 290.87 200.05 C286.32 201.19, 281.67 202.24, 276.97 203.2 C272.27 204.16, 267.48 205.03, 262.65 205.8 C257.82 206.57, 252.92 207.25, 248 207.84 C243.07 208.42, 238.09 208.91, 233.09 209.3 C228.09 209.69, 223.06 209.99, 218.02 210.18 C212.98 210.38, 207.91 210.48, 202.86 210.48 C197.8 210.48, 192.74 210.38, 187.7 210.18 C182.66 209.99, 177.62 209.69, 172.62 209.3 C167.63 208.91, 162.64 208.42, 157.72 207.84 C152.79 207.25, 147.89 206.57, 143.06 205.8 C138.24 205.03, 133.45 204.16, 128.75 203.2 C124.04 202.24, 119.39 201.19, 114.84 200.05 C110.29 198.92, 105.8 197.69, 101.43 196.38 C97.05 195.07, 92.76 193.67, 88.58 192.19 C84.41 190.71, 80.33 189.15, 76.38 187.52 C72.43 185.88, 68.58 184.17, 64.88 182.38 C61.18 180.6, 57.59 178.74, 54.15 176.82 C50.72 174.9, 47.41 172.9, 44.26 170.85 C41.11 168.8, 38.1 166.69, 35.25 164.52 C32.4 162.35, 29.7 160.13, 27.18 157.86 C24.65 155.59, 22.28 153.26, 20.09 150.9 C17.9 148.54, 15.87 146.13, 14.02 143.69 C12.18 141.25, 10.5 138.76, 9.01 136.26 C7.52 133.75, 6.21 131.21, 5.09 128.66 C3.96 126.1, 3.02 123.52, 2.27 120.92 C1.51 118.33, 0.94 115.72, 0.57 113.1 C0.19 110.49, 0 107.86, 0 105.24 C0 102.62, 0.19 99.99, 0.57 97.37 C0.94 94.76, 1.51 92.15, 2.27 89.55 C3.02 86.96, 3.96 84.38, 5.09 81.82 C6.21 79.26, 7.52 76.72, 9.01 74.22 C10.5 71.71, 12.18 69.23, 14.02 66.79 C15.87 64.35, 17.9 61.94, 20.09 59.58 C22.28 57.22, 24.65 54.89, 27.18 52.62 C29.7 50.35, 32.4 48.12, 35.25 45.96 C38.1 43.79, 41.11 41.67, 44.26 39.62 C47.41 37.57, 50.72 35.58, 54.15 33.66 C57.59 31.74, 61.18 29.88, 64.88 28.09 C68.58 26.31, 72.43 24.59, 76.38 22.96 C80.33 21.33, 84.41 19.76, 88.58 18.29 C92.76 16.81, 97.05 15.41, 101.43 14.1 C105.8 12.79, 110.29 11.56, 114.84 10.42 C119.39 9.28, 124.04 8.23, 128.75 7.27 C133.45 6.32, 138.24 5.45, 143.06 4.68 C147.89 3.9, 152.79 3.22, 157.72 2.64 C162.64 2.06, 167.63 1.57, 172.62 1.18 C177.62 0.78, 182.66 0.49, 187.7 0.29 C192.74 0.1, 197.8 0, 202.86 0 C207.91 0, 212.98 0.1, 218.02 0.29 C223.06 0.49, 228.09 0.78, 233.09 1.18 C238.09 1.57, 243.07 2.06, 248 2.64 C252.92 3.22, 257.82 3.9, 262.65 4.68 C267.48 5.45, 272.27 6.32, 276.97 7.27 C281.67 8.23, 286.32 9.28, 290.87 10.42 C295.43 11.56, 299.91 12.79, 304.29 14.1 C308.66 15.41, 312.96 16.81, 317.13 18.29 C321.31 19.76, 325.39 21.33, 329.34 22.96 C333.29 24.59, 337.13 26.31, 340.84 28.09 C344.54 29.88, 348.12 31.74, 351.56 33.66 C355 35.58, 358.31 37.57, 361.46 39.62 C364.61 41.67, 367.62 43.79, 370.47 45.96 C373.31 48.12, 376.01 50.35, 378.54 52.62 C381.06 54.89, 383.43 57.22, 385.63 59.58 C387.82 61.94, 389.85 64.35, 391.69 66.79 C393.54 69.23, 395.21 71.71, 396.7 74.22 C398.19 76.72, 399.5 79.26, 400.63 81.82 C401.75 84.38, 402.7 86.96, 403.45 89.55 C404.2 92.15, 404.77 94.76, 405.15 97.37 C405.52 99.99, 405.71 102.62, 405.71 105.24" stroke="#1e1e1e" stroke-width="1" fill="none"></path></g><g transform="translate(102.29316057477672 257.1238909040178) rotate(0 180.46875 50.400000000000006)"><text x="180.46875" y="27.0375" font-family="Cascadia, Segoe UI Emoji" font-size="28px" fill="#1e1e1e" text-anchor="middle" style="white-space: pre;" direction="ltr" dominant-baseline="alphabetic">Constant</text><text x="180.46875" y="60.6375" font-family="Cascadia, Segoe UI Emoji" font-size="28px" fill="#1e1e1e" text-anchor="middle" style="white-space: pre;" direction="ltr" dominant-baseline="alphabetic">int_const / unit_const</text><text x="180.46875" y="94.23750000000001" font-family="Cascadia, Segoe UI Emoji" font-size="28px" fill="#1e1e1e" text-anchor="middle" style="white-space: pre;" direction="ltr" dominant-baseline="alphabetic">...</text></g><g transform="translate(344.12278529575883 73.96197451636908) rotate(0 52.734375 21.599999999999994)"><text x="52.734375" y="34.762499999999996" font-family="Cascadia, Segoe UI Emoji" font-size="36px" fill="#1e1e1e" text-anchor="middle" style="white-space: pre;" direction="ltr" dominant-baseline="alphabetic">Value</text></g></svg>